<svg viewBox="0 0 400 300" fill="none" xmlns="http://www.w3.org/2000/svg"><mask id="a" style="mask-type:alpha" maskUnits="userSpaceOnUse" x="70" y="34" width="242" height="244"><path d="M191 277.318c66.76 0 120.88-54.316 120.88-121.318S257.76 34.682 191 34.682C124.239 34.682 70.12 88.998 70.12 156S124.238 277.318 191 277.318Z" fill="#5578EC"/></mask><g mask="url(#a)"><path opacity=".1" d="M191 277.318c66.76 0 120.88-54.316 120.88-121.318S257.76 34.682 191 34.682C124.239 34.682 70.12 88.998 70.12 156S124.238 277.318 191 277.318Z" fill="#5578EC"/><path d="M306.128 230.593h-28.392l12.925-13.324c4.478-4.495 8.052-8.37 10.622-11.518a42.378 42.378 0 0 0 6.367-10.41 30.88 30.88 0 0 0 2.32-11.959 30.732 30.732 0 0 0-4.424-16.524 30.727 30.727 0 0 0-12.571-11.601 38.149 38.149 0 0 0-17.728-4.075c-8.538 0-15.77 1.935-21.498 5.754a31.62 31.62 0 0 0-12.449 16.891 4.414 4.414 0 0 0 1.917 5.177l11.979 7.17a4.393 4.393 0 0 0 3.803.336 4.386 4.386 0 0 0 2.625-2.772 15.947 15.947 0 0 1 4.926-7.826 12.39 12.39 0 0 1 8.039-2.463c3.286 0 5.758.877 7.554 2.679a9.885 9.885 0 0 1 2.671 7.363c.04 2.491-.567 4.95-1.761 7.136a46.445 46.445 0 0 1-7.628 9.286l-33.958 34.413a4.412 4.412 0 0 0-1.271 3.1v11.03a4.398 4.398 0 0 0 4.39 4.406h61.542a4.4 4.4 0 0 0 4.39-4.406v-13.457a4.399 4.399 0 0 0-4.39-4.406Z" fill="#DCDDDD" stroke="#31333A" stroke-width=".998" stroke-linecap="round" stroke-linejoin="round"/><path d="m224.948 69.707-12.732 14.069 10.444 9.822 8.908-16.641-6.62-7.25Z" fill="#fff"/><path d="M228.676 92.683c-1.22-.42-3.212-18.067-3.212-18.067-3.006-6.439 8.895 2.936 8.895 2.936s-.761 5.57-.967 5.76c-.205.191-5.367 6.453-5.367 6.453" fill="#DCDDDD"/><g opacity=".19" stroke="#fff" stroke-width="1.996" stroke-miterlimit="10"><path d="m185.439 10.797 155.067 88.776M170.026 37.916l155.067 88.776M180.301 19.837l155.067 88.776M164.888 46.955l155.067 88.776M149.474 74.074l155.067 88.777M159.75 55.995l155.067 88.776M139.198 92.152l155.067 88.777M128.923 110.231l155.066 88.777M113.509 137.351l155.067 88.776M175.164 28.876l155.066 88.776M154.612 65.034l155.067 88.776M144.336 83.113l155.067 88.777M123.785 119.271l155.066 88.777M134.061 101.192l155.066 88.777M118.647 128.311l155.067 88.776M108.371 146.39l155.067 88.776M103.233 155.43 258.3 244.206M338.153 90.94l-88.456 155.628M311.132 75.47l-88.456 155.628M329.146 85.783 240.69 241.411M302.125 70.314l-88.456 155.628M275.105 54.844l-88.457 155.628M293.118 65.157l-88.456 155.628M257.091 44.531 168.635 200.16M239.077 34.218l-88.456 155.628M212.056 18.749 123.6 174.377M320.139 80.626l-88.456 155.628M284.111 60l-88.456 155.628M266.098 49.688l-88.456 155.628M230.07 29.061 141.614 184.69M248.084 39.374l-88.456 155.628M221.063 23.905l-88.456 155.628M203.049 13.592 114.593 169.22M194.043 8.436l-88.457 155.628"/></g><path d="m224.948 69.707-12.732 14.069 10.444 9.822 8.908-16.641-6.62-7.25Z" stroke="#31333A" stroke-width=".998" stroke-linecap="round" stroke-linejoin="round"/><path d="m235.613 67.678 1.428 12.058-5.591 1.492-4.817-6.45-6.103 1.057-.766-9.231 15.849 1.075Z" fill="#fff" stroke="#31333A" stroke-width=".998" stroke-linecap="round" stroke-linejoin="round"/><path d="m227.525 72.692.981 7.968c7.342 13.188 14.651 2.169 8.258-3.263 0 0-6.206 1.093-6.295-.697-.089-1.791 0-10.096 0-10.096l-11.062-.806.357 9.938 6.015.782-1.257-4.244 3.003.418Z" fill="#31333A"/><path d="M222.529 68.395h7.94c11.062-.179 14.16-7.188 2.528-8.416-11.597-1.223-13.784 1.701-13.561 6.626" fill="#31333A"/><path d="m228.285 78.865-.805-6.933c-4.817-4.656-4.456 3.66.805 6.933Z" fill="#fff" stroke="#31333A" stroke-width=".998" stroke-linecap="round" stroke-linejoin="round"/><path d="M234.34 74.038a.832.832 0 0 0 .662-.9l-.099-.704a.712.712 0 0 0-.577-.587.703.703 0 0 0-.291.013.832.832 0 0 0-.662.9l.099.704a.705.705 0 0 0 .868.574Z" fill="#31333A"/><path d="m234.69 70.496-2.972.528M225.479 72.7l1.474 1.216M225.479 74.125l.709-.84" stroke="#31333A" stroke-width=".998" stroke-linecap="round" stroke-linejoin="round"/><path d="M214.254 79.493A7.484 7.484 0 0 1 218 76.225s6.673 2.92 8.361 14.316l-11.389-10.167-.718-.88Z" fill="#fff" stroke="#31333A" stroke-width=".998" stroke-linecap="round" stroke-linejoin="round"/><path d="m255.512 114.386 5.371-2.384 10.016-4.287 12.942-1.565c1.236 2.15-6.243 2.998-9.95 5.995-2.366 1.914-18.378 10.804-18.378 10.804l-.001-8.563Z" fill="#fff"/><path d="M266.987 122.176c-1.384-8.406-5.172-10.877-5.172-10.877s-.882 7.23-.796 7.494a45.857 45.857 0 0 0 4.93 2.083" fill="#DCDDDD"/><path d="m255.512 114.386 5.371-2.384 10.016-4.287 12.942-1.565c1.236 2.15-6.243 2.998-9.95 5.995-2.366 1.914-18.378 10.804-18.378 10.804l-.001-8.563Z" stroke="#31333A" stroke-width=".998" stroke-linecap="round" stroke-linejoin="round"/><path d="M261.815 111.3s3.707 5.017 2.211 9.644l-19.308 10.09a6.808 6.808 0 0 1-8.397-1.699l-23.411-28.33 11.054-11.33 20.603 27.875 17.248-6.25Z" fill="#fff"/><path d="M261.815 111.3s3.707 5.017 2.211 9.644l-19.308 10.09a6.808 6.808 0 0 1-8.397-1.699l-23.411-28.33 11.054-11.33 20.603 27.875 17.248-6.25Z" stroke="#31333A" stroke-width=".998" stroke-linecap="round" stroke-linejoin="round"/><path d="M264.971 200.162c.298.448 6.851 20.926 6.851 20.926l12.064-5.979-5.66-26.457-13.255 11.51Z" fill="#fff"/><path d="M263.841 216.712c6.267-.961 19.039-11.842 19.039-11.842l-15.455-2.903-5.554 9.89" fill="#DCDDDD"/><path d="M264.971 200.162c.298.448 6.851 20.926 6.851 20.926l12.064-5.979-5.66-26.457-13.255 11.51Z" stroke="#31333A" stroke-width=".998" stroke-linecap="round" stroke-linejoin="round"/><path d="m275.992 226.395-1.435 1.677 1.435 2.06 13.628-4.634v-4.41" fill="#280239"/><path d="M270.858 218.083a10.099 10.099 0 0 0 3.699 9.989l36.579-11.882c1.396-9.651-22.043 3.433-27.001-6.332l-13.277 8.225Z" fill="#31333A"/><path d="M122.882 165.35c-.536-.006-21.062-6.129-21.062-6.129l-1.889 13.358 24.935 10.234-1.984-17.463Z" fill="#fff"/><path d="M114.63 155.696c-12.327 16.565 3.315 30.691 3.315 30.691l5.261-25.25-17.924-5.591" fill="#DCDDDD"/><path d="M122.882 165.35c-.536-.006-21.062-6.129-21.062-6.129l-1.889 13.358 24.935 10.234-1.984-17.463Z" stroke="#31333A" stroke-width=".998" stroke-linecap="round" stroke-linejoin="round"/><path d="m95.108 159.681-.57-2.134-2.501.026-3.877 13.894 3.624 2.487" fill="#280239"/><path d="M105.651 160.36s-4.968-4.883-11.111-2.814l-10.863 36.981c7.145 6.598 9.61-20.183 20.43-18.781l1.544-15.386Z" fill="#31333A"/><path d="M177.755 154.173c5.221 9.346 67.285 3.981 67.285 3.981l10.202 55.268s23.745-1.921 32.445-13.454l-17.898-56.516a13.807 13.807 0 0 0-10.671-9.426l-64.113-11.736s-22.471 22.538-17.25 31.883Z" fill="#5578EC"/><path d="m205.552 130.829 10.194 66.599c1.729 4.85 5.194-26.121 5.194-26.121l-34.834-6.091 12.9-25.175" fill="#fff"/><path d="m205.552 130.829 10.194 66.599c1.729 4.85 5.194-26.121 5.194-26.121l-34.834-6.091 12.9-25.175M244.216 205.796c24.017 4.147 43.47-14.49 43.47-14.49" stroke="#31333A" stroke-width=".998" stroke-linecap="round" stroke-linejoin="round"/><path d="M177.755 154.173c5.221 9.346 67.285 3.981 67.285 3.981l10.202 55.268s23.745-1.921 32.445-13.454l-17.898-56.516a13.807 13.807 0 0 0-10.671-9.426l-64.113-11.736s-22.471 22.538-17.25 31.883Z" stroke="#31333A" stroke-width=".998" stroke-linecap="round" stroke-linejoin="round"/><path d="M117.257 161.489s-10.873 21.816-7.425 35.028l61.745 7.146A15.956 15.956 0 0 0 191.111 193l18.273-68.078s-34.468-21.073-40.329-9.29c-5.861 11.782-2.677 55.332-2.677 55.332l-49.121-9.475Z" fill="#5578EC"/><path d="M126.471 160.385c-10.877 12.103-9.354 41.941-9.354 41.941l9.354-41.941Z" fill="#fff"/><path d="M126.471 160.385c-10.877 12.103-9.354 41.941-9.354 41.941" stroke="#31333A" stroke-width=".998" stroke-linecap="round" stroke-linejoin="round"/><path d="M117.257 161.489s-10.873 21.816-7.425 35.028l61.745 7.146A15.956 15.956 0 0 0 191.111 193l18.273-68.078s-34.468-21.073-40.329-9.29c-5.861 11.782-2.677 55.332-2.677 55.332l-49.121-9.475Z" stroke="#31333A" stroke-width=".998" stroke-linecap="round" stroke-linejoin="round"/><path d="m180.745 128.989-3.18 48.7a7.396 7.396 0 0 1-2.841 5.32 7.388 7.388 0 0 1-5.859 1.43l-50.348-9.309M180.534 146.805c7.742 1.133 7.142-12.265 7.142-12.265" stroke="#31333A" stroke-width=".998" stroke-linecap="round" stroke-linejoin="round"/><path d="M227.086 89.359s-3.498-10.125-16.85-11.229c-23.725-1.962-45.885 20.016-44.226 42.483 0 0 24.721 15.26 41.945 6.617-4.306-18.367 20.874-16.599 19.131-37.871Z" fill="#fff"/><path d="M198.23 100.456c7.58 12.245 9.795 29.278-26.678 23.392-36.473-5.886 32.235 16.038 32.235 16.038s9.049-3.406 10.467-3.193c1.419.213 11.152-14.222 11.152-14.222s-1.268-12.332-8.991-29.378c-4.275-9.436-17.529-2.164-17.529-2.164" fill="#DCDDDD"/><path d="M227.086 89.359s-3.498-10.125-16.85-11.229c-23.725-1.962-45.885 20.016-44.226 42.483 0 0 24.721 15.26 41.945 6.617-4.306-18.367 20.874-16.599 19.131-37.871Z" stroke="#31333A" stroke-width=".998" stroke-linecap="round" stroke-linejoin="round"/><path d="m257.085 108.426-1.573 2.205 1.573.959 31.083-6.311a.89.89 0 0 0 .61-.451.897.897 0 0 0 .048-.758l-.472-1.21-11.107-1.439-19.82 7.984-.342-.979Z" fill="#fff" stroke="#31333A" stroke-width=".998" stroke-linecap="round" stroke-linejoin="round"/><path d="M290.258 70.827a.65.65 0 0 0-.621-.666l-1.056 33.958.561-.218 1.116-33.074Z" fill="#16D5AE"/><path d="M281.166 69.78a.352.352 0 0 0-.339.202.366.366 0 0 0-.034.134l-1.241 29.71 9.274 4.244.811-33.909-8.471-.38Z" fill="#fff" stroke="#31333A" stroke-width=".998" stroke-linecap="round" stroke-linejoin="round"/><path d="m254.459 106.026 1.053 4.605 33.314-6.561-9.377-4.279-24.99 6.235Z" fill="#DCDDDD"/><path d="m180.534 114.621 6.569-7.774s34.914-4.647 38.703-19.121l1.28 1.633c-6.136 21.709-36.036 26.403-36.036 26.403l-10.516-1.141Z" fill="#DCDDDD" stroke="#31333A" stroke-width=".998" stroke-linecap="round" stroke-linejoin="round"/><path d="M238.317 112.342s5.592-3.345 7.327-4.778c1.734-1.434 5.332-5.3 6.113-5.517.78-.218 5.81-1.955 6.763-1.52.954.434 6.937 1.455 6.937 1.455.759 2.346-6.243.977-6.243.977s3.382 2.085 3.425 2.52c.044.435-.13.522-.13.522l1.29.543c.91 1.954-5.658 1.01-5.658 1.01l-6.557 5.897-14.871 5.343 1.604-6.452Z" fill="#fff"/><path d="M246.316 119.701c1.903-2.926-.176-10.363-2.308-10.948-2.132-.586-2.766 10.68-2.766 10.68l4.901 1.04" fill="#DCDDDD"/><path d="M238.317 112.342s5.592-3.345 7.327-4.778c1.734-1.434 5.332-5.3 6.113-5.517.78-.218 5.81-1.955 6.763-1.52.954.434 6.937 1.455 6.937 1.455.759 2.346-6.243.977-6.243.977s3.382 2.085 3.425 2.52c.044.435-.13.522-.13.522l1.29.543c.91 1.954-5.658 1.01-5.658 1.01l-6.557 5.897-14.871 5.343 1.604-6.452Z" stroke="#31333A" stroke-width=".998" stroke-linecap="round" stroke-linejoin="round"/><path d="M244.008 108.752s2.633 1.331.812 10.041l-20.779 10.759a7.736 7.736 0 0 1-9.918-2.905l-16.82-27.72c-11.55-17.022 16.769-24.457 20.551-11.9l6.872 25.27 19.282-3.545Z" fill="#fff"/><path d="M244.008 108.752s2.633 1.331.812 10.041l-20.779 10.759a7.736 7.736 0 0 1-9.918-2.905l-16.82-27.72c-11.55-17.022 16.769-24.457 20.551-11.9l6.872 25.27 19.282-3.545Z" stroke="#31333A" stroke-width=".998" stroke-linecap="round" stroke-linejoin="round"/><path d="m255.512 102.776 2.744-.236.958.419" fill="#fff"/><path d="m255.512 102.776 2.744-.236.958.419M224.726 112.297l-2.228 3.464M207.68 131.748l-2.768 10.49M249.121 150.812l-4.297 7.342" stroke="#31333A" stroke-width=".998" stroke-linecap="round" stroke-linejoin="round"/><path d="M145.986 191.221a32.919 32.919 0 0 0-17.011-4.415 25.349 25.349 0 0 0-7.412 1.136l1.279-12.948h30.75a4.398 4.398 0 0 0 4.39-4.406v-13.567a4.402 4.402 0 0 0-4.39-4.407h-48.684a4.398 4.398 0 0 0-4.369 3.968l-5.055 50.737a4.407 4.407 0 0 0 3.238 4.696l13.187 3.528a4.384 4.384 0 0 0 4.969-2.118 7.938 7.938 0 0 1 3.194-3.091 12.174 12.174 0 0 1 5.936-1.259 10.527 10.527 0 0 1 8.169 3.075 10.546 10.546 0 0 1 3.047 8.18c0 3.756-1.006 6.603-3.075 8.705-2.054 2.088-4.79 3.103-8.361 3.103a13.34 13.34 0 0 1-8.098-2.427 14.115 14.115 0 0 1-5.021-7.006 4.383 4.383 0 0 0-6.383-2.299l-11.979 7.17a4.412 4.412 0 0 0-1.939 5.108 29.557 29.557 0 0 0 11.925 15.655c5.847 4.025 13.08 6.066 21.495 6.066a39.44 39.44 0 0 0 18.521-4.252 31.787 31.787 0 0 0 12.846-12.142 34.386 34.386 0 0 0 4.565-17.681 35.374 35.374 0 0 0-4.102-16.989 31.008 31.008 0 0 0-11.632-12.12ZM200.738 151.182c-12.314 0-21.808 4.679-28.218 13.908-6.066 8.732-9.141 21.417-9.141 37.703 0 16.212 3.073 28.876 9.135 37.641 6.409 9.271 15.905 13.972 28.224 13.972 12.317 0 21.812-4.7 28.225-13.971 6.062-8.768 9.135-21.432 9.135-37.642 0-16.284-3.076-28.969-9.142-37.705-6.413-9.228-15.907-13.906-28.218-13.906Zm12.204 51.611c0 10.968-1.166 18.951-3.463 23.727-1.871 3.885-4.567 5.618-8.741 5.618-4.175 0-6.87-1.733-8.74-5.617-2.298-4.775-3.463-12.758-3.463-23.728 0-10.97 1.165-18.952 3.463-23.727 1.87-3.884 4.565-5.616 8.74-5.616 4.174 0 6.87 1.732 8.74 5.616 2.298 4.777 3.464 12.761 3.464 23.727Z" fill="#DCDDDD" stroke="#31333A" stroke-width=".998" stroke-linecap="round" stroke-linejoin="round"/><path d="m122.241 73.609 5.925-4.409a1.628 1.628 0 0 0 .337-2.276l-9.17-12.414a1.607 1.607 0 0 0-1.064-.64 1.615 1.615 0 0 0-1.204.301l-8.868 6.598a1.629 1.629 0 0 0-.337 2.276l6.988 9.46 7.393 1.104Z" fill="#fff"/><path d="m122.241 73.609 5.925-4.409a1.628 1.628 0 0 0 .337-2.276l-9.17-12.414a1.607 1.607 0 0 0-1.064-.64 1.615 1.615 0 0 0-1.204.301l-8.868 6.598a1.629 1.629 0 0 0-.337 2.276l6.988 9.46 7.393 1.104Z" stroke="#31333A" stroke-width=".998" stroke-linecap="round" stroke-linejoin="round"/><path d="M120.059 70.654a1.606 1.606 0 0 0-1.063-.64 1.621 1.621 0 0 0-1.205.302l-2.943 2.19 7.393 1.103-2.182-2.955Z" fill="#DCDDDD"/><path d="m172.47 80.437 1.799-9.852a2.201 2.201 0 0 0-1.763-2.562l-20.495-3.77a2.194 2.194 0 0 0-2.553 1.77l-2.693 14.746a2.202 2.202 0 0 0 1.763 2.563l15.618 2.872 8.324-5.767Z" fill="#fff"/><path d="m172.47 80.437 1.799-9.852a2.201 2.201 0 0 0-1.763-2.562l-20.495-3.77a2.194 2.194 0 0 0-2.553 1.77l-2.693 14.746a2.202 2.202 0 0 0 1.763 2.563l15.618 2.872 8.324-5.767Z" stroke="#31333A" stroke-width=".998" stroke-linecap="round" stroke-linejoin="round"/><path d="M167.593 79.54a2.196 2.196 0 0 0-2.554 1.768l-.893 4.895 8.324-5.767-4.877-.897Z" fill="#DCDDDD"/><path d="M122.241 124.179c2.964 0 5.367-2.412 5.367-5.386 0-2.975-2.403-5.387-5.367-5.387s-5.366 2.412-5.366 5.387c0 2.974 2.402 5.386 5.366 5.386ZM291.023 175.324l9.057-3.313M286.495 183.293l9.057-3.314" stroke="#3351E5" stroke-width="1.996" stroke-linecap="round" stroke-linejoin="round"/></g></svg>