<svg viewBox="0 0 400 300" fill="none" xmlns="http://www.w3.org/2000/svg"><path opacity=".27" d="M210.866 274.473c67.002 0 121.318-54.316 121.318-121.318S277.868 31.837 210.866 31.837 89.548 86.153 89.548 153.155s54.316 121.318 121.318 121.318Z" fill="#D6DCED"/><path d="M236.091 109.308a35.038 35.038 0 1 1 0 70.075 35.038 35.038 0 0 1 0-70.075Zm76.863 35.052a76.864 76.864 0 0 0-98.768-73.671 76.871 76.871 0 0 0-50.247 47.181 76.874 76.874 0 0 0 7.774 68.486l57.497 76.662a7.7 7.7 0 0 0 10.94 3.112 7.713 7.713 0 0 0 2.838-3.112l57.605-76.662a77.534 77.534 0 0 0 12.361-41.996Z" fill="#5578EC" stroke="#31333A" stroke-linecap="round" stroke-linejoin="round"/><path d="m113.069 256.95 10.779 2.339 8.825-26.506-14.906 1.33-4.698 22.837Z" fill="#fff"/><path d="M131.046 255.68c-9.193-1.36-16.009-8.292-16.009-8.292l18.323-1.352" fill="#DCDDDD"/><path d="m113.069 256.95 10.779 2.339 8.825-26.506-14.906 1.33-4.698 22.837Z" stroke="#31333A" stroke-linecap="round" stroke-linejoin="round"/><path d="m121.031 270.758 3.671-12.114-13.175-4.399s2.557 8.807-10.569 9.958c-14.19 1.245-15.968 5.913-15.968 5.913l36.041.642Z" fill="#fff"/><path d="m123.952 269.178-41.593-.733" stroke="#31333A" stroke-linecap="round" stroke-linejoin="round"/><path d="M118.705 264.04c1.427-.677 2.081-2.287 1.46-3.596-.621-1.309-2.281-1.82-3.709-1.143-1.427.677-2.081 2.287-1.46 3.596.621 1.308 2.281 1.82 3.709 1.143Z" fill="#fff" stroke="#31333A" stroke-linecap="round" stroke-linejoin="round"/><path d="m112.873 259.708-6.834-4.394-1.267 5.022 7.314 2.989" fill="#fff"/><path d="m112.873 259.708-6.834-4.394-1.267 5.022 7.314 2.989" stroke="#31333A" stroke-linecap="round" stroke-linejoin="round"/><path d="m121.031 270.758 3.671-12.114-13.175-4.399s2.557 8.807-10.569 9.958c-14.19 1.245-15.968 5.913-15.968 5.913l36.041.642Z" stroke="#31333A" stroke-linecap="round" stroke-linejoin="round"/><path d="m121.616 230.304-4.156 11.473-9.098.997 4.907-12.839 8.347.369Z" fill="#fff"/><path d="M102.947 238.051c12.132 2.232 11.957-.091 15.816.129 3.858.219-5.734-4.42-5.734-4.42l-6.711 1.974" fill="#DCDDDD"/><path d="m121.616 230.304-4.156 11.473-9.098.997 4.907-12.839 8.347.369Z" stroke="#31333A" stroke-linecap="round" stroke-linejoin="round"/><path d="M170.84 231.188v12.031l7.547-1.641.384-10.763-7.931.373Z" fill="#fff"/><path d="M167.376 235.906c5.939 2.06 10.246-.009 12.296 1.111 2.049 1.121-.082-5.574-.082-5.574l-6.804 1.288" fill="#DCDDDD"/><path d="M170.84 231.188v12.031l7.547-1.641.384-10.763-7.931.373Z" stroke="#31333A" stroke-linecap="round" stroke-linejoin="round"/><path d="m175.324 257.139-11.653 2.425 1.095-27.476 14.408 1.378-3.85 23.673Z" fill="#fff"/><path d="M157.824 255.824c9.702-1.41 19.112-8.596 19.112-8.596l-17.817-1.402" fill="#DCDDDD"/><path d="m175.324 257.139-11.653 2.425 1.095-27.476 14.408 1.378-3.85 23.673Z" stroke="#31333A" stroke-linecap="round" stroke-linejoin="round"/><path d="m162.195 271.453.863-12.557 14.821-4.56s-5.854 9.129 6.842 10.323c13.724 1.29 13.082 6.129 13.082 6.129l-35.608.665Z" fill="#fff"/><path d="m159.865 269.815 41.867-.759" stroke="#31333A" stroke-linecap="round" stroke-linejoin="round"/><path d="M170.573 263.902c1.379-1.126 1.814-2.875.971-3.907-.843-1.033-2.644-.957-4.023.169-1.379 1.126-1.814 2.875-.971 3.907.843 1.033 2.644.957 4.023-.169Z" fill="#fff" stroke="#31333A" stroke-linecap="round" stroke-linejoin="round"/><path d="m174.488 259.999 8.479-4.555-.613 5.206-8.433 3.098" fill="#fff"/><path d="m174.488 259.999 8.479-4.555-.613 5.206-8.433 3.098" stroke="#31333A" stroke-linecap="round" stroke-linejoin="round"/><path d="m162.195 271.453.863-12.557 14.821-4.56s-5.854 9.129 6.842 10.323c13.724 1.29 13.082 6.129 13.082 6.129l-35.608.665Z" stroke="#31333A" stroke-linecap="round" stroke-linejoin="round"/><path d="M157.172 246.434c18.769 4.878 28.742-3.66 28.742-3.66l-2.793-139.026-25.949 1.933v140.753Z" fill="#B5B5B6"/><path d="m168.248 136.16-11.076 67.72-9.773-21.993 10.423-31.961" fill="#31333A"/><path d="M157.172 246.434c18.769 4.878 28.742-3.66 28.742-3.66l-2.793-139.026-25.949 1.933v140.753Z" stroke="#31333A" stroke-linecap="round" stroke-linejoin="round"/><path d="m183.305 100.624-31.93 2.291-45.057 140.538c15.298 11.962 30.111 6.73 30.111 6.73l37.826-120.685" fill="#B5B5B6"/><path d="m153.574 110.625-41.646 130.307" stroke="#31333A" stroke-linecap="round" stroke-linejoin="round"/><path d="M136.273 117.441c11.286 1.558 37.905-10.102 37.905-10.102l-26.127-2.751" fill="#31333A"/><path d="m166.444 138.3 3.418.459M183.305 100.624l-31.93 2.291-45.057 140.538c15.298 11.962 30.111 6.73 30.111 6.73l37.826-120.685" stroke="#31333A" stroke-linecap="round" stroke-linejoin="round"/><path d="M160.813 78.998c-43.495-3.754-27.769-34.956-3.322-38.271 12.246-1.66 10.924-25.798 30.075-9.677 10.671 8.983-5.049 19.512-2.968 24.455 2.082 4.943 3.122 17.43-10.796 19.771-13.918 2.342-12.989 3.722-12.989 3.722Z" fill="#31333A"/><path d="m190.742 132.119 6.401 6.442a.862.862 0 0 1 .056 1.147l-11.209 13.195a.705.705 0 0 1-1.055.028l-6.401-6.441a.863.863 0 0 1-.057-1.147l11.209-13.195a.692.692 0 0 1 .234-.182.71.71 0 0 1 .822.153Z" fill="#fff" stroke="#31333A" stroke-linecap="round" stroke-linejoin="round"/><path d="m187.076 145.72 1.712 1.723a.23.23 0 0 1 .015.307l-2.998 3.53a.185.185 0 0 1-.14.067.185.185 0 0 1-.142-.059l-1.713-1.724a.235.235 0 0 1-.066-.15.236.236 0 0 1 .051-.156l2.999-3.53a.185.185 0 0 1 .217-.053c.025.01.047.025.065.045Z" fill="#fff" stroke="#31333A" stroke-linecap="round" stroke-linejoin="round"/><path d="m184.927 98.462-2.195 2.855 1.547 28.054s-.627 5.77-.879 8.003c-.252 2.233-2.522 4.181-2.522 4.181s1.486 3.655 5.449-2.61c2.049 1.472 4.86 6.721 4.735 7.837-.126 1.117 2.253 1.415 2.053-2.347 0 0 1.806.068 1.016-2.609 0 0 1.532-.568.541-3.004-.99-2.436-1.424-5.43-2.194-7.285-.769-1.855-.531-27.326-.531-27.326l-7.02-5.75Z" fill="#fff"/><path d="M183.744 124.592a46.49 46.49 0 0 0 13.336 9.784c.938 2.934-.51-5.935-.51-5.935l-4.86-1.576" fill="#DCDDDD"/><path d="m184.927 98.462-2.195 2.855 1.547 28.054s-.627 5.77-.879 8.003c-.252 2.233-2.522 4.181-2.522 4.181s1.486 3.655 5.449-2.61c2.049 1.472 4.86 6.721 4.735 7.837-.126 1.117 2.253 1.415 2.053-2.347 0 0 1.806.068 1.016-2.609 0 0 1.532-.568.541-3.004-.99-2.436-1.424-5.43-2.194-7.285-.769-1.855-.531-27.326-.531-27.326l-7.02-5.75Z" stroke="#31333A" stroke-linecap="round" stroke-linejoin="round"/><path d="M179.824 123.984c12.862 6.964 13.849 3.423 13.849 3.423l-2.203-63.566c-2.901-14.227-25.189-6.701-25.171-2.032l13.525 62.175Z" fill="#fff"/><path d="M176.452 121.507a17.012 17.012 0 0 0 8.355-10.961l-9.468 2.808" fill="#DCDDDD"/><g opacity=".2" stroke="#fff" stroke-width="2.485" stroke-miterlimit="10"><path d="m69.878 123.692 222.63-53.417M72.292 133.754l222.63-53.417M74.706 143.815l222.63-53.417M77.12 153.877l222.63-53.417M60.222 83.446l222.63-53.417M62.636 93.507l222.63-53.416M65.05 103.569l222.63-53.417M67.464 113.63l222.63-53.416"/></g><path d="M179.824 123.984c12.862 6.964 13.849 3.423 13.849 3.423l-2.203-63.566c-2.901-14.227-25.189-6.701-25.171-2.032l13.525 62.175Z" stroke="#31333A" stroke-linecap="round" stroke-linejoin="round"/><path d="M214.611 75.913c-.264-.441-3.745-1.528-3.745-1.528 6.328-4.702 7.463-6.322 5.655-6.889 0 0-5.199 2.991-10.338 6.138-5.139 3.146-11.836 10.24-14.308 13.756l4.259 6.183s4.502-3.096 5.751-4.215c.784-.702 3.69-4.986 5.478-6.733 3.118-.858 4.422-.531 5.43-1.018.281-.11 2.082-5.254 1.818-5.694Z" fill="#fff"/><path d="M198.258 79.595c5.938 1.011 18.084 16.427 17.96 20.401-.123 3.974-19.532-9.158-19.532-9.158l-.854-8.72" fill="#DCDDDD"/><path d="M214.611 75.913c-.264-.441-3.745-1.528-3.745-1.528 6.328-4.702 7.463-6.322 5.655-6.889 0 0-5.199 2.991-10.338 6.138-5.139 3.146-11.836 10.24-14.308 13.756l4.259 6.183s4.502-3.096 5.751-4.215c.784-.702 3.69-4.986 5.478-6.733 3.118-.858 4.422-.531 5.43-1.018.281-.11 2.082-5.254 1.818-5.694Z" stroke="#31333A" stroke-linecap="round" stroke-linejoin="round"/><path d="M184.041 56.247a22.315 22.315 0 0 0-9.271-3.875c-14.607-2.867-27.239 7.153-27.239 7.153l8.566 26.529s-8.46 9.336-12.138 18.431c-1.853 4.583 38.945 16.816 44.724 7.427 2.439-3.963-2.915-31.423-2.915-31.423s3.948-2.546 4.562-9.42" fill="#fff"/><g opacity=".2" stroke="#fff" stroke-width="2.485" stroke-miterlimit="10"><path d="m56.784 115.35 222.63-53.416M59.198 125.412l222.63-53.417M61.612 135.473l222.63-53.416M64.026 145.535l222.63-53.417M47.127 75.104l222.631-53.416M49.541 85.165 272.173 31.75M51.956 95.227l222.63-53.417M54.37 105.289 277 51.872"/></g><path d="M163.747 48.21c3.419 10.587 23.905 16.46 18.418 7.747-4.618-7.333-18.859-11.402-18.859-11.402" fill="#fff"/><path d="M163.747 48.21c3.419 10.587 23.905 16.46 18.418 7.747-4.618-7.333-18.859-11.402-18.859-11.402" stroke="#31333A" stroke-linecap="round" stroke-linejoin="round"/><path d="M125.915 107.143c12.903 7.692 40.957 5.601 44.753 4.913 3.796-.688-20.965-28.62-20.965-28.62" fill="#DCDDDD"/><path d="m171.543 73.333 10.617 22.781-16.543 6.231" fill="#DCDDDD"/><path d="M184.041 56.247a22.315 22.315 0 0 0-9.271-3.875c-14.607-2.867-27.239 7.153-27.239 7.153l8.566 26.529s-8.46 9.336-12.138 18.431c-1.853 4.583 38.945 16.816 44.724 7.427 2.439-3.963-2.915-31.423-2.915-31.423s3.948-2.546 4.562-9.42" stroke="#31333A" stroke-linecap="round" stroke-linejoin="round"/><path d="m171.972 69.581 4.536 22.033 25.385-15.063s2.653.582 2.693 10.657c.009 2.15-27.21 22.62-27.21 22.62-5.716 4.18-14.27 2.246-17.134-3.875L144.959 73.3c-3.026-6.467-.097-13.952 6.754-17.262l9.024-2.956" fill="#fff"/><g opacity=".2" stroke="#fff" stroke-width="2.485" stroke-miterlimit="10"><path d="M64.07 114.308 286.7 60.892M66.484 124.37l222.63-53.417M68.898 134.431l222.63-53.416M71.312 144.492l222.63-53.417M54.414 74.062l222.63-53.416M56.828 84.124l222.63-53.417M59.242 94.185l222.63-53.416M61.656 104.247l222.63-53.417"/></g><path d="m171.972 69.581 4.536 22.033 25.385-15.063s2.653.582 2.693 10.657c.009 2.15-27.21 22.62-27.21 22.62-5.716 4.18-14.27 2.246-17.134-3.875L144.959 73.3c-3.026-6.467-.097-13.952 6.754-17.262l9.024-2.956" stroke="#31333A" stroke-linecap="round" stroke-linejoin="round"/><path d="m177.387 54.308 3.565-10.387-7.498-1.782-6.172 10.123" fill="#fff"/><path d="m174.764 46.01 3.657 9.404c0 1.347 5.31-8.411 5.31-8.411l-8.967-.992Z" fill="#DCDDDD"/><path d="m177.387 54.308 3.565-10.387-7.498-1.782-6.172 10.123" stroke="#31333A" stroke-linecap="round" stroke-linejoin="round"/><path d="M174.782 47.293c2.633 2.286 7.345 5.506 9.692 1.784 5.539-8.784 1.945-15.555 1.945-15.555h-9.755l-2.743 8.7" fill="#fff"/><path d="M174.782 47.293c2.633 2.286 7.345 5.506 9.692 1.784 5.539-8.784 1.945-15.555 1.945-15.555h-9.755l-2.743 8.7" stroke="#31333A" stroke-linecap="round" stroke-linejoin="round"/><path d="M171.46 40.415c4.683.78 12.878-3.772 14.959-6.894 0 0-9.886-2.862-11.316-1.56-1.431 1.3-3.643 8.454-3.643 8.454Z" fill="#31333A"/><path d="M173.388 43.646a3.58 3.58 0 0 1-1.933-1.969 3.09 3.09 0 0 1 .475-3.605 3.094 3.094 0 0 1 3.576-.658 3.092 3.092 0 0 1 1.63 1.916c.089.214.158.434.206.66" fill="#fff"/><path d="M173.388 43.646a3.58 3.58 0 0 1-1.933-1.969 3.09 3.09 0 0 1 .475-3.605 3.094 3.094 0 0 1 3.576-.658 3.092 3.092 0 0 1 1.63 1.916c.089.214.158.434.206.66M168.929 96.801l8.915-6.102" stroke="#31333A" stroke-linecap="round" stroke-linejoin="round"/><path d="M184.6 39.901c-.028.108.331 2.566.331 2.566 2.398.849-.36 1.79-.36 1.79" fill="#fff"/><path d="M184.6 39.901c-.028.108.331 2.566.331 2.566 2.398.849-.36 1.79-.36 1.79" stroke="#31333A" stroke-linecap="round" stroke-linejoin="round"/><path d="M186.477 41.816a.646.646 0 0 0 .637-.631l.007-.591a.6.6 0 0 0-.624-.605.651.651 0 0 0-.638.631l-.006.59a.584.584 0 0 0 .047.237.595.595 0 0 0 .577.368Z" fill="#31333A"/><path d="M188.471 38.916a9.504 9.504 0 0 0-3.022-.045l3.022.045Z" fill="#fff"/><path d="M188.471 38.916a9.504 9.504 0 0 0-3.022-.045" stroke="#31333A" stroke-linecap="round" stroke-linejoin="round"/><path d="M182.463 41.62a.651.651 0 0 0 .638-.632l.006-.59a.584.584 0 0 0-.047-.237.595.595 0 0 0-.577-.368.647.647 0 0 0-.637.63l-.007.592a.6.6 0 0 0 .624.605Z" fill="#31333A"/><path d="M183.497 38.536a5.81 5.81 0 0 0-3.022-.044l3.022.044Z" fill="#fff"/><path d="M183.497 38.536a5.81 5.81 0 0 0-3.022-.044" stroke="#31333A" stroke-linecap="round" stroke-linejoin="round"/><path d="m184.218 45.295-3.84-1.862c-2.703 3.628 2.995 5.571 3.84 1.862Z" fill="#B5B5B6"/><path d="m172.92 39.39 2.394 1.871M172.967 41.079l.843-.814M209.2 75.961l1.666-1.576" stroke="#31333A" stroke-linecap="round" stroke-linejoin="round"/><path d="M191.073 140.198a8.336 8.336 0 0 1 2.042 4.236l-2.042-4.236Z" fill="#fff"/><path d="M191.073 140.198a8.336 8.336 0 0 1 2.042 4.236" stroke="#31333A" stroke-linecap="round" stroke-linejoin="round"/><path d="M129.86 99.51a5.387 5.387 0 1 0 0-10.774 5.387 5.387 0 0 0 0 10.774ZM288.319 223.618l9.09-3.313M283.774 231.587l9.09-3.314" stroke="#3351E5" stroke-width="2" stroke-linecap="round" stroke-linejoin="round"/></svg>