<svg viewBox="0 0 400 300" fill="none" xmlns="http://www.w3.org/2000/svg"><path opacity=".27" d="M177.372 274.318c67.003 0 121.318-54.316 121.318-121.318S244.375 31.682 177.372 31.682C110.37 31.682 56.054 85.998 56.054 153s54.316 121.318 121.318 121.318Z" fill="#D6DCED"/><path d="M263.018 97.919H58.832a6.21 6.21 0 0 0-6.21 6.21v123.325a6.21 6.21 0 0 0 6.21 6.211h204.186a6.21 6.21 0 0 0 6.21-6.211V104.129a6.21 6.21 0 0 0-6.21-6.21Z" fill="#5578EC" stroke="#31333A" stroke-linecap="round" stroke-linejoin="round"/><path d="M170.959 210.914H71.922s-.058 1.501-.024-2.13c-.025-12.132 4.292-11.554 18.264-18.223 4.761-2.277 19.815-8.963 19.815-8.963a14.225 14.225 0 0 0 0-5.975c-3.549-2.054-7.172-11.174-7.626-14.938-3.301-1.493-4.283-7.831-4.572-8.962-.273-1.048.298-4.085 2.518-4.258-.658-2-.993-4.093-.991-6.198 0-.504.041-.999.083-1.494-.042-.496-.083-.991-.083-1.495 0-11.545 9.895-17.916 22.102-17.916 12.206 0 22.101 6.371 22.101 17.916 0 .504-.042.999-.082 1.495.032.495.082.99.082 1.494a19.833 19.833 0 0 1-.99 6.198c2.22.173 2.78 3.21 2.508 4.258-.288 1.131-1.27 7.469-4.572 8.962-.445 3.764-4.069 12.884-7.625 14.938a11.302 11.302 0 0 0 0 5.975s15.053 6.686 19.815 8.963c13.981 6.669 18.296 6.082 18.272 18.223.033 1.329.042 1.849.042 2.13h0ZM248.305 130.696H186.02c-.916 0-1.658.742-1.658 1.658v11.978c0 .915.742 1.657 1.658 1.657h62.285c.915 0 1.658-.742 1.658-1.657v-11.978c0-.916-.743-1.658-1.658-1.658ZM248.305 158.146H186.02c-.916 0-1.658.742-1.658 1.657v11.978c0 .916.742 1.658 1.658 1.658h62.285c.915 0 1.658-.742 1.658-1.658v-11.978c0-.915-.743-1.657-1.658-1.657ZM230.582 185.595h-44.971c-.69 0-1.249.559-1.249 1.248v12.796c0 .69.559 1.249 1.249 1.249h44.971c.69 0 1.249-.559 1.249-1.249v-12.796c0-.689-.559-1.248-1.249-1.248Z" fill="#fff" stroke="#31333A" stroke-linecap="round" stroke-linejoin="round"/><path d="M263.393 104.293c.409-.707-.333-1.9-1.656-2.664-1.323-.763-2.726-.81-3.135-.103-.408.708.334 1.9 1.657 2.664 1.323.764 2.726.81 3.134.103Z" fill="#FFABAD"/><path d="M231.954 70.396c4.363-5.48 4.663-12.5.669-15.68-3.993-3.179-10.767-1.313-15.131 4.168-4.363 5.48-4.662 12.5-.669 15.68 3.993 3.179 10.768 1.313 15.131-4.168Z" fill="#31333A"/><path d="M196.696 102.681c5.75-10.17 19.616-34.512 24.941-35.03l11.055 22.295-24.817 20.251a6.753 6.753 0 0 1-10.373.263 6.754 6.754 0 0 1-.806-7.779Z" fill="#B5B5B6"/><path d="M194.61 77.462c3.225-2.872 2.749-8.67-1.063-12.951-3.813-4.28-9.518-5.423-12.743-2.55-3.225 2.872-2.748 8.67 1.064 12.95 3.812 4.281 9.517 5.423 12.742 2.551ZM184.127 99.118c3.225-2.872 2.749-8.67-1.064-12.95-3.812-4.282-9.517-5.423-12.742-2.551-3.225 2.872-2.749 8.67 1.064 12.951 3.812 4.281 9.517 5.423 12.742 2.55ZM211.199 100.586c3.225-2.872 2.749-8.67-1.064-12.951-3.812-4.28-9.517-5.423-12.742-2.55-3.225 2.872-2.749 8.67 1.064 12.95 3.812 4.282 9.517 5.423 12.742 2.551ZM228.898 128.971c3.225-2.872 2.749-8.671-1.064-12.951-3.812-4.281-9.517-5.423-12.742-2.551-3.225 2.873-2.749 8.671 1.064 12.952 3.812 4.28 9.517 5.422 12.742 2.55ZM189.418 141.582c3.225-2.872 2.749-8.67-1.064-12.951-3.812-4.281-9.517-5.422-12.742-2.55-3.225 2.872-2.749 8.67 1.064 12.951 3.812 4.281 9.517 5.422 12.742 2.55ZM216.49 143.05c3.225-2.872 2.749-8.671-1.064-12.951-3.812-4.281-9.517-5.423-12.742-2.551-3.225 2.873-2.749 8.671 1.064 12.952 3.812 4.28 9.517 5.422 12.742 2.55Z" fill="#fff" stroke="#31333A" stroke-linecap="round" stroke-linejoin="round"/><path d="M196.696 102.681c5.75-10.17 19.616-34.512 24.941-35.03l11.055 22.295-24.817 20.251a6.753 6.753 0 0 1-10.373.263v0a6.754 6.754 0 0 1-.806-7.779v0Z" stroke="#31333A" stroke-linecap="round" stroke-linejoin="round"/><path d="M198.613 271.469s1.548-5.372 9.675-5.372 12.964-6.876 12.964-6.876v-76.925l3.096-75.636 17.415 9.025c0 13.752-12.238 144.107-12.238 144.107s1.596 11.677 1.402 11.677h-32.314Z" fill="#fff"/><path d="M219.456 180.9a55.922 55.922 0 0 0 22.307 10.816l-2.303-12.56" fill="#DCDDDD"/><path d="M198.613 271.469s1.548-5.372 9.675-5.372 12.964-6.876 12.964-6.876v-76.925l3.096-75.636 17.415 9.025c0 13.752-12.238 144.107-12.238 144.107s1.596 11.677 1.402 11.677h-32.314Z" stroke="#31333A" stroke-linecap="round" stroke-linejoin="round"/><path d="m230.051 263.31 1.037 6.856a2.267 2.267 0 0 1-2.334 2.526h-32.745s2.322-7.019 11.803-6.446c4.709 5.372 22.239-2.936 22.239-2.936Z" fill="#fff" stroke="#31333A" stroke-linecap="round" stroke-linejoin="round"/><path d="m235.184 128.434 13.545 49.278 18.447 83.944s1.41 10.028 1.926 10.887H299.2c-6.555-10.887-17.318-2.865-21.446-11.603l-22.188-140.242-20.382 7.736Z" fill="#fff"/><path d="M248.415 182.121c5.582 4.71 24.864 10.119 24.864 10.119l-7.42-15.178" fill="#DCDDDD"/><path d="m235.184 128.434 13.545 49.278 18.447 83.944s1.41 10.028 1.926 10.887H299.2c-6.555-10.887-17.318-2.865-21.446-11.603l-22.188-140.242-20.382 7.736Z" stroke="#31333A" stroke-linecap="round" stroke-linejoin="round"/><path d="M267.089 261.656v7.947a3.264 3.264 0 0 0 3.288 3.159l30.275.641s2.299-5.402-10.147-7.283c-10.455 6.411-23.416-4.464-23.416-4.464Z" fill="#fff" stroke="#31333A" stroke-linecap="round" stroke-linejoin="round"/><path d="M213.56 180.842c22.188 5.157 55.548 4.781 60.708 1.343l-21.362-73.995-29.828 4.611-9.518 68.041Z" fill="#fff"/><path d="M212.958 118.964a50.106 50.106 0 0 0 36.329-6.556l-30.996-2.857" fill="#DCDDDD"/><path d="M175.635 130.562c39.204 43.263 107.205 44.015 147.676 1.383l-147.676-1.383Z" fill="#fff"/><path d="M175.635 130.562c39.204 43.263 107.205 44.015 147.676 1.383" stroke="#31333A" stroke-linecap="round" stroke-linejoin="round"/><path d="M169.915 135.889c41.839 48.1 116.499 50.357 162.137 4.15l-162.137-4.15Z" fill="#fff"/><path d="M169.915 135.889c41.839 48.1 116.499 50.357 162.137 4.15" stroke="#31333A" stroke-linecap="round" stroke-linejoin="round"/><path d="M164.196 141.215c44.472 52.937 125.791 56.698 176.597 6.917l-176.597-6.917Z" fill="#fff"/><path d="M164.196 141.215c44.472 52.937 125.791 56.698 176.597 6.917" stroke="#31333A" stroke-linecap="round" stroke-linejoin="round"/><path d="M158.476 146.541c47.107 57.773 135.084 63.039 191.058 9.685l-191.058-9.685Z" fill="#fff"/><path d="M158.476 146.541c47.107 57.773 135.084 63.039 191.058 9.685" stroke="#31333A" stroke-linecap="round" stroke-linejoin="round"/><path d="M198.513 109.256c28.667 23.917 70.035 18.651 89.835-9.685l-89.835 9.685Z" fill="#fff"/><path d="M198.513 109.256c28.667 23.917 70.035 18.651 89.835-9.685" stroke="#31333A" stroke-linecap="round" stroke-linejoin="round"/><path d="M192.793 114.583c31.302 28.753 79.328 24.992 104.296-6.918l-104.296 6.918Z" fill="#fff"/><path d="M192.793 114.583c31.302 28.753 79.328 24.992 104.296-6.918" stroke="#31333A" stroke-linecap="round" stroke-linejoin="round"/><path d="M187.074 119.908c33.936 33.59 88.62 31.334 118.755-4.15l-118.755 4.15Z" fill="#fff"/><path d="M187.074 119.908c33.936 33.59 88.62 31.334 118.755-4.15" stroke="#31333A" stroke-linecap="round" stroke-linejoin="round"/><path d="M181.354 125.235c36.57 38.427 97.913 37.675 133.216-1.383l-133.216 1.383Z" fill="#fff"/><path d="M181.354 125.235c36.57 38.427 97.913 37.675 133.216-1.383" stroke="#31333A" stroke-linecap="round" stroke-linejoin="round"/><path d="M213.56 180.842c22.188 5.157 55.548 4.781 60.708 1.343l-21.362-73.995-29.828 4.611-9.518 68.041Z" stroke="#31333A" stroke-linecap="round" stroke-linejoin="round"/><path d="M246.445 62.025c5.057-6.353 6.097-13.938 2.324-16.942-3.774-3.004-10.933-.29-15.99 6.063-5.058 6.352-6.098 13.938-2.324 16.942 3.773 3.004 10.932.29 15.99-6.063Z" fill="#31333A"/><path d="M220.902 67.85s19.103-9.34 37.889-.969c4.093 10.603-7.93 35.66-4.092 44.456 0 0-22.021 9.601-32.81 2.346-3.348-3.348 4.246-12.757-1.415-21.877a19.645 19.645 0 0 1-2.646-11.27" fill="#B5B5B6"/><path d="M227.491 63.158c-3.877 15.246 13.612 7.33 20.626-1.361 7.014-8.69-.579-6.903-.579-6.903l-20.685 5.892" fill="#fff"/><path d="M227.491 63.158c-3.877 15.246 13.612 7.33 20.626-1.361 7.014-8.69-.579-6.903-.579-6.903l-20.685 5.892" stroke="#31333A" stroke-linecap="round" stroke-linejoin="round"/><path d="m255.158 82.293-3.003 4.258s1.349 19.831 4.244 23.966c2.895 4.135 5.272-17.32 5.272-17.32" fill="#31333A"/><path d="M220.902 67.85s19.103-9.34 37.889-.969c4.093 10.603-7.93 35.66-4.092 44.456 0 0-22.021 9.601-32.81 2.346-3.348-3.348 4.246-12.757-1.415-21.877a19.645 19.645 0 0 1-2.646-11.27" stroke="#31333A" stroke-linecap="round" stroke-linejoin="round"/><path d="M185.145 70.322h-2.338l12.638 37.216a6.332 6.332 0 0 0 6.011 4.294 6.325 6.325 0 0 0 6.274-7.013 6.326 6.326 0 0 0-.827-2.508L189.88 73.168l-4.735-2.846Z" fill="#fff"/><path d="M189.274 106.66c14.735 4.627 19.76 7.12 20.295 0 .534-7.12.896 4.193.896 4.193l-6.45 6.318-10.529-5.336" fill="#DCDDDD"/><path d="M185.145 70.322h-2.338l12.638 37.216a6.332 6.332 0 0 0 6.011 4.294 6.325 6.325 0 0 0 2.553-.545v0a6.338 6.338 0 0 0 3.453-3.841 6.335 6.335 0 0 0-.559-5.135L189.88 73.168l-4.735-2.846Z" stroke="#31333A" stroke-linecap="round" stroke-linejoin="round"/><path d="m242.194 64.347-.43-13.198-8.72 4.065c.166.423-1.187 6.516-2.285 10.364" fill="#fff"/><path d="M226.951 65.874c12.217-6.342 9.932-10.6 12.66-12.955 2.729-2.355-10.188 3.497-10.188 3.497l-2.543 3.046.32 4.305" fill="#DCDDDD"/><path d="m242.194 64.347-.43-13.198-8.72 4.065c.166.423-1.187 6.516-2.285 10.364" stroke="#31333A" stroke-linecap="round" stroke-linejoin="round"/><path d="M233.242 46.2c2.278-2.196 2.543-5.616.593-7.64-1.951-2.022-5.378-1.883-7.655.313-2.278 2.195-2.543 5.615-.593 7.638 1.951 2.023 5.378 1.883 7.655-.312Z" fill="#31333A"/><path d="M247.005 46.25c-.627 5.304-6.529 8.258-11.819 8.258-5.289 0-7.964-2.954-7.337-8.258a11.093 11.093 0 0 1 10.714-9.603 8.346 8.346 0 0 1 8.201 6 8.35 8.35 0 0 1 .241 3.604Z" fill="#31333A"/><path d="M229.739 41.672c-10.696 26.422 12.475 15.304 13.461 6.911.569-4.842-3.3-7.898-3.3-7.898l-10.161.987Z" fill="#fff" stroke="#31333A" stroke-linecap="round" stroke-linejoin="round"/><path d="M226.666 46.016a7.655 7.655 0 0 0 7.265-4.751s.931 9.554 9.114 8.633l1.786-4.277-1.346-4.443s-4.596-2.764-4.903-2.666c-.308.1-5.12-.002-5.12-.002l-3.883 1.187-1.13 1.481-1.783 4.838Z" fill="#31333A"/><path d="M239.421 49.54c8.886-4.254 6.947 5.788.599 5.298l-.599-5.297Z" fill="#fff"/><path d="M239.421 49.54c8.886-4.254 6.947 5.788.599 5.298" stroke="#31333A" stroke-linecap="round" stroke-linejoin="round"/><path d="M244.795 52.56a4.09 4.09 0 1 1-1.537-.3" stroke="#5578EC" stroke-linecap="round" stroke-linejoin="round"/><path d="M230.728 46.968c.007.11-.804 2.404-.804 2.404-2.466.363.009 1.79.009 1.79" fill="#fff"/><path d="M230.728 46.968c.007.11-.804 2.404-.804 2.404-2.466.363.009 1.79.009 1.79" stroke="#31333A" stroke-linecap="round" stroke-linejoin="round"/><path d="M228.561 48.453a.635.635 0 0 1-.493-.727l.106-.57a.58.58 0 0 1 .258-.384.58.58 0 0 1 .456-.08.638.638 0 0 1 .493.728l-.105.57a.599.599 0 0 1-.258.384.592.592 0 0 1-.457.08Z" fill="#31333A"/><path d="m227.192 45.288 2.915.529" stroke="#31333A" stroke-linecap="round" stroke-linejoin="round"/><path d="M232.458 49.025a.637.637 0 0 1-.494-.728l.106-.57a.582.582 0 0 1 .258-.384.596.596 0 0 1 .456-.08.635.635 0 0 1 .494.729l-.106.569a.598.598 0 0 1-.258.385.587.587 0 0 1-.456.079Z" fill="#31333A"/><path d="m232.047 45.863 2.915.529" stroke="#31333A" stroke-linecap="round" stroke-linejoin="round"/><path d="m230.076 52.227 4.044-1.065c1.914 4-3.933 4.792-4.044 1.065Z" fill="#B5B5B6"/><path d="m241.432 51.247 1.361-1.329M242.263 51.758l-.068-1.176" stroke="#31333A" stroke-linecap="round" stroke-linejoin="round"/><path d="M183.26 71.653a2.778 2.778 0 0 1-.123-3.006c1.519-2.572 6.367-7.533 6.367-7.533 1.24.372 1.132 1.56-1.302 5.023 2.728-2.605 3.534-.186 1.24 2.48 2.418-1.737 2.853.558 1.34 2.914a8.964 8.964 0 0 0-.944 2.47" fill="#fff"/><path d="M183.26 71.653a2.778 2.778 0 0 1-.123-3.006c1.519-2.572 6.367-7.533 6.367-7.533 1.24.372 1.132 1.56-1.302 5.023 2.728-2.605 3.534-.186 1.24 2.48 2.418-1.737 2.853.558 1.34 2.914a8.964 8.964 0 0 0-.944 2.47" stroke="#31333A" stroke-linecap="round" stroke-linejoin="round"/><path d="M233.45 94.477s-3.989-3.642-7.632-4.857c-3.642-1.214-2.254-.289-2.254-.289l1.272 3.932 8.614 1.214Z" fill="#fff" stroke="#31333A" stroke-linecap="round" stroke-linejoin="round"/><path d="M233.591 106.392h-19.978a6.499 6.499 0 0 1-5.139-2.944l-14.07-24.739c-.925-1.626-.123-2.943 1.791-2.943h19.977a6.5 6.5 0 0 1 5.139 2.943l14.07 24.739c.925 1.626.123 2.944-1.79 2.944Z" fill="#DCDDDD"/><path d="M233.591 106.392h-19.978a6.499 6.499 0 0 1-5.139-2.944l-14.07-24.739c-.925-1.626-.123-2.943 1.791-2.943h19.977a6.5 6.5 0 0 1 5.139 2.943l14.07 24.739c.925 1.626.123 2.944-1.79 2.944Z" stroke="#31333A" stroke-linecap="round" stroke-linejoin="round"/><path d="M218.773 92.886c.869-1.565-.609-4.044-3.3-5.537-2.691-1.494-5.576-1.437-6.445.128-.868 1.564.61 4.043 3.301 5.537 2.691 1.493 5.576 1.436 6.444-.128Z" fill="#fff" stroke="#31333A" stroke-linecap="round" stroke-linejoin="round"/><path d="M228.363 92.916s-5.242.077-5.628 0c-.385-.077-5.743-1.958-4.754.28 0 0-1.793-.23-1.355.903.096.232.25.435.447.59l1.654 1.35s-1.31-.27-1.195.732c.115 1.002 5.148 3.15 5.572 3.304.424.155 5.952-.067 9.113.704 3.16.771 10.595 3.334 10.595 3.334l1.816-8.036-16.265-3.16Z" fill="#fff" stroke="#31333A" stroke-linecap="round" stroke-linejoin="round"/><path d="M257.803 66.456c5.963 1.195 20.825 37.395 20.825 37.395l-16.605 2.795-10.636-21.658" fill="#B5B5B6"/><path d="M273.629 52.222c3.225-2.872 2.749-8.67-1.064-12.951-3.812-4.281-9.517-5.423-12.742-2.55-3.225 2.872-2.749 8.67 1.064 12.95 3.812 4.281 9.517 5.423 12.742 2.55ZM302.626 61.266c3.224-2.872 2.748-8.67-1.064-12.951-3.812-4.281-9.517-5.423-12.742-2.55-3.225 2.871-2.749 8.67 1.063 12.95 3.813 4.281 9.518 5.423 12.743 2.55ZM290.218 75.346c3.225-2.872 2.749-8.67-1.064-12.951-3.812-4.281-9.517-5.423-12.742-2.55-3.225 2.872-2.749 8.67 1.064 12.95 3.812 4.281 9.517 5.423 12.742 2.55ZM307.916 103.731c3.225-2.873 2.749-8.671-1.063-12.952-3.813-4.28-9.517-5.422-12.742-2.55-3.225 2.872-2.749 8.67 1.063 12.951 3.812 4.281 9.517 5.423 12.742 2.551ZM268.437 116.342c3.225-2.872 2.748-8.671-1.064-12.951-3.812-4.28-9.517-5.423-12.742-2.551-3.225 2.873-2.749 8.671 1.063 12.952 3.813 4.28 9.518 5.422 12.743 2.55ZM295.509 117.81c3.225-2.872 2.748-8.671-1.064-12.952-3.812-4.28-9.517-5.422-12.742-2.55-3.225 2.872-2.749 8.671 1.063 12.952 3.813 4.28 9.518 5.422 12.743 2.55Z" fill="#fff" stroke="#31333A" stroke-linecap="round" stroke-linejoin="round"/><path d="M257.803 66.456c5.963 1.195 20.825 37.395 20.825 37.395l-16.605 2.795-10.636-21.658" stroke="#31333A" stroke-linecap="round" stroke-linejoin="round"/><path d="m236.067 101.917 33.616 10.947c4.63.957 9.077-2.164 9.302-6.53a7.221 7.221 0 0 0-6.622-7.308l-35.04-4.362" fill="#fff"/><path d="m236.067 101.917 33.616 10.947c4.63.957 9.077-2.164 9.302-6.53a7.221 7.221 0 0 0-6.622-7.308l-35.04-4.362M222.771 95.159l-4.791-1.963M222.03 97.863l-3.303-1.825M186.268 68.892l1.934-2.755" stroke="#31333A" stroke-linecap="round" stroke-linejoin="round"/><path d="M133.33 92.348a5.386 5.386 0 1 0 0-10.772 5.386 5.386 0 0 0 0 10.772ZM291.788 216.457l9.09-3.313M287.244 224.424l9.089-3.313" stroke="#3351E5" stroke-width="2" stroke-linecap="round" stroke-linejoin="round"/></svg>