<svg viewBox="0 0 400 300" fill="none" xmlns="http://www.w3.org/2000/svg"><path opacity=".27" d="M195.801 271.854c67.002 0 121.318-54.316 121.318-121.318S262.803 29.218 195.801 29.218 74.483 83.534 74.483 150.536 128.799 271.854 195.8 271.854Z" fill="#D6DCED"/><path d="M149.385 192.315 98.77 204.109l-33.743 76.653 73.11-20.637 11.248-67.81Z" fill="#fff" stroke="#31333A" stroke-linecap="round" stroke-linejoin="round"/><path d="m200 204.109-50.615-11.794-11.248 67.81L200 280.762v-76.653Zm50.615-11.794 50.614 11.794 33.744 76.653-73.111-20.637-11.247-67.81Z" fill="#5578EC" stroke="#31333A" stroke-linecap="round" stroke-linejoin="round"/><path d="m200 204.109 50.615-11.794 11.247 67.81L200 280.762v-76.653Z" fill="#fff" stroke="#31333A" stroke-linecap="round" stroke-linejoin="round"/><path d="M189.57 38.13c.38.57 7.406 15.048 7.406 15.048l-12.287 6.019s-.277-15.645-4.739-18.795c-3.15-2.224 10.405-.557 10.405-.557" fill="#fff"/><path d="M185.049 40.751c-.101.512-4.236 11.403-4.236 11.403l-2.246-12.909" fill="#DCDDDD"/><path d="M189.57 38.13c.38.57 7.406 15.048 7.406 15.048l-12.287 6.019s-.277-15.645-4.739-18.795c-3.15-2.224 10.405-.557 10.405-.557" stroke="#31333A" stroke-linecap="round" stroke-linejoin="round"/><path d="M186.854 39.941s-5.928 4.26-9.093-.695c-3.165-4.956 1.594-12.045 1.594-12.045l6.732 6.361.767 6.38Z" fill="#fff" stroke="#31333A" stroke-linecap="round" stroke-linejoin="round"/><path d="M183.842 34.552c-4.548-.971-7.562-9.892-1.132-11.595a7.29 7.29 0 0 1 3.765.06c25.33 6.859 13.88 31.288-2.157 18.254 0 0 .76-5.168-.476-6.719Z" fill="#31333A"/><path d="M183.317 38.902c.445.133.908.2 1.373.2 1.947 0 3.526-1.137 3.526-2.538 0-1.401-1.579-2.538-3.526-2.538a4.558 4.558 0 0 0-1.891.396" fill="#fff"/><path d="M183.317 38.902c.445.133.908.2 1.373.2 1.947 0 3.526-1.137 3.526-2.538 0-1.401-1.579-2.538-3.526-2.538a4.558 4.558 0 0 0-1.891.396" stroke="#31333A" stroke-linecap="round" stroke-linejoin="round"/><path d="M178.614 32.583a.498.498 0 0 1-.386-.57l.083-.446a.447.447 0 0 1 .202-.301.462.462 0 0 1 .357-.062.497.497 0 0 1 .387.57l-.083.446a.468.468 0 0 1-.375.369.462.462 0 0 1-.185-.006Z" fill="#31333A"/><path d="m178.293 30.107 2.282.414" stroke="#31333A" stroke-linecap="round" stroke-linejoin="round"/><path d="m177.142 34.611 2.845-.749c1.346 2.814-2.767 3.371-2.845.75Z" fill="#B5B5B6"/><path d="M178.195 29.67c-1.278 1.647-1.908 2.165-2.058 2.436-.549.995 1.304 1.63 1.304 1.63" fill="#fff"/><path d="M178.195 29.67c-1.278 1.647-1.908 2.165-2.058 2.436-.549.995 1.304 1.63 1.304 1.63" stroke="#31333A" stroke-linecap="round" stroke-linejoin="round"/><path d="M186.232 35.543a.992.992 0 0 0-1.384 1.023.994.994 0 0 0 .309.607l-.885 2.024a.393.393 0 0 0 .719.314l.907-2.075a.989.989 0 0 0 .334-1.894v0Z" fill="#fff" stroke="#31333A" stroke-linecap="round" stroke-linejoin="round"/><path d="m252.333 197.075 9.889-10.4-23.116-12.19-8.145 14.587 21.372 8.003Z" fill="#fff"/><path d="M260.009 181.394c-6.013 7.67-16.624 12.33-16.624 12.33l7.764-15.994" fill="#DCDDDD"/><path d="m252.333 197.075 9.889-10.4-23.116-12.19-8.145 14.587 21.372 8.003Z" stroke="#31333A" stroke-linecap="round" stroke-linejoin="round"/><path d="m271.532 190.949-10.747-5.259-12.034 12.243s10.734-.524 5.056 10.818c-8.693 17.364-3.387 17.404-3.387 17.404l21.112-35.206Z" fill="#31333A"/><path d="m270.48 189.837-21.573 35.645" stroke="#31333A" stroke-linecap="round" stroke-linejoin="round"/><path d="M260.478 196.129c1.579-.736 2.418-2.279 1.874-3.446-.544-1.167-2.265-1.517-3.844-.781-1.579.736-2.418 2.279-1.874 3.446.544 1.167 2.265 1.517 3.844.781Z" fill="#fff" stroke="#31333A" stroke-linecap="round" stroke-linejoin="round"/><path d="m255.1 197.723-7.984 5.116 4.582 1.961 6.765-5.773" fill="#fff"/><path d="m255.1 197.723-7.984 5.116 4.582 1.961 6.765-5.773" stroke="#31333A" stroke-linecap="round" stroke-linejoin="round"/><path d="M244.649 199.22c19.585-18.143 14.046-25.723 14.046-25.723l-35.715-18.888-10.331-48.528-30.037 10.424 17.905 49.187a13.5 13.5 0 0 0 5.963 7.554l38.169 25.974Z" fill="#DCDDDD"/><path d="m213.05 123.825-22.067 46.476-6.105-27.757 17.029-15.154" fill="#31333A"/><path d="M253.165 168.117c3.456 13.176-13.824 27.863-18.144 31.103" stroke="#31333A" stroke-linecap="round" stroke-linejoin="round"/><path d="M244.649 199.22c19.585-18.143 14.046-25.723 14.046-25.723l-35.715-18.888-10.331-48.528-30.037 10.424 17.905 49.187a13.5 13.5 0 0 0 5.963 7.554l38.169 25.974Z" stroke="#31333A" stroke-linecap="round" stroke-linejoin="round"/><path d="M151.062 63.25c-.754-.85-1.906-.37-1.541 2.328.053.394-1.991-.671-3.34-.07-1.349.602-1.594 8.304 0 9.387 1.593 1.083 6.563 1.465 6.563 1.465L187.329 91l1.318-13.76s-34.955-8.02-35.323-8.622c-.368-.602-2.262-5.367-2.262-5.367Z" fill="#fff"/><path d="M173.625 70.09c7.402 8.885 3.171 15.547 6.337 22.07 3.167 6.524 9.553 1.38 9.553 1.38l-5.397-16.789-10.493-6.661Z" fill="#DCDDDD"/><path d="M151.062 63.25c-.754-.85-1.906-.37-1.541 2.328.053.394-1.991-.671-3.34-.07-1.349.602-1.594 8.304 0 9.387 1.593 1.083 6.563 1.465 6.563 1.465L187.329 91l1.318-13.76s-34.955-8.02-35.323-8.622c-.368-.602-2.262-5.367-2.262-5.367Z" stroke="#31333A" stroke-linecap="round" stroke-linejoin="round"/><path d="m136.594 209.118 11.078 7.862 13.075-24.453-15.432-5.313-8.721 21.904Z" fill="#fff"/><path d="M152.585 212.992c-7.772-4.027-12.34-13.045-12.34-13.045l16.312 3.89" fill="#DCDDDD"/><path d="m136.594 209.118 11.078 7.862 13.075-24.453-15.432-5.313-8.721 21.904Z" stroke="#31333A" stroke-linecap="round" stroke-linejoin="round"/><path d="m143.397 226.441 5.658-11.28-13.266-9.241s.302 10.023-11.261 7.103c-17.706-4.472-17.864.547-17.864.547l36.733 12.871Z" fill="#31333A"/><path d="m145.509 225.346-38.117-13.35" stroke="#31333A" stroke-linecap="round" stroke-linejoin="round"/><path d="M139.854 217.993c1.407-.135 2.429-1.485 2.283-3.015-.147-1.531-1.405-2.663-2.812-2.529-1.406.135-2.428 1.484-2.282 3.015.146 1.531 1.405 2.663 2.811 2.529Z" fill="#fff" stroke="#31333A" stroke-linecap="round" stroke-linejoin="round"/><path d="m135.865 211.871-5.095-6.439-2.123 4.749 5.8 5.146" fill="#fff"/><path d="m135.865 211.871-5.095-6.439-2.123 4.749 5.8 5.146" stroke="#31333A" stroke-linecap="round" stroke-linejoin="round"/><path d="M135.467 201.102c21.273 16.909 27.537 11.725 27.537 11.725l17.711-52.702 30.72-32.945c8.514-8.911 7.106-25.445-1.773-33.992l-6.673-.774-18.016 7.588-26.289 49.971-23.217 51.129Z" fill="#DCDDDD"/><path d="m173.265 113.903 33.818-21.489-21.725 2.992" fill="#31333A"/><path d="M136.594 193.46c28.806 22.721 36.671 12.462 36.671 12.462" stroke="#31333A" stroke-linecap="round" stroke-linejoin="round"/><path d="M202.989 92.414c22.529 25.593-25.509 64.903-25.509 64.903l-19.28 53.66" stroke="#31333A" stroke-linecap="round" stroke-linejoin="round"/><path d="M199.382 96.504c-.864 17.951 9.486 14.282 9.486 14.282" stroke="#31333A" stroke-linecap="round" stroke-linejoin="round"/><path d="M135.467 201.102c21.273 16.909 27.537 11.725 27.537 11.725l17.711-52.702 30.72-32.945c8.514-8.911 7.106-25.445-1.773-33.992l-6.673-.774-18.016 7.588-26.289 49.971-23.217 51.129Z" stroke="#31333A" stroke-linecap="round" stroke-linejoin="round"/><path d="M180.143 101.172c4.701.668 29.519-9.828 29.519-9.828s-9.576-15.814-9.6-18.48l1.924-20.761-8.191-6.119-10.286 6.37-7.77 8.241c-7.231 8.476 3.692 15.222 3.692 15.222l.712 25.355Z" fill="#fff"/><path d="m190.508 70.095 20.623 20.063-3.29-19.764" fill="#DCDDDD"/><path d="M180.143 101.172c4.701.668 29.519-9.828 29.519-9.828s-9.576-15.814-9.6-18.48l1.924-20.761-8.191-6.119-10.286 6.37-7.77 8.241c-7.231 8.476 3.692 15.222 3.692 15.222l.712 25.355Z" stroke="#31333A" stroke-linecap="round" stroke-linejoin="round"/><path d="m189.57 70.966 22.619 7.677s-12.542 19.681-15.156 20.783c-2.217.933-1.174-1.315-3.244-.97-3.629.602-3.244 9.652 4.656 8.793 5.227-.568 28.752-25.541 28.752-25.541a7.245 7.245 0 0 0-.397-11.362l-29.055-21.36" fill="#fff"/><path d="M207.251 78.751c6.482-2.502 8.53-16.506 8.53-16.506l-9.801 7.391v6.484" fill="#DCDDDD"/><path d="m189.57 70.966 22.619 7.677s-12.542 19.681-15.156 20.783c-2.217.933-1.174-1.315-3.244-.97-3.629.602-3.244 9.652 4.656 8.793 5.227-.568 28.752-25.541 28.752-25.541a7.245 7.245 0 0 0-.397-11.362l-29.055-21.36" stroke="#31333A" stroke-linecap="round" stroke-linejoin="round"/><path d="m190.147 71.21 14.512 6.15s8.323-6.625 11.122-15.115l-18.036-13.26" fill="#fff"/><path d="m190.147 71.21 14.512 6.15s8.323-6.625 11.122-15.115l-18.036-13.26M150.539 67.886l-1.018-2.308" stroke="#31333A" stroke-linecap="round" stroke-linejoin="round"/><path d="M197.96 100.427c-1.299.736-2.159-.844-2.159-.844l2.159.844Z" fill="#fff"/><path d="M197.96 100.427c-1.299.736-2.159-.844-2.159-.844" stroke="#31333A" stroke-linecap="round" stroke-linejoin="round"/><path d="M116.879 138.568a5.386 5.386 0 1 0 0-10.773 5.386 5.386 0 0 0 0 10.773ZM251.137 100.195l9.089-3.313M246.592 108.164l9.089-3.313" stroke="#3351E5" stroke-width="2" stroke-linecap="round" stroke-linejoin="round"/></svg>