<svg viewBox="0 0 400 300" fill="none" xmlns="http://www.w3.org/2000/svg"><path opacity=".27" d="M198.337 272.376c67.002 0 121.318-54.316 121.318-121.318S265.339 29.74 198.337 29.74 77.019 84.056 77.019 151.058s54.316 121.318 121.318 121.318Z" fill="#D6DCED"/><path d="m270.294 113.406 13.192-.977s-43.712-42.1-48.76-42.782c-5.048-.681-3.989 10.062-3.989 10.062l-6.92 18.892 1.768-1.24 37.428 19.558" fill="#fff"/><path d="m270.294 113.406 13.192-.977s-43.712-42.1-48.76-42.782c-5.048-.681-3.989 10.062-3.989 10.062l-6.92 18.892 1.768-1.24 37.428 19.558" stroke="#31333A" stroke-linecap="round" stroke-linejoin="round"/><path d="M234.726 69.648s-23.711-9.728-55.998-.442c0 0 4.443 47.713-8.268 64.849-8.172 11.018 59.122-18.771 59.122-18.771l2.892-25.655" fill="#fff"/><path d="M234.726 69.648s-23.711-9.728-55.998-.442c0 0 4.443 47.713-8.268 64.849-8.172 11.018 59.122-18.771 59.122-18.771l2.892-25.655" stroke="#31333A" stroke-linecap="round" stroke-linejoin="round"/><path d="M197.788 52.333c.235.47 2.74 13.687 2.74 13.687s3.054 7.998 11.577 6.615c5.118-.83 3.337-7.059 3.337-7.059l-4.628-15.355-13.026 2.112Z" fill="#fff"/><path d="M203.806 55.477c3.909 4.915 13.86 6.813 13.86 6.813l-3.172-11.024-9.683 3.206" fill="#DCDDDD"/><path d="M197.788 52.333c.235.47 2.74 13.687 2.74 13.687s3.054 7.998 11.577 6.615c5.118-.83 3.337-7.059 3.337-7.059l-4.628-15.355-13.026 2.112Z" stroke="#31333A" stroke-linecap="round" stroke-linejoin="round"/><path d="M205.035 57.236c5.085-.796 12.438-2.443 12.62-5.333.316-5-6.661-16.303-6.661-16.303l-9.573 3.784-5.214 10.726 2.074 3.575.772 1.616" fill="#fff"/><path d="M205.035 57.236c5.085-.796 12.438-2.443 12.62-5.333.316-5-6.661-16.303-6.661-16.303l-9.573 3.784-5.214 10.726 2.074 3.575.772 1.616" stroke="#31333A" stroke-linecap="round" stroke-linejoin="round"/><path d="M198.73 49.627c2.355-1.788 3.421-6.32 2.364-7.907 0 0 13.516-3.739 14.494-10.777.978-7.04-10.083-7.905-16.069 2.38 0 0 2.911-6.878-2.583-2.297-5.495 4.58-13.792 13.48 1.895 26.815l-.101-8.214Z" fill="#31333A"/><path d="M202.363 48.389c-7.929-6.417-9.33 3.42-3.46 6.984.295.18.6.346.912.495" fill="#fff"/><path d="M202.363 48.389c-7.929-6.417-9.33 3.42-3.46 6.984.295.18.6.346.912.495" stroke="#31333A" stroke-linecap="round" stroke-linejoin="round"/><path d="m215.756 149.583 53.046-40.638-19.046-17.1-74.654 41.921 40.654 15.817Z" fill="#DCDDDD"/><path d="M234.726 116.919c-6.236 17.746-51.136 18.416-51.136 18.416l34.076 16.307 17.06-22.898" fill="#DCDDDD"/><path d="m215.756 149.583 53.046-40.638-19.046-17.1-74.654 41.921 40.654 15.817Z" stroke="#31333A" stroke-linecap="round" stroke-linejoin="round"/><path d="m228.142 153.618 82.339-31.969-17.939-23.048-47.771 21.555-16.629 33.462Z" fill="#DCDDDD"/><path d="M280.12 114.41c-12.092 17.798-32.002 20.702-32.002 20.702l8.696 11.33s28.861-1.055 28.861-2.395 1.34-20.998 1.34-20.998" fill="#DCDDDD"/><path d="m228.142 153.618 82.339-31.969-17.939-23.048-47.771 21.555-16.629 33.462Z" stroke="#31333A" stroke-linecap="round" stroke-linejoin="round"/><path d="m170.642 134.988 18.157-1.203s.058 6.14 3.343 4.85c3.284-1.29 2.111-3.695 2.111-3.695s3.724 5.483 6.07 3.607c2.346-1.877 1.319-12.14-6.363-11.315-4.67.5-24.491 4.472-24.491 4.472l1.173 3.284Z" fill="#fff" stroke="#31333A" stroke-linecap="round" stroke-linejoin="round"/><path d="M299.621 134.365H105.437a13.314 13.314 0 0 0-13.313 13.312V263.34a5.6 5.6 0 0 0 9.561 3.96l31.756-31.757h166.18a13.31 13.31 0 0 0 13.312-13.312v-74.554a13.31 13.31 0 0 0-13.312-13.312Z" fill="#5578EC"/><path d="M299.621 134.365H105.437a13.314 13.314 0 0 0-13.313 13.312V263.34a5.6 5.6 0 0 0 9.561 3.96l31.756-31.757h166.18a13.31 13.31 0 0 0 13.312-13.312v-74.554a13.31 13.31 0 0 0-13.312-13.312Z" stroke="#31333A" stroke-linecap="round" stroke-linejoin="round"/><path d="M291.381 153.618h-147.43v16.355h147.43v-16.355ZM199.423 187.485h-55.472v16.355h55.472v-16.355Z" fill="#fff" stroke="#31333A" stroke-linecap="round" stroke-linejoin="round"/><path d="M178.728 69.206c-12.673 3.46-39.967 27.308-39.967 27.308-9.157 6.981-9.695 15.919-.952 23.375l24.71 19.049s11.208-2.645 13.812-11.197l-8-12.845 22.928-14.051" fill="#fff"/><path d="M178.728 69.206c-12.673 3.46-39.967 27.308-39.967 27.308-9.157 6.981-9.695 15.919-.952 23.375l24.71 19.049s11.208-2.645 13.812-11.197l-8-12.845 22.928-14.051" stroke="#31333A" stroke-linecap="round" stroke-linejoin="round"/><path d="m274.826 150.318-26.709 45.727 14.613 7.557 17.39-25.544-5.294-27.74Z" fill="#fff"/><path d="M287.44 197.57c-13.962-1.52-26.944-17.049-26.944-17.049l14.361-.71 14.08 8.72-.539 1.804" fill="#DCDDDD"/><path d="m274.826 150.318-26.709 45.727 14.613 7.557 17.39-25.544-5.294-27.74Z" stroke="#31333A" stroke-linecap="round" stroke-linejoin="round"/><path d="m253.743 184.056-8.024 14.341 34.97 27.452c8.305-7.983-12.353-18.36-9.524-32.906 0 0-14.525-6.723-17.422-8.887Z" fill="#fff"/><path d="m234.04 194.758 51.662 40.555 4.561-3.925-51.662-40.555-4.561 3.925Z" fill="#fff" stroke="#31333A" stroke-linecap="round" stroke-linejoin="round"/><path d="m253.743 184.056-8.024 14.341 34.97 27.452c8.305-7.983-12.353-18.36-9.524-32.906 0 0-14.525-6.723-17.422-8.887ZM270.637 200.695l-4.417-.628M270.853 202.722l-4.416-.627M271.871 204.942l-4.417-.628" stroke="#31333A" stroke-linecap="round" stroke-linejoin="round"/><path d="M260.828 199.292c.713-1.227-.274-3.131-2.205-4.254-1.931-1.123-4.075-1.039-4.788.187-.713 1.226.274 3.131 2.205 4.254 1.931 1.123 4.075 1.039 4.788-.187Z" fill="#fff" stroke="#31333A" stroke-linecap="round" stroke-linejoin="round"/><path d="m274.165 125.046-29.037 47.298s24.688 21.559 40.64 12.273l28.177-70.423c3.784-7.948-2.39-16.792-12.31-17.637a16.188 16.188 0 0 0-12.634 4.284" fill="#DCDDDD"/><path d="m274.165 125.046-29.037 47.298s24.688 21.559 40.64 12.273l28.177-70.423c3.784-7.948-2.39-16.792-12.31-17.637a16.188 16.188 0 0 0-12.634 4.284" stroke="#31333A" stroke-linecap="round" stroke-linejoin="round"/><path d="m261.669 114.41 20.027-5.809a4.045 4.045 0 0 1 4.326 1.405 4.05 4.05 0 0 1 .291 4.54l-32.661 55.413" stroke="#31333A" stroke-linecap="round" stroke-linejoin="round"/><path d="m208.907 71.225 7.967 18.307-3.351-21.508" fill="#fff"/><path d="m208.907 71.225 7.967 18.307-3.351-21.508" stroke="#31333A" stroke-linecap="round" stroke-linejoin="round"/><path d="M211.292 41.065c-.011.132.921 2.915.921 2.915 2.966.487-.046 2.157-.046 2.157" fill="#fff"/><path d="M211.292 41.065c-.011.132.921 2.915.921 2.915 2.966.487-.046 2.157-.046 2.157" stroke="#31333A" stroke-linecap="round" stroke-linejoin="round"/><path d="M213.875 42.9a.766.766 0 0 0 .609-.868l-.116-.688a.709.709 0 0 0-.852-.574.768.768 0 0 0-.609.868l.116.688a.708.708 0 0 0 .852.574Z" fill="#31333A"/><path d="m215.588 39.111-3.524.58" stroke="#31333A" stroke-linecap="round" stroke-linejoin="round"/><path d="M209.166 43.511a.766.766 0 0 0 .609-.867l-.116-.689a.709.709 0 0 0-.852-.573.768.768 0 0 0-.609.867l.116.688a.708.708 0 0 0 .852.574Z" fill="#31333A"/><path d="m209.724 39.708-3.524.58" stroke="#31333A" stroke-linecap="round" stroke-linejoin="round"/><path d="m211.973 47.418-4.854-1.364c-2.387 4.784 4.646 5.855 4.854 1.364Z" fill="#B5B5B6"/><path d="m199.815 50.81-1.969-1.92M198.614 51.552l.098-1.701" stroke="#31333A" stroke-linecap="round" stroke-linejoin="round"/><path d="M209.748 79.975a1.198 1.198 0 1 0 0-2.396 1.198 1.198 0 0 0 0 2.397ZM212.362 86.51a1.197 1.197 0 1 0 0-2.395 1.197 1.197 0 0 0 0 2.395Z" fill="#fff" stroke="#31333A" stroke-linecap="round" stroke-linejoin="round"/><path d="M229.979 150.659 200.617 202.3l14.149 9.498 18.869-28.722-3.656-32.417Z" fill="#fff"/><path d="M239.531 207.879c-13.811-4.225-25.203-24.271-25.203-24.271l14.439 1.751 13.189 12.467-.725 1.964" fill="#DCDDDD"/><path d="M229.979 150.659 200.617 202.3l14.149 9.498 18.869-28.722-3.656-32.417Z" stroke="#31333A" stroke-linecap="round" stroke-linejoin="round"/><path d="m206.94 188.69-8.857 16.214 33.311 33.587c8.764-8.831-11.257-21.904-7.577-38.618 0 0-14.111-8.528-16.877-11.183Z" fill="#fff"/><path d="m186.633 200.095 49.211 49.618 4.786-4.318-49.211-49.618-4.786 4.318Z" fill="#fff" stroke="#31333A" stroke-linecap="round" stroke-linejoin="round"/><path d="m206.94 188.69-8.857 16.214 33.311 33.587c8.764-8.831-11.257-21.904-7.577-38.618 0 0-14.111-8.528-16.877-11.183ZM222.834 208.829l-4.374-.95M222.931 211.19l-4.375-.951M223.817 213.814l-4.375-.951" stroke="#31333A" stroke-linecap="round" stroke-linejoin="round"/><path d="M212.852 207.072c1.07-1.145.547-3.372-1.167-4.973-1.715-1.602-3.972-1.971-5.042-.825-1.069 1.145-.547 3.372 1.168 4.973 1.714 1.601 3.971 1.971 5.041.825Z" fill="#fff" stroke="#31333A" stroke-linecap="round" stroke-linejoin="round"/><path d="m232.522 118.456-33.498 56.224s23.389 26.237 39.866 16.283l32.281-80.187a14.876 14.876 0 0 0-.339-13.359 14.899 14.899 0 0 0-10.918-7.705 14.87 14.87 0 0 0-11.43 3.031" fill="#DCDDDD"/><path d="m232.522 118.456-33.498 56.224s23.389 26.237 39.866 16.283l32.281-80.187a14.876 14.876 0 0 0-.339-13.359 14.899 14.899 0 0 0-10.918-7.705v0a14.87 14.87 0 0 0-11.43 3.031" stroke="#31333A" stroke-linecap="round" stroke-linejoin="round"/><path d="m198.352 128.262 40.216-18.841a2.018 2.018 0 0 1 2.569 2.838l-34.2 61.05" stroke="#31333A" stroke-linecap="round" stroke-linejoin="round"/><path d="M136.947 72.642a5.386 5.386 0 1 0 0-10.772 5.386 5.386 0 0 0 0 10.772ZM271.966 77.418l9.089-3.313M267.421 85.387l9.09-3.313" stroke="#3351E5" stroke-width="2" stroke-linecap="round" stroke-linejoin="round"/></svg>