<svg viewBox="0 0 400 300" fill="none" xmlns="http://www.w3.org/2000/svg"><path opacity=".1" d="M201.619 271.318C268.38 271.318 322.5 217.002 322.5 150S268.38 28.682 201.619 28.682c-66.76 0-120.88 54.316-120.88 121.318s54.12 121.318 120.88 121.318Z" fill="#5578EC"/><path d="m171.415 248.041 28.111 29.933 28.112-29.933c-15.46-16.55-40.673-16.55-56.223 0Z" fill="#DCDDDD"/><path d="m179.317 138.909 3.871-15.077c-31.675 3.788-62.418 18.564-86.728 44.407l18.745 19.95c21.321-22.707 48.717-34.982 76.623-36.893l.018-.026-12.529-12.361ZM204.599 122.943l-8.303 16.474 11.782 9.655-2.764 2.078c28.563 1.469 56.725 13.814 78.532 37.039l18.745-19.95c-27.158-28.918-62.389-43.993-97.992-45.296ZM193.258 200.397l2.678 7.165a63.894 63.894 0 0 1 50.445 20.542l18.733-19.95a89.846 89.846 0 0 0-59.783-28.666l2.747 4.14-14.82 16.769ZM195.284 184.644l-7.259-4.581a90.419 90.419 0 0 0-54.087 28.091h.012l18.745 19.95a64.602 64.602 0 0 1 35.755-19.645l-2.426-10.095 9.26-13.72Z" fill="#DCDDDD" stroke="#31333A" stroke-width=".998" stroke-linecap="round" stroke-linejoin="round"/><path d="m166.263 184.254-4.962 42.046c-11.464 17.514-34.371 30.58-25.043 31.312 0 0 30.037-15.713 39.037-20.008a4.58 4.58 0 0 0 2.565-3.524l5.8-42.576-17.397-7.25Z" fill="#fff"/><path opacity=".34" d="M159.688 202.516c-9.226 8.995 21.29 11.674 21.725 21.776.435 10.102 4.405-16.253 4.405-16.253l-26.13-5.523Z" fill="url(#a)"/><path d="M159.498 214.736s18.474 11.352 24.163 13.304c5.688 1.951-4.033-15.449-4.033-15.449" fill="#DCDDDD"/><path d="m166.263 184.254-4.962 42.046c-11.464 17.514-34.371 30.58-25.043 31.312 0 0 30.037-15.713 39.037-20.008a4.58 4.58 0 0 0 2.565-3.524l5.8-42.576-17.397-7.25Z" stroke="#31333A" stroke-width=".998" stroke-linecap="round" stroke-linejoin="round"/><path d="m167.37 93.03-25.745 33.972c-16.657 9.498-40.494 6.852-31.377 12.589 0 0 40.629-.248 43.928.073l31.992-38.988-18.798-7.646Z" fill="#fff"/><path d="m157.341 132.863-12.218-13.883 12.693-.715 1.902 10.234-2.377 4.364Z" fill="url(#b)"/><path d="m145.333 120.745 16.662 25.523 10.172-19.266" fill="#DCDDDD"/><path d="m167.37 93.03-25.745 33.972c-16.657 9.498-40.494 6.852-31.377 12.589 0 0 40.629-.248 43.928.073l31.992-38.988-18.798-7.646Z" stroke="#31333A" stroke-width=".998" stroke-linecap="round" stroke-linejoin="round"/><path d="M141.625 116.218c2.457 13.968 33.768 26.668 33.768 26.668l18.457-39.785 33.461 35.719 34.209-23.29s-60.423-51.762-72.089-51.758c-8.908.003-47.806 52.446-47.806 52.446Z" fill="#fff"/><path d="M196.75 109.591c8.46 5.637 49.744 7.315 49.744 7.315l-41.55 12.84" fill="#DCDDDD"/><path d="M145.333 105.948c8.091 24.872 39.55 32.002 51.982 35.405l-51.982-35.405Z" fill="#fff"/><path d="M145.333 105.948c8.091 24.872 39.55 32.002 51.982 35.405" stroke="#31333A" stroke-width=".998" stroke-linecap="round" stroke-linejoin="round"/><path d="M141.625 116.218c2.457 13.968 33.768 26.668 33.768 26.668l18.457-39.785 33.461 35.719 34.209-23.29s-60.423-51.762-72.089-51.758c-8.908.003-47.806 52.446-47.806 52.446Z" stroke="#31333A" stroke-width=".998" stroke-linecap="round" stroke-linejoin="round"/><path d="M225.095 110.135c-22.133 12.563-56.605 32.453-58.93 35.764-3.441 4.901-20.832 60.087-20.832 60.087 16.055 19.344 38.332 13.164 38.332 13.164l7.223-55.839s87.271-10.17 80.746-47.782c0 0-14.117-10.985-25.804-15.055" fill="#fff"/><path d="M145.333 198.354c19.184 20.3 42.94 16.731 55.09 12.761l-55.09-12.761Z" fill="#fff"/><path d="M145.333 198.354c19.184 20.3 42.94 16.731 55.09 12.761" stroke="#31333A" stroke-width=".998" stroke-linecap="round" stroke-linejoin="round"/><path d="M263.719 108.869c13.561 29.256-78.018 49.061-78.018 49.061l-7.6 57.438" fill="#fff"/><path d="M263.719 108.869c13.561 29.256-78.018 49.061-78.018 49.061l-7.6 57.438" stroke="#31333A" stroke-width=".998" stroke-linecap="round" stroke-linejoin="round"/><path d="M256.276 114.602c-9.513 3.686.435 14.749.435 14.749l-.435-14.749Z" fill="#fff"/><path d="M256.276 114.602c-9.513 3.686.435 14.749.435 14.749" stroke="#31333A" stroke-width=".998" stroke-linecap="round" stroke-linejoin="round"/><path d="M225.095 110.135c-22.133 12.563-56.605 32.453-58.93 35.764-3.441 4.901-20.832 60.087-20.832 60.087 16.055 19.344 38.332 13.164 38.332 13.164l7.223-55.839s87.271-10.17 80.746-47.782c0 0-14.117-10.985-25.804-15.055" stroke="#31333A" stroke-width=".998" stroke-linecap="round" stroke-linejoin="round"/><path d="M259.683 38.343c2.914 2.422 1.479 23.734 1.479 23.734l14.264-8.878-4.994-22.804-10.749 7.948Z" fill="#fff"/><path d="m259.384 45.769 6.633-4.043-6.867-.058.234 4.101Z" fill="url(#c)"/><path d="M255.587 52.051c9.662-.963 9.15-13.734 15.049-15.652 5.899-1.917-9.884 5.377-9.884 5.377l-1.412 2.918" fill="#DCDDDD"/><path d="M259.683 38.343c2.914 2.422 1.479 23.734 1.479 23.734l14.264-8.878-4.994-22.804-10.749 7.948Z" stroke="#31333A" stroke-width=".998" stroke-linecap="round" stroke-linejoin="round"/><path d="M257.422 40.304c-4.324 2.011-7.924-6.047-6.54-8.672 1.384-2.624 5.824-4.886 4.155-7.35-1.668-2.465 9.699-1.961 9.699-1.961l1.863 3.893-2.65 9.465-6.527 4.625Z" fill="#31333A"/><path d="M258.64 24.599c-3.738 4.804-13.55 25.452 6.565 19.53 2.967-.874 3.342.297 3.342.297l2.692-14.967-12.599-4.86Z" fill="#fff" stroke="#31333A" stroke-width=".998" stroke-linecap="round" stroke-linejoin="round"/><path d="m268.429 34.655-3.128 2.319M268.465 37.713l-1.287-2.02" stroke="#31333A" stroke-width=".998" stroke-linecap="round" stroke-linejoin="round"/><path d="M256.023 33.39a.933.933 0 0 1-.582-1.106l.225-.763a.797.797 0 0 1 .419-.48.778.778 0 0 1 .636-.01.93.93 0 0 1 .583 1.106l-.226.763a.78.78 0 0 1-1.055.49Z" fill="#31333A"/><path d="M256.223 29.414a6.652 6.652 0 0 1 3.199 1.08l-3.199-1.08Z" fill="#fff"/><path d="M256.223 29.414a6.652 6.652 0 0 1 3.199 1.08" stroke="#31333A" stroke-width=".998" stroke-linecap="round" stroke-linejoin="round"/><path d="M271.936 34.352c.11-1.28-.6-2.385-1.587-2.47-.987-.086-1.877.882-1.987 2.16-.111 1.28.6 2.386 1.587 2.47.987.086 1.876-.881 1.987-2.16Z" fill="#459BF2"/><path d="M215.453 55.414c2.913 3.934 7.399 9.557 7.212 13.6a5.54 5.54 0 0 1-.093.791c-.801 4.198 9.124 20.753 9.124 20.753l21.946-28.768 17.352 8.182s-19.996 20.103-33.418 33.324a9.175 9.175 0 0 1-4.299 2.387 9.177 9.177 0 0 1-9.035-2.854 9.188 9.188 0 0 1-2.147-4.424c-2.244-12.068-4.657-26.467-4.657-26.467s-4.895-9.549-5.029-9.997c-.135-.447.704-6.065 1.325-5.894.622.171.219 1.471.219 1.471s1.445 3.99 2.07 4.132c.625.142-.893-4.348-1.023-4.853-.129-.505.453-1.383.453-1.383Z" fill="#fff"/><path d="M235.064 77.749c9.408.189 4.516 26.249 4.516 26.249l9.164-11.77 2.991-17.69-9.145-2.032" fill="#DCDDDD"/><path d="M215.453 55.414c2.913 3.934 7.399 9.557 7.212 13.6a5.54 5.54 0 0 1-.093.791c-.801 4.198 9.124 20.753 9.124 20.753l21.946-28.768 17.352 8.182s-19.996 20.103-33.418 33.324a9.175 9.175 0 0 1-4.299 2.387 9.177 9.177 0 0 1-9.035-2.854 9.188 9.188 0 0 1-2.147-4.424c-2.244-12.068-4.657-26.467-4.657-26.467s-4.895-9.549-5.029-9.997c-.135-.447.704-6.065 1.325-5.894.622.171.219 1.471.219 1.471s1.445 3.99 2.07 4.132c.625.142-.893-4.348-1.023-4.853-.129-.505.453-1.383.453-1.383Z" stroke="#31333A" stroke-width=".998" stroke-linecap="round" stroke-linejoin="round"/><path d="M258.689 22.422c-.741 3.664 1.421 11.027 3.384 16.604a29.7 29.7 0 0 0 2.257 5.354l18.051.854s-.85-25.758-23.692-22.812Z" fill="#31333A"/><path d="M274.628 47.584c-1.864 1.462-14.612 6.006-15.219 6.553-1.759 1.588-14.15 15.313-15.232 19.748-1.082 4.435-3.639 26.488-3.639 26.488l31.097 15.157s6.534-34.297 8.049-35.732c.623-.59-1.123-3.556.403-5.279l6.813-2.43s-2.999-12.454-5.408-16.674a33.117 33.117 0 0 0-6.864-7.831Z" fill="#5578EC"/><path d="M274.628 47.584c-1.864 1.462-14.612 6.006-15.219 6.553-1.759 1.588-14.15 15.313-15.232 19.748-1.082 4.435-3.639 26.488-3.639 26.488l31.097 15.157s6.534-34.297 8.049-35.732c.623-.59-1.123-3.556.403-5.279l6.813-2.43s-2.999-12.454-5.408-16.674a33.117 33.117 0 0 0-6.864-7.831v0Z" stroke="#31333A" stroke-width=".998" stroke-linecap="round" stroke-linejoin="round"/><path d="m285.878 72.506-19.171 6.293 13.285 27.149s-31.06 5.641-34.64 6.023c-3.58.382-12.595 4.205-13.408 4.57-.813.364-.678 9.741-.654 9.961a1.912 1.912 0 0 0 1.543.481 1.907 1.907 0 0 0 1.357-.879c1.094-1.603 2.695-5.513 2.964-5.62.27-.107 9.34-3.577 9.34-3.577l38.578.746a10.07 10.07 0 0 0 9.975-7.776c.348-1.486.353-3.031.015-4.519l-9.184-32.852Z" fill="#fff"/><path d="M260.277 76.238c17.053 2.56 34.082.778 37.242 6.344 3.161 5.565-5.819-12.576-5.819-12.576l-14.864 1.51" fill="#DCDDDD"/><path d="m285.878 72.506-19.171 6.293 13.285 27.149s-31.06 5.641-34.64 6.023c-3.58.382-12.595 4.205-13.408 4.57-.813.364-.678 9.741-.654 9.961a1.912 1.912 0 0 0 1.543.481 1.907 1.907 0 0 0 1.357-.879c1.094-1.603 2.695-5.513 2.964-5.62.27-.107 9.34-3.577 9.34-3.577l38.578.746a10.07 10.07 0 0 0 9.975-7.776c.348-1.486.353-3.031.015-4.519l-9.184-32.852Z" stroke="#31333A" stroke-width=".998" stroke-linecap="round" stroke-linejoin="round"/><path d="M255.854 30.537c-3.218 1.991-4.872 2.256-1.41 5.034l1.41-5.034Z" fill="#fff"/><path d="M255.854 30.537c-3.218 1.991-4.872 2.256-1.41 5.034" stroke="#31333A" stroke-width=".998" stroke-linecap="round" stroke-linejoin="round"/><path d="m217.768 67.32-.481.153a1.362 1.362 0 0 1-1.714-.892l-7.986-25.283a1.368 1.368 0 0 1 .889-1.72l.481-.153a1.364 1.364 0 0 1 1.714.892l7.986 25.283a1.371 1.371 0 0 1-.889 1.72Z" fill="#5578EC"/><path d="m218.79 66.704-.483.154a1.364 1.364 0 0 1-1.713-.891l-7.937-25.127a1.37 1.37 0 0 1 .889-1.719l.483-.154a1.361 1.361 0 0 1 1.712.892l7.937 25.126a1.37 1.37 0 0 1-.888 1.72Z" fill="#fff" stroke="#31333A" stroke-width=".998" stroke-linecap="round" stroke-linejoin="round"/><path d="m217.768 67.32-.481.153a1.362 1.362 0 0 1-1.714-.892l-7.986-25.283a1.368 1.368 0 0 1 .889-1.72l.481-.153a1.364 1.364 0 0 1 1.714.892l7.986 25.283a1.371 1.371 0 0 1-.889 1.72v0Z" stroke="#31333A" stroke-width=".998" stroke-linecap="round" stroke-linejoin="round"/><path d="M210.291 56.44a1.441 1.441 0 0 1 .981-1.438c.197-.067.407-.09.614-.069 2.119.237 5.67.966 5.517 2.37-.201 1.854-.944 2.007-.944 2.007s2.12 1.338.949 2.843c0 0 1.361 2.166.106 2.62-.665.24-3.92.608-4.943-.279-.925-.802-.418-2.423-.418-2.423s-1.897-.887-.97-3.485a2.724 2.724 0 0 1-.892-2.146Z" fill="#fff" stroke="#31333A" stroke-width=".998" stroke-linecap="round" stroke-linejoin="round"/><path d="M220.661 71.115s1.819-.519 1.911-1.31l-1.911 1.31Z" fill="#fff"/><path d="M220.661 71.115s1.819-.519 1.911-1.31M245.83 115.182l.664 1.725" stroke="#31333A" stroke-width=".998" stroke-linecap="round" stroke-linejoin="round"/><path d="M255.854 38.08s1.174-2.24 3.32-2.212l-3.32 2.212Z" fill="#fff"/><path d="M255.854 38.08s1.174-2.24 3.32-2.212" stroke="#31333A" stroke-width=".998" stroke-linecap="round" stroke-linejoin="round"/><path d="M147.244 41.687c-.064.2-.095.408-.091.618a.599.599 0 0 0 .535.615c.241.03.486.007.716-.07a7.905 7.905 0 0 0 2.537-1.532c.325-.271.654-.572.978-.897.503-.501.966-1.04 1.386-1.613a6.782 6.782 0 0 0 1.035-1.914c.076-.232.099-.477.069-.72a.6.6 0 0 0-.613-.537 1.857 1.857 0 0 0-.616.093 6.72 6.72 0 0 0-1.907 1.038c-.571.422-1.108.887-1.608 1.391-.324.326-.623.655-.894.981a7.967 7.967 0 0 0-1.527 2.547ZM135.195 56.099c.065-.2.096-.409.091-.619a.598.598 0 0 0-.534-.614 1.631 1.631 0 0 0-.717.069 7.928 7.928 0 0 0-2.537 1.532c-.325.271-.653.572-.977.897-.503.502-.966 1.04-1.386 1.613a6.757 6.757 0 0 0-1.035 1.915c-.076.231-.1.477-.069.718a.6.6 0 0 0 .613.537c.209.005.417-.026.616-.091a6.716 6.716 0 0 0 1.907-1.039 13.875 13.875 0 0 0 1.608-1.39c.324-.326.623-.656.894-.982a7.947 7.947 0 0 0 1.526-2.546Z" fill="#3351E5"/><path d="M132.447 58.483c2.281 0 4.129-2.148 4.129-4.799 0-2.65-1.848-4.8-4.129-4.8-2.28 0-4.129 2.15-4.129 4.8s1.849 4.8 4.129 4.8ZM148.4 54.94a1.857 1.857 0 0 0-.616-.092.6.6 0 0 0-.613.537c-.03.242-.007.487.069.719.345.937.863 1.8 1.527 2.546a14.592 14.592 0 0 0 2.501 2.372c.575.447 1.22.798 1.907 1.039.231.076.476.1.717.069a.599.599 0 0 0 .535-.615 1.882 1.882 0 0 0-.092-.618 6.752 6.752 0 0 0-1.034-1.915 13.911 13.911 0 0 0-1.386-1.613 14.734 14.734 0 0 0-.978-.897 7.916 7.916 0 0 0-2.537-1.532Z" fill="#3351E5"/><path d="M145.993 61.842c2.641 0 4.782-1.856 4.782-4.144 0-2.289-2.141-4.144-4.782-4.144s-4.782 1.855-4.782 4.144c0 2.288 2.141 4.144 4.782 4.144ZM134.04 42.847c.199.065.407.096.616.091a.598.598 0 0 0 .613-.537 1.638 1.638 0 0 0-.069-.719 7.949 7.949 0 0 0-1.527-2.546 14.592 14.592 0 0 0-2.501-2.372 6.734 6.734 0 0 0-1.907-1.038 1.632 1.632 0 0 0-.717-.07.599.599 0 0 0-.534.615c-.005.21.026.42.091.619.239.69.589 1.336 1.034 1.914.42.572.884 1.112 1.387 1.613.324.326.652.626.977.898a7.927 7.927 0 0 0 2.537 1.532Z" fill="#3351E5"/><path d="M136.446 44.232c2.641 0 4.782-1.855 4.782-4.144 0-2.288-2.141-4.144-4.782-4.144s-4.782 1.856-4.782 4.144c0 2.289 2.141 4.144 4.782 4.144Z" fill="#3351E5"/><path d="M140.403 39.522c.095.187.22.357.371.503a.595.595 0 0 0 .811.055c.193-.15.349-.34.458-.558a7.981 7.981 0 0 0 .715-2.883c.038-.423.059-.869.059-1.329a13.86 13.86 0 0 0-.157-2.124 6.778 6.778 0 0 0-.617-2.088 1.624 1.624 0 0 0-.458-.557.594.594 0 0 0-.811.055 1.875 1.875 0 0 0-.371.502 6.778 6.778 0 0 0-.617 2.088 13.987 13.987 0 0 0-.157 2.124c0 .46.02.906.059 1.328.056.998.298 1.976.715 2.884Z" fill="#3351E5"/><path d="M147.393 42.708c1.635-1.595 1.463-4.423-.385-6.317-1.847-1.894-4.671-2.136-6.306-.541-1.635 1.595-1.463 4.424.385 6.317 1.847 1.895 4.67 2.137 6.306.541ZM142.037 58.264a1.875 1.875 0 0 0-.371-.502.6.6 0 0 0-.812-.055c-.192.15-.348.34-.457.557a7.962 7.962 0 0 0-.715 2.884c-.038.422-.059.868-.059 1.328-.002.711.05 1.421.157 2.124.092.725.3 1.43.617 2.088.109.218.266.408.458.557a.595.595 0 0 0 .811-.055c.151-.145.277-.315.371-.502a6.779 6.779 0 0 0 .618-2.088c.106-.703.158-1.413.156-2.124 0-.46-.021-.906-.059-1.328a7.98 7.98 0 0 0-.715-2.884ZM150.557 48.073a1.879 1.879 0 0 0-.5.373.6.6 0 0 0-.055.814c.149.193.338.35.556.46a7.897 7.897 0 0 0 2.873.717 14.539 14.539 0 0 0 3.44-.098 6.715 6.715 0 0 0 2.08-.619c.217-.11.407-.267.555-.46a.602.602 0 0 0-.055-.814 1.847 1.847 0 0 0-.5-.373 6.713 6.713 0 0 0-2.08-.62 14.58 14.58 0 0 0-3.44-.098 7.902 7.902 0 0 0-2.874.718ZM131.883 49.713c.186-.095.355-.221.5-.373a.599.599 0 0 0 .054-.814 1.627 1.627 0 0 0-.555-.46 7.9 7.9 0 0 0-2.873-.717 14.545 14.545 0 0 0-3.44.098 6.713 6.713 0 0 0-2.08.62c-.217.11-.407.267-.555.46a.599.599 0 0 0 .054.814c.145.15.314.277.5.372a6.726 6.726 0 0 0 2.08.62 14.582 14.582 0 0 0 3.441.098 7.908 7.908 0 0 0 2.874-.718Z" fill="#3351E5"/><path d="M134.602 48.943c1.848-1.894 2.02-4.722.384-6.317-1.635-1.596-4.458-1.353-6.306.54-1.847 1.894-2.019 4.723-.384 6.318 1.635 1.595 4.458 1.353 6.306-.54ZM152.024 37.35l-.21.211.21-.21Z" fill="#3351E5"/><path d="M101.827 116.041c2.964 0 5.367-2.411 5.367-5.386s-2.403-5.386-5.367-5.386-5.367 2.411-5.367 5.386 2.403 5.386 5.367 5.386ZM297.722 139.411l9.057-3.313M293.193 147.378l9.057-3.313" stroke="#3351E5" stroke-width="1.996" stroke-linecap="round" stroke-linejoin="round"/><defs><linearGradient id="a" x1="157.952" y1="214.557" x2="185.818" y2="214.557" gradientUnits="userSpaceOnUse"><stop offset=".101" stop-color="#FF7638"/><stop offset=".885" stop-color="#FF3929"/></linearGradient><linearGradient id="b" x1="145.123" y1="125.564" x2="159.718" y2="125.564" gradientUnits="userSpaceOnUse"><stop offset=".102" stop-color="#FFB4B9"/><stop offset=".885" stop-color="#FA898C"/></linearGradient><linearGradient id="c" x1="259.15" y1="43.718" x2="266.017" y2="43.718" gradientUnits="userSpaceOnUse"><stop offset=".102" stop-color="#FFB4B9"/><stop offset=".885" stop-color="#FA898C"/></linearGradient></defs></svg>