<svg viewBox="0 0 400 300" fill="none" xmlns="http://www.w3.org/2000/svg"><path d="m319.681 132.038 9.605-3.501M314.878 140.459l9.605-3.501" stroke="#3351E5" stroke-width="2" stroke-linecap="round" stroke-linejoin="round"/><path opacity=".1" d="M202.612 270.662c67.003 0 121.318-54.316 121.318-121.318S269.615 28.026 202.612 28.026c-67.002 0-121.318 54.316-121.318 121.318s54.316 121.318 121.318 121.318Z" fill="#5578EC"/><path d="m322.082 74.981-51.573-11.374 30.968 19.08 20.605-7.706Z" fill="#5578EC"/><path d="m302.705 95.26-1.228-12.573-30.968-19.08 32.196 31.653Z" fill="#3351E5"/><path d="m287.146 84.962 10.382-.138 5.177 10.436-9.055-8.902" fill="#5578EC"/><path d="m297.528 84.824-16.577 6.561-10.442-27.778 27.019 21.217Z" fill="#5578EC"/><path d="M82.986 64.315a14.141 14.141 0 0 0-14.141 14.141v74.41h28.281v-74.41a14.14 14.14 0 0 0-14.14-14.14Z" fill="#fff"/><path d="M82.986 64.315a14.141 14.141 0 0 0-14.141 14.141v74.41h28.281v-74.41a14.14 14.14 0 0 0-14.14-14.14v0Z" stroke="#31333A" stroke-linecap="round" stroke-linejoin="round"/><path d="M111.267 260.973c-.852 0 .811.144 0 0v0ZM226.368 64.315H82.985a14.141 14.141 0 0 1 14.141 14.141v182.517h8.076v-51.175h5.703v51.175h5.536v-51.175h5.702v51.175h5.537v-51.175h5.702v51.175h5.537v-51.175h5.702v51.175h5.536v-51.175h5.702v51.175h5.537v-51.175h5.702v51.175h5.537v-51.175h5.702v51.175h5.536v-51.175h5.703v51.175h5.536v-51.175h5.702v51.175h5.537v-51.175h5.702v51.175h5.537v-51.175h5.702v51.175h5.536v-51.175h5.702v51.175h5.979V78.456a14.15 14.15 0 0 0-8.73-13.064 14.135 14.135 0 0 0-5.411-1.077Z" fill="#fff" stroke="#31333A" stroke-linecap="round" stroke-linejoin="round"/><path d="M226.784 118.397H111.959a3.074 3.074 0 0 0-3.074 3.075v18.427a3.074 3.074 0 0 0 3.074 3.074h114.825a3.074 3.074 0 0 0 3.074-3.074v-18.427a3.074 3.074 0 0 0-3.074-3.075ZM226.784 150.446H111.959a3.074 3.074 0 0 0-3.074 3.074v18.428a3.074 3.074 0 0 0 3.074 3.074h114.825a3.074 3.074 0 0 0 3.074-3.074V153.52a3.074 3.074 0 0 0-3.074-3.074Z" fill="#DCDDDD"/><path d="M160.625 98.541a1.752 1.752 0 0 1 1.621 2.425 1.751 1.751 0 0 1-.95.949 1.75 1.75 0 0 1-.671.134h-49.986a1.75 1.75 0 0 1-1.24-.514 1.751 1.751 0 0 1 0-2.48 1.752 1.752 0 0 1 1.24-.514M227.336 92.103c-5.666-1.83-4.657-14.95 6.444-13.407 11.101 1.544 9.149 22.381 26.494 21.18 18.016-1.247 16.809 42.81-7.146 36.786-17.543-4.411-25.792-44.56-25.792-44.56Z" fill="#31333A"/><path d="M225.197 90.444s5.642-3.801 10.499-.829l-.588 2.44-8.403.495-1.508-2.106Z" fill="#3351E5"/><path d="M171.511 217.693c-1.809-6.756-33.986-95.65 60.685-95.38 94.671.271 59.203 102.428 59.203 102.428l-119.888-7.048Z" fill="#5578EC"/><path d="M230.462 139.927c12.193 0 22.077-7.394 22.077-16.515s-9.884-16.516-22.077-16.516c-12.192 0-22.076 7.395-22.076 16.516 0 9.121 9.884 16.515 22.076 16.515Z" fill="#fff" stroke="#31333A" stroke-linecap="round" stroke-linejoin="round"/><path d="M230.462 135.726c9.091 0 16.46-5.513 16.46-12.314 0-6.8-7.369-12.313-16.46-12.313-9.09 0-16.46 5.513-16.46 12.313 0 6.801 7.37 12.314 16.46 12.314Z" fill="#fff"/><path d="m232.145 126.389-18.95 3.253-.817-7.33 12.77-3.944 4.158.228" fill="#DCDDDD"/><path d="M230.462 135.726c9.091 0 16.46-5.513 16.46-12.314 0-6.8-7.369-12.313-16.46-12.313-9.09 0-16.46 5.513-16.46 12.313 0 6.801 7.37 12.314 16.46 12.314ZM192.589 153.905l.554 36.026M271.546 153.905l.554 36.026" stroke="#31333A" stroke-linecap="round" stroke-linejoin="round"/><path d="M171.511 217.693c-1.809-6.756-33.986-95.65 60.685-95.38 94.671.271 59.203 102.428 59.203 102.428l-119.888-7.048Z" stroke="#31333A" stroke-linecap="round" stroke-linejoin="round"/><path d="M280.03 236.863h-96.723l-5.893-64.677c-.534-5.859 3.114-10.694 8.158-10.694h92.194c5.043 0 8.691 4.835 8.157 10.694l-5.893 64.677Z" fill="#fff"/><path d="m177.362 189.453 54.597 39.566-60.934-15.788" fill="#DCDDDD"/><path d="M280.03 236.863h-96.723l-5.893-64.677c-.534-5.859 3.114-10.694 8.158-10.694h92.194c5.043 0 8.691 4.835 8.157 10.694l-5.893 64.677Z" stroke="#31333A" stroke-linecap="round" stroke-linejoin="round"/><path d="M238.626 195.24c-.283 2.806-3.12 4.886-6.354 4.828-3.234-.058-5.988-2.24-6.163-5.054-.19-3.037 2.655-5.626 6.368-5.56 3.712.067 6.455 2.758 6.149 5.786Z" fill="#3351E5"/><path d="m298.015 243.383 6.484-.915s11.495 14.307-18.566 20.442l12.082-19.527Z" fill="#fff" stroke="#31333A" stroke-linecap="round" stroke-linejoin="round"/><path d="M302.207 241.401c-2.507-.404-7.299-.241-12.894.204-14.331 1.138-33.936 4.12-33.936 4.12s-12.214 14.112-10.022 15.855c2.193 1.742 18.404 3.409 37.355 1.788a29.65 29.65 0 0 0 3.223-.457c16.771-3.318 24.68-20.153 16.274-21.51Z" fill="#31333A"/><path d="M289.658 235.432c3.879 13.445-5.374 32.042-5.374 32.042" stroke="#fff" stroke-linecap="round" stroke-linejoin="round"/><path d="M242.629 235.473c9.918 6.477 16.392 10.972 16.392 10.972 3.666 4.832 2.211 9.102.214 11.929a8.028 8.028 0 0 1-7.106 3.342 244.959 244.959 0 0 1-12.247-1.164c1.473-6.902 3.381-17.722 2.747-25.079Z" fill="#fff" stroke="#31333A" stroke-linecap="round" stroke-linejoin="round"/><path d="M156.855 189.779c23.211 11.55 68.694 34.54 85.774 45.694.633 7.357-1.275 18.178-2.747 25.079-34.309-4.126-79.153-19.444-102.84-36.147a20.376 20.376 0 0 1-8.292-13.752 20.394 20.394 0 0 1 4.235-15.489 19.392 19.392 0 0 1 23.87-5.385Z" fill="#fff"/><path d="m122.87 211.584 102.57 51.327M156.855 189.779c23.211 11.55 68.694 34.54 85.774 45.694.633 7.357-1.275 18.178-2.747 25.079-34.309-4.126-79.153-19.444-102.84-36.147a20.376 20.376 0 0 1-8.292-13.752 20.394 20.394 0 0 1 4.235-15.489 19.392 19.392 0 0 1 23.87-5.385v0Z" stroke="#31333A" stroke-linecap="round" stroke-linejoin="round"/><path d="M232.66 126.201c6.419 0 11.622-7.447 11.622-16.635 0-9.187-5.203-16.635-11.622-16.635-6.418 0-11.621 7.448-11.621 16.635 0 9.188 5.203 16.635 11.621 16.635Z" fill="#fff" stroke="#31333A" stroke-linecap="round" stroke-linejoin="round"/><path d="M221.887 107.674c-6.707-3.196-8.171 1.911-5.088 6.103 2.076 2.822 4.361 2.777 5.633 2.447" fill="#fff"/><path d="M221.887 107.674c-6.707-3.196-8.171 1.911-5.088 6.103 2.076 2.822 4.361 2.777 5.633 2.447" stroke="#31333A" stroke-linecap="round" stroke-linejoin="round"/><path d="M242.231 107.674c6.707-3.196 8.171 1.911 5.088 6.103-1.835 2.495-3.834 2.749-5.152 2.546" fill="#fff"/><path d="M242.231 107.674c6.707-3.196 8.171 1.911 5.088 6.103-1.835 2.495-3.834 2.749-5.152 2.546" stroke="#31333A" stroke-linecap="round" stroke-linejoin="round"/><path d="M229.249 99.79c-1.734 13.378-9.482 11.32-9.482 11.32s-4.51-19.78 12.142-19.551c16.651.228 12.373 18.007 12.373 18.007s-13.183.286-15.033-9.775Z" fill="#31333A"/><path d="M230.773 111.582a9.075 9.075 0 0 0-4.812.32l4.812-.32Z" fill="#fff"/><path d="M230.773 111.582a9.075 9.075 0 0 0-4.812.32" stroke="#31333A" stroke-linecap="round" stroke-linejoin="round"/><path d="M228.843 116.319a.882.882 0 0 1-.828-.538.88.88 0 0 1-.071-.339l-.031-1.374a.892.892 0 0 1 .858-.919.882.882 0 0 1 .828.538.88.88 0 0 1 .071.339l.031 1.374a.892.892 0 0 1-.858.919Z" fill="#31333A"/><path d="M234.116 111.504a9.08 9.08 0 0 1 4.821.093l-4.821-.093Z" fill="#fff"/><path d="M234.116 111.504a9.08 9.08 0 0 1 4.821.093" stroke="#31333A" stroke-linecap="round" stroke-linejoin="round"/><path d="M236.257 116.146a.896.896 0 0 0 .62-.282.896.896 0 0 0 .239-.638l-.031-1.374a.9.9 0 0 0-.268-.625.887.887 0 0 0-.631-.252.887.887 0 0 0-.859.919l.031 1.374a.881.881 0 0 0 .268.625.906.906 0 0 0 .631.253Z" fill="#31333A"/><path d="m232.506 114.646.042 1.864s-1.357 1.452.048 2.13" fill="#fff"/><path d="m232.506 114.646.042 1.864s-1.357 1.452.048 2.13" stroke="#31333A" stroke-linecap="round" stroke-linejoin="round"/><path d="M236.029 118.959a2.905 2.905 0 0 0-2.601 1.935" fill="#fff"/><path d="M236.029 118.959a2.905 2.905 0 0 0-2.601 1.935" stroke="#31333A" stroke-linecap="round" stroke-linejoin="round"/><path d="m162.602 243.383-6.483-.915s-11.495 14.307 18.566 20.442l-12.083-19.527Z" fill="#fff" stroke="#31333A" stroke-linecap="round" stroke-linejoin="round"/><path d="M205.241 245.725s-19.605-2.982-33.937-4.12c-5.595-.445-10.386-.608-12.893-.204-8.406 1.357-.497 18.192 16.274 21.51a29.65 29.65 0 0 0 3.223.457c18.951 1.621 35.312.136 37.355-1.788 5.369-5.058-10.022-15.855-10.022-15.855Z" fill="#31333A"/><path d="M174.608 239.821c-9.495 5.33 2.002 30.556 2.002 30.556" stroke="#fff" stroke-linecap="round" stroke-linejoin="round"/><path d="M222.171 234.8a213.521 213.521 0 0 1-20.574 11.646c-3.665 4.832-2.211 9.101-.214 11.928a8.026 8.026 0 0 0 7.107 3.343c4.077-.284 17.486-5.832 21.565-6.323-1.472-6.901-8.518-13.238-7.884-20.594Z" fill="#fff"/><path d="M218.296 236.646c-.932 2.303-2.617 26.947-2.617 26.947l12.618-5.256" fill="#DCDDDD"/><path d="M222.171 234.8a213.521 213.521 0 0 1-20.574 11.646c-3.665 4.832-2.211 9.101-.214 11.928a8.026 8.026 0 0 0 7.107 3.343c4.077-.284 17.486-5.832 21.565-6.323-1.472-6.901-8.518-13.238-7.884-20.594Z" stroke="#31333A" stroke-linecap="round" stroke-linejoin="round"/><path d="M306.247 197.777c-23.914 8.183-67.269 23.989-88.258 37.696-2.463 5.697 8.413 35 9.782 36.001 0 0 70.51-22.397 95.05-39.339a19.583 19.583 0 0 0 6.878-23.46 18.782 18.782 0 0 0-23.452-10.898Z" fill="#fff"/><path d="M224.093 230.245c-3.718 7.332 14.04 43.719 14.04 43.719l-14.04-43.719Z" fill="#fff"/><path d="M224.093 230.245c-3.718 7.332 14.04 43.719 14.04 43.719M333.015 224.15l-101.979 42.528" stroke="#31333A" stroke-linecap="round" stroke-linejoin="round"/><path d="M306.247 197.777c-23.914 8.183-67.269 23.989-88.258 37.696-2.463 5.697 8.413 35 9.782 36.001 0 0 70.51-22.397 95.05-39.339a19.583 19.583 0 0 0 6.878-23.46v0a18.782 18.782 0 0 0-23.452-10.898v0ZM216.045 109.753l1.027 1.784M246.676 109.753l-1.026 1.784" stroke="#31333A" stroke-linecap="round" stroke-linejoin="round"/><path d="M141.221 142.927a5.386 5.386 0 1 0 0-10.772 5.386 5.386 0 0 0 0 10.772Z" stroke="#3351E5" stroke-width="2" stroke-linecap="round" stroke-linejoin="round"/></svg>