<svg viewBox="0 0 400 300" fill="none" xmlns="http://www.w3.org/2000/svg"><path opacity=".27" d="M194.294 271.318c67.002 0 121.318-54.316 121.318-121.318S261.296 28.682 194.294 28.682 72.976 82.998 72.976 150s54.316 121.318 121.318 121.318Z" fill="#D6DCED"/><path d="M291.391 137.771H90.041a12.36 12.36 0 0 0-12.36 12.361V233.3a5.993 5.993 0 0 0 5.994 5.994H259.98l17.265 17.265a2.088 2.088 0 0 0 2.272.452 2.086 2.086 0 0 0 1.287-1.926v-15.791h16.955a5.995 5.995 0 0 0 5.993-5.994v-83.168a12.36 12.36 0 0 0-12.361-12.361Z" fill="#5578EC"/><path d="M291.391 137.771H90.041a12.36 12.36 0 0 0-12.36 12.361V233.3a5.993 5.993 0 0 0 5.994 5.994H259.98l17.265 17.265a2.088 2.088 0 0 0 2.272.452 2.086 2.086 0 0 0 1.287-1.926v-15.791h16.955a5.995 5.995 0 0 0 5.993-5.994v-83.168a12.36 12.36 0 0 0-12.361-12.361v0Z" stroke="#31333A" stroke-linecap="round" stroke-linejoin="round"/><path d="M276.365 164.112H105.068a4.012 4.012 0 0 0 0 8.024h171.297a4.012 4.012 0 1 0 0-8.024ZM232.559 193.461H105.068a4.012 4.012 0 1 0 0 8.024h127.491a4.012 4.012 0 1 0 0-8.024Z" fill="#fff" stroke="#31333A" stroke-linecap="round" stroke-linejoin="round"/><path d="m95.022 131.781-10.269 2.796-15.218 3.533c-3.372.782-5.533 4.417-4.833 8.128a6.361 6.361 0 0 0 6.728 5.45c8.675-.929 25.668-2.094 25.668-2.094l-2.076-17.813Z" fill="#fff"/><path d="m95.022 131.781-10.269 2.796-15.218 3.533c-3.372.782-5.533 4.417-4.833 8.128a6.361 6.361 0 0 0 6.728 5.45c8.675-.929 25.668-2.094 25.668-2.094l-2.076-17.813Z" stroke="#31333A" stroke-linecap="round" stroke-linejoin="round"/><path d="M93.478 150c2.92-.648 29.443-1.816 32.13-3.966l-23.155-24.831-.303-4.449c-6.2 3.016-17.397 17.823-17.397 17.823S87.67 148.96 93.478 150Z" fill="#B5B5B6"/><path d="M93.478 150c2.92-.648 29.443-1.816 32.13-3.966l-23.155-24.831-.303-4.449c-6.2 3.016-17.397 17.823-17.397 17.823S87.67 148.96 93.478 150Z" stroke="#31333A" stroke-linecap="round" stroke-linejoin="round"/><path d="M83.605 140.935c4.881-9.266 16.233-30.947 16.707-33.095.606-2.74-2.975-17.771-3.435-18.475-.46-.703-3.411-3.862-1.15 7.19a22.502 22.502 0 0 1-2.771 12.009l-26.684 31.568" fill="#fff"/><path d="M96.64 97.844a26.776 26.776 0 0 0 3.391 5.612l1.54-5.066" fill="#DCDDDD"/><path d="M83.605 140.935c4.881-9.266 16.233-30.947 16.707-33.095.606-2.74-2.975-17.771-3.435-18.475-.46-.703-3.411-3.862-1.15 7.19a22.502 22.502 0 0 1-2.771 12.009l-26.684 31.568" stroke="#31333A" stroke-linecap="round" stroke-linejoin="round"/><path d="m311.729 139.234-5.593 2.388-24.446 2.699-5.842-16.495 29.344-1.449" fill="#fff"/><path d="m311.729 139.234-5.593 2.388-24.446 2.699-5.842-16.495 29.344-1.449" stroke="#31333A" stroke-linecap="round" stroke-linejoin="round"/><path d="m293.789 126.94 17.94-.814c22.436 28.914 24.2 33.232 24.2 33.232-10.895 6.167-17.501-20.393-35.831-16.281l-6.309-16.137Z" fill="#31333A"/><path d="m307.989 125.009 27.94 38.308" stroke="#31333A" stroke-linecap="round" stroke-linejoin="round"/><path d="M303.752 136.374c1.73 0 3.132-1.458 3.132-3.256 0-1.799-1.402-3.257-3.132-3.257-1.73 0-3.132 1.458-3.132 3.257 0 1.798 1.402 3.256 3.132 3.256Z" fill="#fff" stroke="#31333A" stroke-linecap="round" stroke-linejoin="round"/><path d="M327.885 150.676c-10.685 1.532-10.071 5.235-10.071 5.235l10.071-5.235Z" fill="#fff"/><path d="M327.885 150.676c-10.685 1.532-10.071 5.235-10.071 5.235" stroke="#31333A" stroke-linecap="round" stroke-linejoin="round"/><path d="m245.652 138.38-1.038-6.044-10.32-22.633-12.49 5.431 10.945 23.832" fill="#DCDDDD"/><path opacity=".34" d="M220.445 119.26c12.139 7.525 27.928 2.364 27.928 2.364l-11.098-7.593-18.329.817" fill="url(#a)"/><path d="m245.652 138.38-1.038-6.044-10.32-22.633-12.49 5.431 10.945 23.832" stroke="#31333A" stroke-linecap="round" stroke-linejoin="round"/><path d="M225.508 123.605s29.087-1.081 28.933-8.404L234.369 72.51c-5.31-10.722-17.455-14.19-26.449-4.973l-63.7 65.84 44.44 6.113 27.183-32.801 9.665 16.916Z" fill="#fff"/><path d="m188.777 126.377 58.824 3.558 9.627-19.1-80.031 7.534" fill="#DCDDDD"/><path d="M225.508 123.605s29.087-1.081 28.933-8.404L234.369 72.51c-5.31-10.722-17.455-14.19-26.449-4.973l-63.7 65.84 44.44 6.113 27.183-32.801 9.665 16.916Z" stroke="#31333A" stroke-linecap="round" stroke-linejoin="round"/><path d="M290.569 120.686s5.745 19.528.487 29.47l-120.127-3.458-13.326-29.944 132.966 3.932Z" fill="#fff"/><path d="m179.893 126.126 23.65 28.157-45.255-2.561" fill="#DCDDDD"/><path d="M283.076 118.037c7.4 12.552 1.271 37.581 1.271 37.581l-1.271-37.581Z" fill="#fff"/><path d="M283.076 118.037c7.4 12.552 1.271 37.581 1.271 37.581M162.208 141.752l126.561 3.347" stroke="#31333A" stroke-linecap="round" stroke-linejoin="round"/><path d="M290.569 120.686s5.745 19.528.487 29.47l-120.127-3.458-13.326-29.944 132.966 3.932Z" stroke="#31333A" stroke-linecap="round" stroke-linejoin="round"/><path d="M98.105 119.901s14.163-21.626 41.858-23.183l30.106 39.199.86 10.781-42.257 1.614a23.84 23.84 0 0 1-13.969-3.89 40.457 40.457 0 0 1-6.924-5.695" fill="#B5B5B6"/><path d="M119.899 119.103c5.243-2.353 6.963-9.896 3.842-16.849-3.12-6.953-9.9-10.681-15.143-8.328-5.242 2.353-6.962 9.897-3.841 16.849 3.12 6.953 9.9 10.681 15.142 8.328Z" fill="#fff" stroke="#31333A" stroke-linecap="round" stroke-linejoin="round"/><path d="M143.909 124.327c19.352 24.7-2.948 29.158-2.948 29.158l18.4-2.862 14.092-1.692-5.16-21.756-21.675-15.911" fill="#31333A"/><path d="M98.105 119.901s14.163-21.626 41.858-23.183l30.106 39.199.86 10.781-42.257 1.614a23.84 23.84 0 0 1-13.969-3.89 40.457 40.457 0 0 1-6.924-5.695" stroke="#31333A" stroke-linecap="round" stroke-linejoin="round"/><path d="m108.577 112.256-5.496-12.102 10.439-4.518 4.671 8.376" fill="#fff"/><path d="M102.109 113.9c7.897 1.524 13.068-10.182 13.068-10.182l-9.177.856-2.287 2.726.356.838" fill="#DCDDDD"/><path d="m108.577 112.256-5.496-12.102 10.439-4.518 4.671 8.376" stroke="#31333A" stroke-linecap="round" stroke-linejoin="round"/><path d="M116.328 92.488 99.5 100.625l-3.551-7.512a2.564 2.564 0 0 1 1.161-3.41l12.313-5.954a2.512 2.512 0 0 1 3.353 1.227l3.552 7.512Z" fill="#31333A"/><path d="M111.561 105.576a7.473 7.473 0 0 1-5.756.017 7.46 7.46 0 0 1-2.439-1.632 7.464 7.464 0 0 1-1.624-2.445l-4.626-10.895 13.678-5.92 4.626 10.895a7.606 7.606 0 0 1-3.859 9.98Z" fill="#fff" stroke="#31333A" stroke-linecap="round" stroke-linejoin="round"/><path d="M105.437 77.183a5.51 5.51 0 0 0-2.755 5.756c-3.91 4.35-11.177 3.77-6.733 10.174l1.692 2.064c-.94-7.829 6.885-.492 9.374-7.115a5.324 5.324 0 0 1 2.619-2.816c.171-.086.34-.182.507-.286 2.58-1.608 3.618-4.653 2.319-6.8-1.299-2.147-4.443-2.585-7.023-.977ZM115.464 94.277l-.852-.489c.882 8.909-1.324 3.332-5.726 5.486-4.58 1.734-2.102 7.192-7.884.404l-.237.96a8.76 8.76 0 0 0 8.357 6.464 6.316 6.316 0 0 0 5.217-2.257 8.88 8.88 0 0 0 1.125-10.568Z" fill="#31333A"/><path d="M100.818 95.677c-7.843-2.249-3.557 7.988 2.263 4.477l-2.263-4.477Z" fill="#fff"/><path d="M100.818 95.677c-7.843-2.249-3.557 7.988 2.263 4.477" stroke="#31333A" stroke-linecap="round" stroke-linejoin="round"/><path d="M111.869 90.894c3.794-7.285 8.182 2.907 1.651 4.742l-1.651-4.742Z" fill="#fff"/><path d="M111.869 90.894c3.794-7.285 8.182 2.907 1.651 4.742" stroke="#31333A" stroke-linecap="round" stroke-linejoin="round"/><path d="M105.07 93.608a7.51 7.51 0 0 0-3.499 1.243l3.499-1.243Z" fill="#fff"/><path d="M105.07 93.608a7.51 7.51 0 0 0-3.499 1.243" stroke="#31333A" stroke-linecap="round" stroke-linejoin="round"/><path d="M104.689 97.248a.693.693 0 0 1-.862-.407l-.328-.93a.64.64 0 0 1 .043-.498.627.627 0 0 1 .39-.311.693.693 0 0 1 .862.407l.328.93a.64.64 0 0 1-.043.497.626.626 0 0 1-.39.312Z" fill="#31333A"/><path d="M107.533 92.843a7.524 7.524 0 0 1 3.598-.963l-3.598.963Z" fill="#fff"/><path d="M107.533 92.843a7.524 7.524 0 0 1 3.598-.963" stroke="#31333A" stroke-linecap="round" stroke-linejoin="round"/><path d="M110.152 95.55a.628.628 0 0 0 .463-.555.639.639 0 0 0-.03-.254l-.328-.93a.693.693 0 0 0-.862-.406.628.628 0 0 0-.463.556.64.64 0 0 0 .03.253l.328.93a.693.693 0 0 0 .862.406Z" fill="#31333A"/><path d="m107.037 95.327.444 1.261s-.684 1.278.508 1.44" fill="#fff"/><path d="m107.037 95.327.444 1.261s-.684 1.278.508 1.44" stroke="#31333A" stroke-linecap="round" stroke-linejoin="round"/><path d="m180.139 148.532-33.16-23.523 16.826-14.174 19.14 15.592c7.46 6.077 5.916 18.248-2.806 22.105Z" fill="#fff"/><path opacity=".34" d="M172.718 108.601c1.149 19.904-18.22 19.988-18.22 19.988l1.558-9.624 11.712-9.572" fill="url(#b)"/><path d="M178.428 117.369c-6.026 7.268-19.29 15.006-19.29 15.006l8.211-18.653" fill="#DCDDDD"/><path d="m180.139 148.532-33.16-23.523 16.826-14.174 19.14 15.592c7.46 6.077 5.916 18.248-2.806 22.105h0Z" stroke="#31333A" stroke-linecap="round" stroke-linejoin="round"/><path d="M139.733 119.518c5.02 8.951 16.826 15.716 16.826 15.716 18.668-11.949 15.092-20.033 15.092-20.033s-19.064-20.69-31.688-18.483" fill="#B5B5B6"/><path d="M139.733 119.518c5.02 8.951 16.826 15.716 16.826 15.716 18.668-11.949 15.092-20.033 15.092-20.033s-19.064-20.69-31.688-18.483" stroke="#31333A" stroke-linecap="round" stroke-linejoin="round"/><path d="m127.81 141.992-6.455 3.95a1.224 1.224 0 0 1-1.494-.112 1.226 1.226 0 0 1-.311-.433l-6.84-14.889a1.641 1.641 0 0 1 .622-2.032l6.454-3.95a1.232 1.232 0 0 1 1.806.546l6.839 14.889a1.635 1.635 0 0 1-.621 2.031Z" fill="#fff" stroke="#31333A" stroke-linecap="round" stroke-linejoin="round"/><path d="m118.49 132.877-1.958 1.199a.885.885 0 0 1-.747.107.892.892 0 0 1-.563-.503l-.955-2.079a1.188 1.188 0 0 1 .451-1.474l1.958-1.198a.912.912 0 0 1 .362-.137.895.895 0 0 1 .948.533l.955 2.079a1.19 1.19 0 0 1-.451 1.473Z" fill="#fff" stroke="#31333A" stroke-linecap="round" stroke-linejoin="round"/><path d="M182.957 146.824a6.127 6.127 0 0 1-4.522 1.7l-44.225-2.271s-6.038.623-6.81.727a40.824 40.824 0 0 1-6.356-.623 2.006 2.006 0 0 1-1.68-2.547c-1.861 0-1.543-2.494-1.543-2.494-3.814.208-3.042-2.65-2.588-2.754.454-.105 7.673-1.663 8.944-2.235 1.271-.571-.636-2.65-.636-2.65-5.312-1.455-3.223-3.741-2.86-3.741.364 0 3.451.467 4.041.571.59.104 7.855 7.379 8.672 7.379.478 0 17.822-1.83 32.123-3.348" fill="#fff"/><path d="M182.957 146.824a6.127 6.127 0 0 1-4.522 1.7l-44.225-2.271s-6.038.623-6.81.727a40.824 40.824 0 0 1-6.356-.623 2.006 2.006 0 0 1-1.68-2.547c-1.861 0-1.543-2.494-1.543-2.494-3.814.208-3.042-2.65-2.588-2.754.454-.105 7.673-1.663 8.944-2.235 1.271-.571-.636-2.65-.636-2.65-5.312-1.455-3.223-3.741-2.86-3.741.364 0 3.451.467 4.041.571.59.104 7.855 7.379 8.672 7.379.478 0 17.822-1.83 32.123-3.348M176.517 117.312l14.2.126M123.4 140.261l-5.579 1.055M122.522 143.362l-3.158.448M212.587 99.647l3.257 7.042" stroke="#31333A" stroke-linecap="round" stroke-linejoin="round"/><path d="M172.65 61.647a18.894 18.894 0 0 1-7.814 15.32 18.883 18.883 0 0 1-16.995 2.636l-11.907 3.675a1.608 1.608 0 0 1-1.938-2.207l4.057-8.87a18.903 18.903 0 0 1-2.128-16.882 18.908 18.908 0 0 1 36.725 6.328Z" fill="#fff"/><path d="M172.65 61.647a18.894 18.894 0 0 1-7.814 15.32 18.883 18.883 0 0 1-16.995 2.636l-11.907 3.675a1.608 1.608 0 0 1-1.938-2.207l4.057-8.87a18.903 18.903 0 0 1-2.128-16.882 18.908 18.908 0 0 1 36.725 6.328Z" stroke="#31333A" stroke-linecap="round" stroke-linejoin="round"/><path d="M154.308 59.171a7.6 7.6 0 0 0 1.257-1.288c.285-.42.429-.921.41-1.43a2.471 2.471 0 0 0-.684-1.787 2.606 2.606 0 0 0-1.978-.715 2.942 2.942 0 0 0-3.06 2.431l-2.936-1.311a5.108 5.108 0 0 1 2.164-2.956 7.467 7.467 0 0 1 4.106-1.025c1.1-.02 2.191.2 3.197.644a5.208 5.208 0 0 1 2.19 1.787c.523.765.797 1.672.784 2.599a4.979 4.979 0 0 1-.423 2.121 5.915 5.915 0 0 1-1.083 1.597c-.44.462-1.107 1.082-2.003 1.86a3.516 3.516 0 0 0-.97 1.37 5.718 5.718 0 0 0-.298 2.015h-3.085c-.035-1.091.1-2.18.398-3.23a4.9 4.9 0 0 1 1.393-2.11l.621-.572Zm-.821 8.033a2.151 2.151 0 0 1 1.555.56 2.19 2.19 0 0 1 0 2.98 2.437 2.437 0 0 1-3.11 0 2.19 2.19 0 0 1 0-2.98 2.16 2.16 0 0 1 1.555-.56Z" fill="#fff" stroke="#31333A" stroke-linecap="round" stroke-linejoin="round"/><path d="m137.977 67.043 3.029 1.984-3.029-1.984ZM162.972 52.802l.684.464-.684-.464Z" fill="#31333A"/><path d="M170.885 82.56a5.387 5.387 0 1 0-.001-10.772 5.387 5.387 0 0 0 .001 10.773ZM258.987 69.46l9.089-3.313M254.442 77.43l9.09-3.314" stroke="#3351E5" stroke-width="2" stroke-linecap="round" stroke-linejoin="round"/><defs><linearGradient id="a" x1="245.224" y1="113.663" x2="221.882" y2="122.894" gradientUnits="userSpaceOnUse"><stop offset=".101" stop-color="#FF7638"/><stop offset=".885" stop-color="#FF3929"/></linearGradient><linearGradient id="b" x1="154.498" y1="118.595" x2="172.767" y2="118.595" gradientUnits="userSpaceOnUse"><stop offset=".101" stop-color="#FF7638"/><stop offset=".885" stop-color="#FF3929"/></linearGradient></defs></svg>