<svg viewBox="0 0 400 300" fill="none" xmlns="http://www.w3.org/2000/svg"><path opacity=".27" d="M199.701 266.428c67.002 0 121.318-54.316 121.318-121.318S266.703 23.792 199.701 23.792 78.383 78.108 78.383 145.11 132.699 266.428 199.7 266.428Z" fill="#D6DCED"/><path d="M206.683 74.002H71.158a5.553 5.553 0 0 0-5.553 5.553v185.23a5.553 5.553 0 0 0 5.553 5.553h135.525a5.552 5.552 0 0 0 5.552-5.553V79.555a5.552 5.552 0 0 0-5.552-5.553Z" fill="#5578EC"/><path d="M206.683 74.002H71.158a5.553 5.553 0 0 0-5.553 5.553v185.23a5.553 5.553 0 0 0 5.553 5.553h135.525a5.552 5.552 0 0 0 5.552-5.553V79.555a5.552 5.552 0 0 0-5.552-5.553Z" stroke="#31333A" stroke-linecap="round" stroke-linejoin="round"/><path d="M196.854 90.13H80.988a2.748 2.748 0 0 0-2.748 2.749V197.34a2.748 2.748 0 0 0 2.748 2.748h115.866a2.748 2.748 0 0 0 2.748-2.748V92.879a2.748 2.748 0 0 0-2.748-2.748Z" fill="#fff"/><path d="M196.854 90.13H80.988a2.748 2.748 0 0 0-2.748 2.749V197.34a2.748 2.748 0 0 0 2.748 2.748h115.866a2.748 2.748 0 0 0 2.748-2.748V92.879a2.748 2.748 0 0 0-2.748-2.748Z" stroke="#31333A" stroke-linecap="round" stroke-linejoin="round"/><path d="M181.536 219.734H92.79a5.576 5.576 0 0 0 0 11.152h88.746a5.576 5.576 0 0 0 0-11.152ZM154.294 236.777H92.79a5.576 5.576 0 0 0 0 11.152h61.504a5.576 5.576 0 0 0 0-11.152Z" fill="#fff" stroke="#31333A" stroke-linecap="round" stroke-linejoin="round"/><path d="m172.086 181.581-8.922-64.726a2.91 2.91 0 0 0-3.008-2.295h-42.472a2.908 2.908 0 0 0-3.007 2.295l-8.923 64.725a2.788 2.788 0 0 0 1.843 2.756c.373.133.77.184 1.165.151h23.37a2.878 2.878 0 0 0 3.021-2.424l3.111-39.211a.733.733 0 0 1 1.434.001l2.995 39.205a2.874 2.874 0 0 0 3.022 2.43h23.363a2.78 2.78 0 0 0 3.008-2.907ZM117.953 110.22h41.74a2.244 2.244 0 1 0 0-4.489h-41.74a2.245 2.245 0 0 0 0 4.489Z" fill="#3351E5"/><path d="M272.15 44.633c2.996-8.215-2.616-17.808-12.536-21.427-9.92-3.619-20.391.107-23.388 8.321-2.996 8.215 2.616 17.808 12.536 21.427 9.92 3.619 20.391-.107 23.388-8.321Z" fill="#31333A"/><path d="M242.573 48.876c-.88-.87-1.65-1.844-2.294-2.9l-2.363 2.363a15.96 15.96 0 0 0 5.194 5.194l2.363-2.364a15.16 15.16 0 0 1-2.9-2.293Z" fill="#DCDDDD" stroke="#31333A" stroke-linecap="round" stroke-linejoin="round"/><path d="m214.482 274.048 3.302-4.64s-6.782 2.397 2.186-1.429c2.242-.956 6.448-3.447 6.448-3.447s-2.018-17.385-3.491-19.943l15.113-1.082.315 28.854-17.895 4.605-5.978-2.918Z" fill="#fff"/><path d="m223.593 255.984 22.271 7.115-9.248-18.271-15.033 10.511" fill="#DCDDDD"/><path d="m214.482 274.048 3.302-4.64s-6.782 2.397 2.186-1.429c2.242-.956 6.448-3.447 6.448-3.447s-2.018-17.385-3.491-19.943l15.113-1.082.315 28.854-17.895 4.605-5.978-2.918Z" stroke="#31333A" stroke-linecap="round" stroke-linejoin="round"/><path d="m239.935 274.936-35.637 6.74c-2.422-8.202 14.787-13.512 14.787-13.512s4.188 5.549 4.098 8.619l16.369-3.741a.95.95 0 0 1 .797.197c.11.091.197.205.256.335.06.129.089.27.086.413a.961.961 0 0 1-.756.949Z" fill="#fff"/><path d="M205.359 285.847c5.243 0 9.494-3.368 9.494-7.523 0-4.155-4.251-7.523-9.494-7.523-5.244 0-9.494 3.368-9.494 7.523 0 4.155 4.25 7.523 9.494 7.523Z" fill="#fff" stroke="#31333A" stroke-linecap="round" stroke-linejoin="round"/><path d="m239.935 274.936-35.637 6.74c-2.422-8.202 14.787-13.512 14.787-13.512s4.188 5.549 4.098 8.619l16.369-3.741a.95.95 0 0 1 .797.197c.11.091.197.205.256.335.06.129.089.27.086.413v0a.961.961 0 0 1-.756.949Z" stroke="#31333A" stroke-linecap="round" stroke-linejoin="round"/><path d="m325.095 257.554-5.43-1.308s6.661-2.735-2.56.383c-2.305.779-7.069 1.712-7.069 1.712s-9.41-14.563-9.902-17.495l-12.162 9.328 17.924 22.133 16.494-8.521 2.705-6.232Z" fill="#fff"/><path d="m304.258 248.033-12.441 20.365-4.476-20.093 18.038-2.112" fill="#DCDDDD"/><path d="m325.095 257.554-5.43-1.308s6.661-2.735-2.56.383c-2.305.779-7.069 1.712-7.069 1.712s-9.41-14.563-9.902-17.495l-12.162 9.328 17.924 22.133 16.494-8.521 2.705-6.232Z" stroke="#31333A" stroke-linecap="round" stroke-linejoin="round"/><path d="m306.316 275.326 31.317-18.816c-3.323-7.859-19.74-.333-19.74-.333s.312 7.028 2.313 9.3l-14.791 8.152a.994.994 0 0 0-.48.679.984.984 0 0 0 .21.804.915.915 0 0 0 1.171.214Z" fill="#fff"/><path d="M339.881 259.994c3.818-3.707 4.601-9.093 1.749-12.031-2.852-2.937-8.259-2.314-12.077 1.393-3.818 3.707-4.601 9.093-1.749 12.03 2.852 2.938 8.259 2.314 12.077-1.392Z" fill="#fff" stroke="#31333A" stroke-linecap="round" stroke-linejoin="round"/><path d="m306.316 275.326 31.317-18.816c-3.323-7.859-19.74-.333-19.74-.333s.312 7.028 2.313 9.3l-14.791 8.152a.994.994 0 0 0-.48.679.984.984 0 0 0 .21.804v0a.915.915 0 0 0 1.171.214v0Z" stroke="#31333A" stroke-linecap="round" stroke-linejoin="round"/><path d="M221.583 255.34c8.357 3.685 37.49-.92 39.176-5.897l-26.898-63.256 6.831-67.403-31.564.148-.924 68.204 13.379 68.204Z" fill="#fff"/><path d="M248.735 172.104s3.544 33.925-7.803 25.615c-20.029-14.668-23.641-59.649-23.641-59.649" fill="#DCDDDD"/><path d="M213.206 247.335c24.97 10.074 48.727-5.366 48.727-5.366l-48.727 5.366Z" fill="#fff"/><path d="M213.206 247.335c24.97 10.074 48.727-5.366 48.727-5.366" stroke="#31333A" stroke-linecap="round" stroke-linejoin="round"/><path d="M221.583 255.34c8.357 3.685 37.49-.92 39.176-5.897l-26.898-63.256 6.831-67.403-31.564.148-.924 68.204 13.379 68.204Z" stroke="#31333A" stroke-linecap="round" stroke-linejoin="round"/><path d="M217.881 143.279c8.546 20.454 21.394 47.931 21.394 47.931l40.71 64.13c33.191 0 31.075-16.952 31.075-16.952l-48.115-58.007s-18.811-59.068-22.057-61.188c-3.245-2.12-29.065-2.339-30.412 2.602" fill="#fff"/><path d="M212.879 125.138c3.077 6.064 33.274 12.573 45.239 13.648 11.965 1.075-14.219-23.146-14.219-23.146" fill="#DCDDDD"/><path d="M272.338 249.66c14.219 3.228 29.116 1.616 38.749-17.55l-38.749 17.55Z" fill="#fff"/><path d="M272.338 249.66c14.219 3.228 29.116 1.616 38.749-17.55" stroke="#31333A" stroke-linecap="round" stroke-linejoin="round"/><path d="m240.392 127.481 17.726 55.485 49.422 57.384" stroke="#31333A" stroke-linecap="round" stroke-linejoin="round"/><path d="M237.687 131.453c1.397 18.918 8.864 12.676 8.864 12.676" stroke="#31333A" stroke-linecap="round" stroke-linejoin="round"/><path d="M217.881 143.279c8.546 20.454 21.394 47.931 21.394 47.931l40.71 64.13c33.191 0 31.075-16.952 31.075-16.952l-48.115-58.007s-18.811-59.068-22.057-61.188c-3.245-2.12-29.065-2.339-30.412 2.602" stroke="#31333A" stroke-linecap="round" stroke-linejoin="round"/><path d="m192.326 98.778-10.68 11.271s-21.757-23.866-22.77-24.17c-2.055-.616-7.112-.834-7.53-1.158 0 0-1.483 2.27 3.036 3.153 0 0-2.834 1.03-2.945 1.054-1.238.282-7.069-2.937-7.364-.35l2.496 1.266s-5.944-1.132-4.829 1.138c0 0 6.4 2.356 7.235 2.401.834.045 9.044-1.318 9.044-1.318l20.592 32.784c5.202 7.164 15.594-4.712 15.594-4.712l-1.879-21.359Z" fill="#fff"/><path d="M185.764 104.718c-4.118 5.331 1.719 33.397 1.719 33.397l8.324-14.451-3.006-7.168" fill="#DCDDDD"/><path d="m192.326 98.778-10.68 11.271s-21.757-23.866-22.77-24.17c-2.055-.616-7.112-.834-7.53-1.158 0 0-1.483 2.27 3.036 3.153 0 0-2.834 1.03-2.945 1.054-1.238.282-7.069-2.937-7.364-.35l2.496 1.266s-5.944-1.132-4.829 1.138c0 0 6.4 2.356 7.235 2.401.834.045 9.044-1.318 9.044-1.318l20.592 32.784c5.202 7.164 15.594-4.712 15.594-4.712l-1.879-21.359Z" stroke="#31333A" stroke-linecap="round" stroke-linejoin="round"/><path d="M184.881 105.719s-3.657 8.697 11.568 21.991l36.285-32.172-12.765-21.294h-3.494a8.504 8.504 0 0 0-6.377 2.879l-25.217 28.596Z" fill="#B5B5B6"/><path d="M212.236 93.315s-6.898 12.511-7.725 37.685c-.827 25.174 19.079-14.526 19.079-14.526" fill="#31333A"/><path d="M184.881 105.719s-3.657 8.697 11.568 21.991l36.285-32.172-12.765-21.294h-3.494a8.504 8.504 0 0 0-6.377 2.879l-25.217 28.596Z" stroke="#31333A" stroke-linecap="round" stroke-linejoin="round"/><path d="M211.745 89.183c-2.351 7.414-4.106 18.011-3.372 32.696 21.47 15.989 39.048 6.093 39.048 6.093s-4.858-29.727 8.6-41.134c0 0-11.148-12.622-36.052-12.594" fill="#B5B5B6"/><path d="M238.737 81.616c6.121-2.738 9.84-7.736 8.306-11.163-1.533-3.428-7.737-3.987-13.858-1.249-6.12 2.739-9.839 7.737-8.306 11.164 1.533 3.427 7.738 3.986 13.858 1.248Z" fill="#fff" stroke="#31333A" stroke-linecap="round" stroke-linejoin="round"/><path d="M240.489 102.621s4.687 20.61 8.271 25.089c3.584 4.478 1.654-17.491 1.654-17.491" fill="#31333A"/><path d="M211.745 89.183c-2.351 7.414-4.106 18.011-3.372 32.696 21.47 15.989 39.048 6.093 39.048 6.093s-4.858-29.727 8.6-41.134c0 0-11.148-12.622-36.052-12.594" stroke="#31333A" stroke-linecap="round" stroke-linejoin="round"/><path d="m239.642 78.042-.742-16.871-10.18 2.164c1.306 2.519-.872 8.766-2.005 12.043" fill="#fff"/><path d="m233.494 67.38-6.296 6.864-.141-7.537 3.014-.539" fill="#DCDDDD"/><path d="m239.642 78.042-.742-16.871-10.18 2.164c1.306 2.519-.872 8.766-2.005 12.043" stroke="#31333A" stroke-linecap="round" stroke-linejoin="round"/><path d="M245.238 60.785c1.821-4.99-1.618-10.829-7.681-13.04-6.062-2.212-12.453.04-14.273 5.03-1.821 4.991 1.618 10.83 7.68 13.041 6.063 2.212 12.453-.04 14.274-5.031Z" fill="#31333A"/><path d="M228.956 50.22c-14.086 14.81-2.429 22.89 4.538 17.16l3.997-8.003-8.535-9.157Z" fill="#fff" stroke="#31333A" stroke-linecap="round" stroke-linejoin="round"/><path d="m233.486 49.17-4.329-1.578s-7.865 10.196 6.847 15.612l4.048-4.278-6.566-9.755Z" fill="#31333A"/><path d="M232.92 61.975c10.496-2.321 6.919 6.952-1.037 5.217l1.037-5.217Z" fill="#fff"/><path d="M232.92 61.975c10.496-2.321 6.919 6.952-1.037 5.217" stroke="#31333A" stroke-linecap="round" stroke-linejoin="round"/><path d="M236.493 69.503a1.886 1.886 0 1 0 0-3.772 1.886 1.886 0 0 0 0 3.772Z" fill="#fff" stroke="#31333A" stroke-linecap="round" stroke-linejoin="round"/><path d="M225.961 58.222c-.018.099-1.25 1.959-1.25 1.959-2.273-.226-.39 1.592-.39 1.592" fill="#fff"/><path d="M225.961 58.222c-.018.099-1.25 1.959-1.25 1.959-2.273-.226-.39 1.592-.39 1.592" stroke="#31333A" stroke-linecap="round" stroke-linejoin="round"/><path d="M223.705 59.06a.584.584 0 0 1-.277-.757l.22-.482a.55.55 0 0 1 .315-.285.539.539 0 0 1 .424.031.582.582 0 0 1 .276.757l-.22.483a.547.547 0 0 1-.315.284.539.539 0 0 1-.423-.031Z" fill="#31333A"/><path d="M223.192 55.941a8.527 8.527 0 0 1 2.473 1.119l-2.473-1.119Z" fill="#fff"/><path d="M223.192 55.941a8.527 8.527 0 0 1 2.473 1.119" stroke="#31333A" stroke-linecap="round" stroke-linejoin="round"/><path d="M227.042 60.435a.582.582 0 0 1-.277-.757l.221-.482a.533.533 0 0 1 .315-.285.539.539 0 0 1 .423.031.58.58 0 0 1 .277.757l-.221.482a.532.532 0 0 1-.315.285.538.538 0 0 1-.423-.031Z" fill="#31333A"/><path d="M227.38 57.532a5.217 5.217 0 0 1 2.473 1.119l-2.473-1.119Z" fill="#fff"/><path d="M227.38 57.532a5.217 5.217 0 0 1 2.473 1.119M237.507 63.413l-2.661.607M236.823 64.768l-.375-.984" stroke="#31333A" stroke-linecap="round" stroke-linejoin="round"/><path d="m259.762 102.134 8.235 13.578s27.31-17.994 28.399-18.044c2.212-.103 7.36.91 7.854.695 0 0 .986 2.574-3.77 2.338 0 0 2.626 1.691 2.732 1.743 1.185.574 7.789-1.151 7.505 1.443l-2.802.63s6.25.336 4.614 2.28c0 0-6.984.745-7.836.587-.851-.158-8.823-3.478-8.823-3.478l-28.658 25.806c-6.857 5.723-14.149-7.209-14.149-7.209l6.699-20.369Z" fill="#fff"/><path d="M266.558 112.913c-.116 7.977-7.63 23.237-7.63 23.237l-4.509-10.289" fill="#DCDDDD"/><path d="m259.762 102.134 8.235 13.578s27.31-17.994 28.399-18.044c2.212-.103 7.36.91 7.854.695 0 0 .986 2.574-3.77 2.338 0 0 2.626 1.691 2.732 1.743 1.185.574 7.789-1.151 7.505 1.443l-2.802.63s6.25.336 4.614 2.28c0 0-6.984.745-7.836.587-.851-.158-8.823-3.478-8.823-3.478l-28.658 25.806c-6.857 5.723-14.149-7.209-14.149-7.209l6.699-20.369Z" stroke="#31333A" stroke-linecap="round" stroke-linejoin="round"/><path d="M255.407 86.213c2.554 1.968 12.226 27.906 12.226 27.906s-6.5 16.56-14.007 17.694L239.563 104.3" fill="#B5B5B6"/><path d="M255.407 86.213c2.554 1.968 12.226 27.906 12.226 27.906s-6.5 16.56-14.007 17.694L239.563 104.3M158.492 90.129l-.473 1.936M150.067 90.476l-3.498-.631M305.312 104.522l2.604-.004M295.947 102.311l-.077 1.595" stroke="#31333A" stroke-linecap="round" stroke-linejoin="round"/><path d="M225.808 63.413s.465-1.64 2.809-.927l-2.809.927Z" fill="#fff"/><path d="M225.808 63.413s.465-1.64 2.809-.927" stroke="#31333A" stroke-linecap="round" stroke-linejoin="round"/><path d="M186.543 64.198a5.387 5.387 0 1 0-.001-10.773 5.387 5.387 0 0 0 .001 10.773ZM280.661 174.293l9.089-3.314M276.116 182.261l9.089-3.313" stroke="#3351E5" stroke-width="2" stroke-linecap="round" stroke-linejoin="round"/></svg>