<svg viewBox="0 0 400 300" fill="none" xmlns="http://www.w3.org/2000/svg"><path opacity=".1" d="M202.439 273.292c67.002 0 121.318-54.316 121.318-121.318S269.441 30.656 202.439 30.656 81.121 84.972 81.121 151.974s54.316 121.318 121.318 121.318Z" fill="#5578EC"/><path d="M252.71 130.6 246 142.527l-22.476-22.729 13.215-12.178 15.971 22.98Z" fill="#fff"/><path d="M237.061 145.602c6.271-9.573 5.814-22.273 5.814-22.273l-16.002 15.237" fill="#DCDDDD"/><path d="M252.71 130.6 246 142.527l-22.476-22.729 13.215-12.178 15.971 22.98Z" stroke="#31333A" stroke-linecap="round" stroke-linejoin="round"/><path d="m254.439 151.975-9.686-9.287 6.875-16.036s5.521 10.635 17.142-.107c12.563-11.613 14.59-4.975 14.59-4.975l-28.921 30.405Z" fill="#fff"/><path d="m251.443 152.822 36.043-39.03" stroke="#31333A" stroke-linecap="round" stroke-linejoin="round"/><path d="M253.127 142.588c1.849 0 3.347-1.548 3.347-3.458 0-1.91-1.498-3.458-3.347-3.458s-3.347 1.548-3.347 3.458c0 1.91 1.498 3.458 3.347 3.458Z" fill="#fff" stroke="#31333A" stroke-linecap="round" stroke-linejoin="round"/><path d="m255.247 133.033 1.746-10.317 5.355 3.608-3.346 9.42" fill="#fff"/><path d="m255.247 133.033 1.746-10.317 5.355 3.608-3.346 9.42" stroke="#31333A" stroke-linecap="round" stroke-linejoin="round"/><path d="m254.439 151.975-9.686-9.287 6.875-16.036s5.521 10.635 17.142-.107c12.563-11.613 14.59-4.975 14.59-4.975l-28.921 30.405Z" stroke="#31333A" stroke-linecap="round" stroke-linejoin="round"/><path d="M186.756 49.233c-2.845-5.096-4.562-15.063-4.959-15.66-.861-1.299-10.733-6.427-11.759-6.365-1.026.061-1.383 1.353 4.436 5.767 0 0-2.62 1.93-2.242 2.993.205.577 7.477 15.918 7.477 15.918l7.047-2.653Z" fill="#fff"/><path d="M167.845 48.658c8.893-10.144 15.536-8.855 15.536-8.855l.606 7.38-17.95 2.707" fill="#DCDDDD"/><path d="M186.756 49.233c-2.845-5.096-4.562-15.063-4.959-15.66-.861-1.299-10.733-6.427-11.759-6.365-1.026.061-1.383 1.353 4.436 5.767 0 0-2.62 1.93-2.242 2.993.205.577 7.477 15.918 7.477 15.918l7.047-2.653Z" stroke="#31333A" stroke-linecap="round" stroke-linejoin="round"/><path d="m134.909 40.696-.64-3.645s-9.995-6.058-12.668 7.401c-2.672 13.46 5.449 13.146-1.028 19.093-6.476 5.947-13.877 14.085-6.63 18.78 7.248 4.695 37.162-2.973 37.162-2.973l-5.397-20.155-10.799-18.501Z" fill="#31333A"/><path d="m127.717 39.33-4.675 11.381a7.16 7.16 0 0 0 .082 5.739 7.16 7.16 0 0 0 4.271 3.832l4.024 1.244a1.5 1.5 0 0 0 1.866-1.009l5.978-18.941a1.558 1.558 0 0 0-1.242-2.028l-8.725-1.154a1.502 1.502 0 0 0-1.579.937Z" fill="#fff" stroke="#31333A" stroke-linecap="round" stroke-linejoin="round"/><path d="M132.65 37.473c-10.666 13.691 12.605 13.788 5.171 30.082-7.433 16.293-5.442 24.011 15.622 14.654 14.761-6.556-7.649-50.81-20.793-44.736Z" fill="#31333A"/><path d="M124.655 45.92c1.75-4.363 4.84-5.925 7.722-5.544 2.881.38 2.132-2.133 2.132-2.133l-5.118-1.049a10.55 10.55 0 0 0-4.736 8.726Z" fill="#31333A"/><path d="m126.434 59.92-1.796 14.403 12.053-1.205-.804-18.166" fill="#fff"/><path d="m123.605 68.034 8.671-6.626-5.821-1.639a50.688 50.688 0 0 0-2.85 8.265Z" fill="#DCDDDD"/><path d="m126.434 59.92-1.796 14.403 12.053-1.205-.804-18.166" stroke="#31333A" stroke-linecap="round" stroke-linejoin="round"/><path d="M132.001 53.017a5.3 5.3 0 0 1 1.379-1.343c1.866-1.258 4.104-1.131 4.999.285.894 1.415.106 3.583-1.76 4.842-.385.26-.802.47-1.24.621" fill="#fff"/><path d="M132.001 53.017a5.3 5.3 0 0 1 1.379-1.343c1.866-1.258 4.104-1.131 4.999.285.894 1.415.106 3.583-1.76 4.842-.385.26-.802.47-1.24.621" stroke="#31333A" stroke-linecap="round" stroke-linejoin="round"/><path d="M126.556 47.263c.009.12-.813 2.659-.813 2.659-2.619.443.04 1.967.04 1.967" fill="#fff"/><path d="M126.556 47.263c.009.12-.813 2.659-.813 2.659-2.619.443.04 1.967.04 1.967" stroke="#31333A" stroke-linecap="round" stroke-linejoin="round"/><path d="M124.275 48.937a.697.697 0 0 1-.538-.792l.103-.628a.623.623 0 0 1 .497-.524.63.63 0 0 1 .255.001.697.697 0 0 1 .538.791l-.102.628a.64.64 0 0 1-.263.425.636.636 0 0 1-.49.099Z" fill="#31333A"/><path d="m122.763 45.48 3.111.529" stroke="#31333A" stroke-linecap="round" stroke-linejoin="round"/><path d="M128.433 49.493a.699.699 0 0 1-.538-.791l.103-.628a.622.622 0 0 1 .497-.524.631.631 0 0 1 .255 0 .697.697 0 0 1 .538.792l-.102.628a.64.64 0 0 1-.263.424.636.636 0 0 1-.49.1Z" fill="#31333A"/><path d="m127.941 46.024 3.111.529" stroke="#31333A" stroke-linecap="round" stroke-linejoin="round"/><path d="m125.373 53.22 2.846-.825c1.399 2.897-2.724 3.546-2.846.826Z" fill="#B5B5B6"/><path d="m135.377 54.277 1.738-1.753M136.437 54.952l-.086-1.552" stroke="#31333A" stroke-linecap="round" stroke-linejoin="round"/><path d="M158.563 65.447c.669-.46 23.111 2.836 23.111 2.836l-7.192-23.04c4.403-5.396 9.696-5.696 9.696-5.696l19.024 36.993c9.377 16.219-13.858 14.188-20.386 15.748l-35.548-1.338 11.295-25.503Z" fill="#DCDDDD"/><path d="M168.507 59.23c3.376-2.675 3.219-8.497-.351-13.005-3.57-4.507-9.202-5.993-12.579-3.318-3.376 2.675-3.22 8.497.351 13.004 3.57 4.508 9.202 5.993 12.579 3.319ZM202.25 111.601c3.377-2.675 3.22-8.497-.35-13.005-3.57-4.507-9.202-5.993-12.579-3.318-3.377 2.675-3.22 8.497.351 13.004 3.57 4.508 9.202 5.993 12.578 3.319ZM163.397 124.424c3.377-2.675 3.22-8.497-.351-13.004-3.57-4.508-9.202-5.993-12.579-3.319-3.376 2.675-3.219 8.497.351 13.005 3.57 4.507 9.202 5.993 12.579 3.318ZM190.039 125.916c3.377-2.675 3.22-8.497-.35-13.004-3.57-4.508-9.202-5.993-12.579-3.319-3.377 2.675-3.22 8.497.35 13.005 3.571 4.507 9.203 5.993 12.579 3.318Z" fill="#fff" stroke="#31333A" stroke-linecap="round" stroke-linejoin="round"/><path d="M158.563 65.447c.669-.46 23.111 2.836 23.111 2.836l-7.192-23.04c4.403-5.396 9.696-5.696 9.696-5.696l19.024 36.993c9.377 16.219-13.858 14.188-20.386 15.748l-35.548-1.338 11.295-25.503Z" stroke="#31333A" stroke-linecap="round" stroke-linejoin="round"/><path d="M309.474 148.377H81.592a4.849 4.849 0 0 0-4.849 4.849v52.403a4.849 4.849 0 0 0 4.849 4.849h227.882a4.849 4.849 0 0 0 4.849-4.849v-52.403a4.849 4.849 0 0 0-4.849-4.849Z" fill="#5578EC"/><path d="M309.474 148.377H81.592a4.849 4.849 0 0 0-4.849 4.849v52.403a4.849 4.849 0 0 0 4.849 4.849h227.882a4.849 4.849 0 0 0 4.849-4.849v-52.403a4.849 4.849 0 0 0-4.849-4.849Z" stroke="#31333A" stroke-linecap="round" stroke-linejoin="round"/><path d="M281.668 164.611H151.766a3.439 3.439 0 0 0-3.438 3.439v2.922a3.438 3.438 0 0 0 3.438 3.438h129.902a3.438 3.438 0 0 0 3.438-3.438v-2.922a3.439 3.439 0 0 0-3.438-3.439ZM194.892 179.428h-43.126a3.438 3.438 0 0 0-3.438 3.438v2.774a3.438 3.438 0 0 0 3.438 3.438h43.126a3.438 3.438 0 0 0 3.438-3.438v-2.774a3.438 3.438 0 0 0-3.438-3.438ZM113.103 191.871a3.61 3.61 0 0 1-2.49-1l-12.447-11.789a3.895 3.895 0 0 1-.226-5.377 3.597 3.597 0 0 1 3.981-1.004c.456.171.872.433 1.224.77l9.916 9.39 17.561-17.205a3.593 3.593 0 0 1 4.043-.714c.443.203.839.495 1.166.856a3.9 3.9 0 0 1-.138 5.381l-20.055 19.647a3.607 3.607 0 0 1-2.535 1.045ZM226.015 153.586c4.206 5.445 25.492-31.708 25.492-31.708l-45.326-43.27a7.64 7.64 0 0 0-5.544-1.86 7.63 7.63 0 0 0-5.232 2.61l-55.845 44.894 34.399 5.524 5.871-.754 22.431-22.272s20.931 43.182 23.754 46.836Z" fill="#fff" stroke="#31333A" stroke-linecap="round" stroke-linejoin="round"/><path d="m217.792 227.032-12.909 3.531-.336-32.491 17.68 1.043-4.435 27.917Z" fill="#fff"/><path d="M196.459 226.207c10.985-2.188 19.355-11.501 19.355-11.501l-21.744-.916" fill="#DCDDDD"/><path d="m217.792 227.032-12.909 3.531-.336-32.491 17.68 1.043-4.435 27.917Z" stroke="#31333A" stroke-linecap="round" stroke-linejoin="round"/><path d="m204.385 243.409-.493-13.643 15.837-6.317s-3.375 11.554 12.195 12.447c16.831.967 13.72 7.141 13.72 7.141l-41.259.372Z" fill="#fff"/><path d="m201.687 241.82 52.198-1.268" stroke="#31333A" stroke-linecap="round" stroke-linejoin="round"/><path d="M212.248 236.827c1.849 0 3.347-1.549 3.347-3.459 0-1.91-1.498-3.458-3.347-3.458s-3.347 1.548-3.347 3.458c0 1.91 1.498 3.459 3.347 3.459Z" fill="#fff" stroke="#31333A" stroke-linecap="round" stroke-linejoin="round"/><path d="m217.921 230.605 8.295-6.02 1.317 6.464-8.813 4.216" fill="#fff"/><path d="m217.921 230.605 8.295-6.02 1.317 6.464-8.813 4.216" stroke="#31333A" stroke-linecap="round" stroke-linejoin="round"/><path d="m204.385 243.409-.493-13.643 15.837-6.317s-3.375 11.554 12.195 12.447c16.831.967 13.72 7.141 13.72 7.141l-41.259.372Z" stroke="#31333A" stroke-linecap="round" stroke-linejoin="round"/><path d="M185.19 209.599c7.91 8.606 40.825 4.589 40.825 4.589l10.339-83.468c.76-6.665-5.336-12.495-13.337-12.753l-76.797.022-17.458 1.596 3.09-6.724c-9.451 19.881-.268 34.864 16.53 35.504l57.328.136s-22.473 58.973-20.52 61.098Z" fill="#fff"/><path d="M99.32 140.467s83.633-21.21 78.777-21.212c-4.855-.003-32.926-6.394-32.926-6.394" fill="#DCDDDD"/><path d="M182.943 199.312c21.375 15.694 59.07 4.276 59.07 4.276l-59.07-4.276Z" fill="#fff"/><path d="M182.943 199.312c21.375 15.694 59.07 4.276 59.07 4.276" stroke="#31333A" stroke-linecap="round" stroke-linejoin="round"/><path d="M142.575 126.291c.299 13.433 52.368 11.307 71.001 10.116a4.529 4.529 0 0 1 3.812 1.817 4.541 4.541 0 0 1 .661 4.171l-19.86 62.207" fill="#fff"/><path d="M142.575 126.291c.299 13.433 52.368 11.307 71.001 10.116a4.529 4.529 0 0 1 3.812 1.817 4.541 4.541 0 0 1 .661 4.171l-19.86 62.207" stroke="#31333A" stroke-linecap="round" stroke-linejoin="round"/><path d="M158.932 123.751a11.314 11.314 0 0 1 1.033 11.912" fill="#fff"/><path d="M158.932 123.751a11.314 11.314 0 0 1 1.033 11.912" stroke="#31333A" stroke-linecap="round" stroke-linejoin="round"/><path d="M185.19 209.599c7.91 8.606 40.825 4.589 40.825 4.589l10.339-83.468c.76-6.665-5.336-12.495-13.337-12.753l-76.797.022-17.458 1.596 3.09-6.724c-9.451 19.881-.268 34.864 16.53 35.504l57.328.136s-22.473 58.973-20.52 61.098Z" stroke="#31333A" stroke-linecap="round" stroke-linejoin="round"/><path d="M157.078 75.913c2.295 3.587 4.944 8.343-.69 12.477 0 0 4.357 17.364 8.65 20.835s-36.984 8.12-36.984 8.12l-11.283-47.117s30.601-7.632 46.106-4.295" fill="#DCDDDD"/><path d="M144.096 76.247c1.927-3.12-1.461-8.706-7.567-12.479-6.107-3.772-12.619-4.302-14.546-1.183-1.927 3.119 1.461 8.706 7.568 12.478 6.106 3.773 12.618 4.303 14.545 1.184ZM119.008 93.822c3.377-2.674 3.22-8.497-.35-13.004-3.571-4.507-9.202-5.993-12.579-3.318-3.377 2.674-3.22 8.497.35 13.004 3.571 4.507 9.202 5.993 12.579 3.318ZM124.215 136.998c3.377-2.675 3.22-8.497-.35-13.004-3.571-4.508-9.202-5.993-12.579-3.319-3.377 2.675-3.22 8.498.35 13.005 3.571 4.507 9.202 5.993 12.579 3.318ZM150.858 138.49c3.377-2.674 3.22-8.497-.351-13.004-3.57-4.507-9.202-5.993-12.578-3.318-3.377 2.674-3.22 8.497.35 13.004 3.57 4.507 9.202 5.993 12.579 3.318Z" fill="#fff" stroke="#31333A" stroke-linecap="round" stroke-linejoin="round"/><path d="M140.805 73.904c1.804-2.675-.891-7.647-6.019-11.107-5.129-3.459-10.749-4.095-12.553-1.42-1.804 2.675.89 7.648 6.019 11.107 5.128 3.46 10.748 4.095 12.553 1.42Z" fill="#fff" stroke="#31333A" stroke-linecap="round" stroke-linejoin="round"/><path d="M157.078 75.913c2.295 3.587 4.944 8.343-.69 12.477 0 0 4.357 17.364 8.65 20.835s-36.984 8.12-36.984 8.12l-11.283-47.117s30.601-7.632 46.106-4.295" stroke="#31333A" stroke-linecap="round" stroke-linejoin="round"/><path d="M155.603 110.942c5.663.612 15.175-1.823 15.864-1.692 1.499.285 10.05 7.514 10.413 8.508.363.994-.634 1.856-6.904-1.84 0 0-.64 3.258-1.734 3.334-.594.042-17.117-.58-17.117-.58l-.522-7.73Z" fill="#fff"/><path d="M161.685 127.806c5.351-12.52 3.353-18.58 3.353-18.58l-8.617 2.746 4.91 18.042" fill="#DCDDDD"/><path d="M155.603 110.942c5.663.612 15.175-1.823 15.864-1.692 1.499.285 10.05 7.514 10.413 8.508.363.994-.634 1.856-6.904-1.84 0 0-.64 3.258-1.734 3.334-.594.042-17.117-.58-17.117-.58l-.522-7.73Z" stroke="#31333A" stroke-linecap="round" stroke-linejoin="round"/><path d="M168.054 118.922h48.726v2.956h-51.635v-.047a2.905 2.905 0 0 1 2.909-2.909Z" fill="#fff" stroke="#31333A" stroke-linecap="round" stroke-linejoin="round"/><path d="M216.536 118.922h-33.593l10.098-28.585a3.586 3.586 0 0 1 3.363-2.43h27.526a2.563 2.563 0 0 1 2.342 3.458l-9.736 27.557ZM128.447 89.336l-1.491 18.438 34.933 2.671s2.403 8.927.902 10.605c-1.501 1.678-50.715 4.856-52.63 2.476-4.298-5.342-3.776-42.364-3.776-42.364a12.665 12.665 0 0 1 10.386-10.935l2.904-.598" fill="#DCDDDD"/><path d="M157.862 81c3.377-2.675 3.22-8.497-.351-13.004-3.57-4.508-9.202-5.993-12.578-3.319-3.377 2.675-3.22 8.497.35 13.005 3.57 4.507 9.202 5.993 12.579 3.318ZM145.651 95.316c3.376-2.675 3.22-8.498-.351-13.005-3.57-4.507-9.202-5.993-12.579-3.318-3.376 2.675-3.22 8.497.351 13.004 3.57 4.508 9.202 5.993 12.579 3.319Z" fill="#fff" stroke="#31333A" stroke-linecap="round" stroke-linejoin="round"/><path d="m128.447 89.336-1.491 18.438 34.933 2.671s2.403 8.927.902 10.605c-1.501 1.678-50.715 4.856-52.63 2.476-4.298-5.342-3.776-42.364-3.776-42.364a12.665 12.665 0 0 1 10.386-10.935l2.904-.598" stroke="#31333A" stroke-linecap="round" stroke-linejoin="round"/><path d="M207.436 105.413c1.711-1.123 2.428-3.055 1.602-4.313-.827-1.258-2.884-1.367-4.595-.243-1.711 1.123-2.428 3.055-1.602 4.313.827 1.258 2.884 1.367 4.595.243Z" fill="#fff" stroke="#31333A" stroke-linecap="round" stroke-linejoin="round"/><path d="m184.312 75.913-2.638-7.63M175.924 33.897l-1.45-.922M172.271 114.25l2.705 1.669" stroke="#31333A" stroke-linecap="round" stroke-linejoin="round"/><path d="m222.227 35.618 3.184 6.667 7.122 1.07-5.153 5.188 1.216 7.328-6.369-3.46-6.37 3.46 1.217-7.328-5.153-5.189 7.121-1.069 3.185-6.667Z" fill="#3351E5"/><path d="m126.95 67.036-1.094.32-.362 1.913 10.128-1.485.512-.067-.091-1.88-1.972-.75" fill="#fff"/><path d="M100.818 127.317a5.386 5.386 0 1 0 0-10.773 5.386 5.386 0 0 0 0 10.773ZM268.991 79.47l9.09-3.313M264.446 87.439l9.09-3.313" stroke="#3351E5" stroke-width="2" stroke-linecap="round" stroke-linejoin="round"/></svg>