<svg viewBox="0 0 400 300" fill="none" xmlns="http://www.w3.org/2000/svg"><path opacity=".1" d="M201.068 271.318c66.761 0 120.881-54.316 120.881-121.318S267.829 28.682 201.068 28.682c-66.76 0-120.88 54.316-120.88 121.318s54.12 121.318 120.88 121.318Z" fill="#5578EC"/><path d="M291.632 77.16H106.753a2.721 2.721 0 0 0-2.721 2.722v133.482a2.72 2.72 0 0 0 2.721 2.721h184.879a2.72 2.72 0 0 0 2.721-2.721V79.882a2.721 2.721 0 0 0-2.721-2.722Z" fill="#fff"/><path d="M306.695 72.049H94.893v24.657h211.802V72.05Z" fill="#DCDDDD"/><path d="M291.632 77.16H106.753a2.721 2.721 0 0 0-2.721 2.722v133.482a2.72 2.72 0 0 0 2.721 2.721h184.879a2.72 2.72 0 0 0 2.721-2.721V79.882a2.721 2.721 0 0 0-2.721-2.722Z" stroke="#31333A" stroke-width=".998" stroke-linecap="round" stroke-linejoin="round"/><path d="M115.396 89.79a3.49 3.49 0 0 0 3.483-3.496 3.49 3.49 0 0 0-3.483-3.495 3.49 3.49 0 0 0-3.483 3.495 3.49 3.49 0 0 0 3.483 3.496ZM125.935 89.79a3.49 3.49 0 0 0 3.483-3.496 3.49 3.49 0 0 0-3.483-3.495 3.49 3.49 0 0 0-3.484 3.495 3.49 3.49 0 0 0 3.484 3.496ZM136.473 89.79a3.49 3.49 0 0 0 3.483-3.496 3.49 3.49 0 0 0-3.483-3.495 3.49 3.49 0 0 0-3.483 3.495 3.49 3.49 0 0 0 3.483 3.496Z" fill="#fff" stroke="#31333A" stroke-width=".998" stroke-linecap="round" stroke-linejoin="round"/><path d="M271.938 107.014H126.447a7.96 7.96 0 0 0-7.96 7.96v78.034a7.96 7.96 0 0 0 7.96 7.96h145.491a7.96 7.96 0 0 0 7.961-7.96v-78.034a7.96 7.96 0 0 0-7.961-7.96Z" fill="#fff"/><path d="M271.938 107.014H126.447a7.96 7.96 0 0 0-7.96 7.96v78.034a7.96 7.96 0 0 0 7.96 7.96h145.491a7.96 7.96 0 0 0 7.961-7.96v-78.034a7.96 7.96 0 0 0-7.961-7.96Z" stroke="#31333A" stroke-width=".998" stroke-linecap="round" stroke-linejoin="round"/><path d="M150.892 180.544a15.849 15.849 0 0 0 5.289 3.219 15.835 15.835 0 0 0 6.117.95" fill="#fff"/><path d="M149.833 181.603a17.511 17.511 0 0 0 12.466 4.608 1.53 1.53 0 0 0 1.497-1.497 1.514 1.514 0 0 0-1.497-1.498 14.442 14.442 0 0 1-10.348-3.731 1.53 1.53 0 0 0-2.118 0 1.514 1.514 0 0 0 0 2.118Z" fill="#31333A"/><path d="M259.519 159.668c30.647 0 55.491-24.934 55.491-55.692s-24.844-55.693-55.491-55.693-55.492 24.934-55.492 55.693c0 30.758 24.845 55.692 55.492 55.692Z" fill="#5578EC" stroke="#31333A" stroke-width=".998" stroke-linecap="round" stroke-linejoin="round"/><path d="m252.468 120.478-16.228-15.144a4.237 4.237 0 0 1-.216-5.975h.001a4.19 4.19 0 0 1 2.93-1.346 4.205 4.205 0 0 1 3.022 1.129l12.121 11.312a1.373 1.373 0 0 0 .985.366 1.365 1.365 0 0 0 .955-.442l20.793-22.673a4.205 4.205 0 0 1 4.549-1.106 4.233 4.233 0 0 1 2.758 3.794 4.233 4.233 0 0 1-1.109 3.037l-24.594 26.815a4.188 4.188 0 0 1-2.935 1.362 4.212 4.212 0 0 1-3.032-1.129Z" fill="#fff" stroke="#31333A" stroke-width=".998" stroke-linecap="round" stroke-linejoin="round"/><path d="m211.88 211.333-5.226-41.153c-1.024-6.389-7.065-16.297-14.371-18.559L174.068 177.6l-5.438 36.71 43.25-2.976v-.001Z" fill="#DCDDDD"/><path d="m211.88 211.333-5.226-41.153c-1.024-6.389-7.065-16.297-14.371-18.559L174.068 177.6l-5.438 36.71 43.25-2.976v-.001Z" stroke="#31333A" stroke-width=".998" stroke-linecap="round" stroke-linejoin="round"/><path d="m189.015 165.981-15.164 49.568-62.882.744 18.354-72.923s42.22-.796 63.969 8.63" fill="#DCDDDD"/><path d="M169.578 160.361c4.884-4.569 3.662-13.811-2.729-20.642-6.391-6.832-15.531-8.666-20.415-4.097-4.884 4.569-3.661 13.811 2.73 20.642 6.391 6.831 15.531 8.666 20.414 4.097Z" fill="#fff" stroke="#31333A" stroke-width=".998" stroke-linecap="round" stroke-linejoin="round"/><path d="M166.926 158.275c5.133-3.819 4.905-12.814-.509-20.091-5.414-7.278-13.964-10.082-19.097-6.263-5.133 3.818-4.905 12.813.509 20.091 5.414 7.277 13.964 10.081 19.097 6.263Z" fill="#fff" stroke="#31333A" stroke-width=".998" stroke-linecap="round" stroke-linejoin="round"/><path d="m189.015 165.981-15.164 49.568-62.882.744 18.354-72.923s42.22-.796 63.969 8.63" stroke="#31333A" stroke-width=".998" stroke-linecap="round" stroke-linejoin="round"/><path d="m150.424 144.91 5.807-17.533 10.686 8.074 1.714 1.004-.566 10.48" fill="#fff"/><path d="M172.288 151.276c-13.035-9.687-9.922-17.155-14.466-22.258-4.545-5.104 14.497 4.894 14.497 4.894l.037 12.594" fill="#DCDDDD"/><path d="m150.424 144.91 5.807-17.533 10.686 8.074 1.714 1.004-.566 10.48" stroke="#31333A" stroke-width=".998" stroke-linecap="round" stroke-linejoin="round"/><path d="m157.822 129.018.244-5.258 5.999-7.615 11.877 3.987c1.603 17.933-5.711 25.039-15.853 15.158" fill="#fff"/><path d="m157.822 129.018.244-5.258 5.999-7.615 11.877 3.987c1.603 17.933-5.711 25.039-15.853 15.158" stroke="#31333A" stroke-width=".998" stroke-linecap="round" stroke-linejoin="round"/><path d="M159.388 128.871c7.277-4.397 5.176-8.812 5.176-8.812 27.162 12.11 23.282-16.088 4.782-8.748 0 0-11.693-4.865-12.49 4.12-12.481 2.79.887 19.399 2.532 13.44Z" fill="#31333A"/><path d="M162.986 126.455c-6.888-6.648-11.786 2.63-2.006 5.714l2.006-5.714Z" fill="#fff"/><path d="M162.986 126.455c-6.888-6.648-11.786 2.63-2.006 5.714" stroke="#31333A" stroke-width=".998" stroke-linecap="round" stroke-linejoin="round"/><path d="M171.4 125.698c-.008.122.888 2.668.888 2.668 2.726.402-.009 1.985-.009 1.985" fill="#fff"/><path d="M171.4 125.698c-.008.122.888 2.668.888 2.668 2.726.402-.009 1.985-.009 1.985" stroke="#31333A" stroke-width=".998" stroke-linecap="round" stroke-linejoin="round"/><path d="M173.795 127.346a.705.705 0 0 0 .545-.807l-.116-.632a.642.642 0 0 0-.285-.426.653.653 0 0 0-.505-.089.706.706 0 0 0-.546.808l.117.631a.654.654 0 0 0 .79.515Z" fill="#31333A"/><path d="m175.308 123.834-3.222.586" stroke="#31333A" stroke-width=".998" stroke-linecap="round" stroke-linejoin="round"/><path d="M169.488 127.98a.706.706 0 0 0 .545-.807l-.117-.632a.656.656 0 0 0-.79-.515.704.704 0 0 0-.545.807l.117.632a.652.652 0 0 0 .284.427.651.651 0 0 0 .506.088Z" fill="#31333A"/><path d="m169.941 124.473-3.221.586" stroke="#31333A" stroke-width=".998" stroke-linecap="round" stroke-linejoin="round"/><path d="m172.492 132.619-4.471-1.181c-2.115 4.437 4.348 5.315 4.471 1.181Z" fill="#B5B5B6"/><path d="m159.984 127.815-1.505-1.474M159.066 128.383l.075-1.305" stroke="#31333A" stroke-width=".998" stroke-linecap="round" stroke-linejoin="round"/><path d="M172.574 216.293h65.877l15.91-39.452c.677-1.677-.312-3.036-2.208-3.036h-59.011a5.363 5.363 0 0 0-4.658 3.036l-15.91 39.452Z" fill="#DCDDDD"/><path d="M146.31 213.2h94.185l-1.591 3.093H141.29l.368-.715a5.568 5.568 0 0 1 2.03-1.767 5.567 5.567 0 0 1 2.622-.611Z" fill="#fff" stroke="#31333A" stroke-width=".998" stroke-linecap="round" stroke-linejoin="round"/><path d="M174.057 216.293h65.877l15.91-39.452c.676-1.677-.312-3.036-2.208-3.036h-59.012a5.366 5.366 0 0 0-4.657 3.036l-15.91 39.452Z" fill="#fff"/><path d="M247.639 203.442c-3.551 8.465-49.271 14.523-49.271 14.523l43.189 4.488" fill="#DCDDDD"/><path d="M174.057 216.293h65.877l15.91-39.452c.676-1.677-.312-3.036-2.208-3.036h-59.012a5.366 5.366 0 0 0-4.657 3.036l-15.91 39.452Z" stroke="#31333A" stroke-width=".998" stroke-linecap="round" stroke-linejoin="round"/><path d="M219.524 197.554c3.177-1.884 4.724-5.144 3.456-7.282-1.268-2.138-4.87-2.344-8.047-.46-3.177 1.884-4.724 5.145-3.456 7.282 1.268 2.138 4.871 2.344 8.047.46Z" fill="#3351E5"/><path d="m135.485 171.813-20.374 30.263-26.342-.994 16.301-43.036c5.898-14.804 24.927-14.685 24.927-14.685" fill="#DCDDDD"/><path d="m135.485 171.813-20.374 30.263-26.342-.994 16.301-43.036c5.898-14.804 24.927-14.685 24.927-14.685" stroke="#31333A" stroke-width=".998" stroke-linecap="round" stroke-linejoin="round"/><path d="M167.756 198.673s-.838 4.325-10.941-3.909c0 0 3.061 7.28-1.714 7.76 0 0-2.845 1.507-4.429 1.018 0 0-3.924 1.763-5.657 1.624 0 0-1.383-2.154 2.247-3.189l-1.104-1.919s-10.037.296-11.54.174l-34.676 14.482a9.187 9.187 0 0 1-12.238-5.551 9.227 9.227 0 0 1 6.917-12.019c13.653-2.715 36.616-7.036 41.53-6.936 5.376.11 16.065-1.998 19.449-1.363 2.831.532 12.156 9.828 12.156 9.828Z" fill="#fff"/><path d="M167.756 198.673s-.838 4.325-10.941-3.909c0 0 3.061 7.28-1.714 7.76 0 0-2.845 1.507-4.429 1.018 0 0-3.924 1.763-5.657 1.624 0 0-1.383-2.154 2.247-3.189l-1.104-1.919s-10.037.296-11.54.174l-34.676 14.482a9.187 9.187 0 0 1-12.238-5.551v0a9.227 9.227 0 0 1 6.917-12.019c13.653-2.715 36.616-7.036 41.53-6.936 5.376.11 16.065-1.998 19.449-1.363 2.831.532 12.156 9.828 12.156 9.828Z" stroke="#31333A" stroke-width=".998" stroke-linecap="round" stroke-linejoin="round"/><path d="M154.091 195.368s1.854 5.292 1.01 7.156l-1.01-7.156Z" fill="#fff"/><path d="M154.091 195.368s1.854 5.292 1.01 7.156M144.693 197.456l1.465 2.603" stroke="#31333A" stroke-width=".998" stroke-linecap="round" stroke-linejoin="round"/><path d="M152.403 174.032s-9.894.115-14.002-1.065c0 0-5.974 12.246 4.574 12.829 10.549.583 9.428-11.764 9.428-11.764Z" fill="#fff" stroke="#31333A" stroke-width=".998" stroke-linecap="round" stroke-linejoin="round"/><path d="M84.416 122.345c2.964 0 5.367-2.412 5.367-5.386 0-2.975-2.403-5.387-5.367-5.387s-5.367 2.412-5.367 5.387c0 2.974 2.403 5.386 5.367 5.386ZM281.877 176.348l9.057-3.313M277.349 184.317l9.057-3.313" stroke="#3351E5" stroke-width="1.996" stroke-linecap="round" stroke-linejoin="round"/></svg>