<svg viewBox="0 0 400 300" fill="none" xmlns="http://www.w3.org/2000/svg"><path opacity=".27" d="M193.825 275.318c67.002 0 121.318-54.316 121.318-121.318S260.827 32.682 193.825 32.682 72.507 86.998 72.507 154s54.316 121.318 121.318 121.318Z" fill="#D6DCED"/><path d="M297.559 227.008 202.396 59.072c-11.637-20.531-30.66-20.531-42.299 0L64.935 227.008c-11.637 20.552-2.116 37.318 21.139 37.318H276.42c23.255 0 32.767-16.766 21.14-37.318h-.001Zm-108.791 7.212h-15.052v-15.052h15.052v15.052Zm0-45.156h-15.052V98.75h15.052v90.314Z" fill="#5578EC" stroke="#31333A" stroke-linecap="round" stroke-linejoin="round"/><path d="m246.648 256.179 11.901 2.69-4.18-28.731-15.489 1.513 7.768 24.528Z" fill="#DCDDDD"/><path d="m246.648 256.179 11.901 2.69-4.18-28.731-15.489 1.513 7.768 24.528Z" stroke="#31333A" stroke-linecap="round" stroke-linejoin="round"/><path d="m260.76 270.207-1.445-12.076-14.875-5.054s4.577 10.1-9.067 11.41c-14.75 1.417-11.149 6.771-11.149 6.771l36.536-1.051Z" fill="#fff"/><path d="m262.927 268.712-46.333.624" stroke="#31333A" stroke-linecap="round" stroke-linejoin="round"/><path d="M254.503 264.042c1.193-1.013 1.229-2.931.081-4.282-1.149-1.352-3.047-1.626-4.24-.613-1.192 1.014-1.229 2.931-.08 4.283 1.148 1.351 3.046 1.626 4.239.612Z" fill="#fff" stroke="#31333A" stroke-linecap="round" stroke-linejoin="round"/><path d="m247.026 259.342-8.164-5.043-.274 5.757 8.374 3.432" fill="#fff"/><path d="m247.026 259.342-8.164-5.043-.274 5.757 8.374 3.432" stroke="#31333A" stroke-linecap="round" stroke-linejoin="round"/><path d="m260.76 270.207-1.445-12.076-14.875-5.054s4.577 10.1-9.067 11.41c-14.75 1.417-11.149 6.771-11.149 6.771l36.536-1.051Z" stroke="#31333A" stroke-linecap="round" stroke-linejoin="round"/><path d="m289.681 254.114-10.141 3.422-10.888-28.935 15.806.55 5.223 24.963Z" fill="#DCDDDD"/><path d="m289.681 254.114-10.141 3.422-10.888-28.935 15.806.55 5.223 24.963Z" stroke="#31333A" stroke-linecap="round" stroke-linejoin="round"/><path d="m283.292 268.989-4.879-12.142 11.795-5.966s.814 10.364 14.726 10.826c15.039.5 14.332 6.067 14.332 6.067l-35.974 1.215Z" fill="#fff"/><path d="m280.414 267.631 45.25-2.248" stroke="#31333A" stroke-linecap="round" stroke-linejoin="round"/><path d="M289.508 262.352c.961-1.014.571-2.944-.871-4.311-1.442-1.366-3.39-1.652-4.351-.637-.961 1.014-.572 2.944.87 4.31 1.442 1.367 3.391 1.652 4.352.638Z" fill="#fff" stroke="#31333A" stroke-linecap="round" stroke-linejoin="round"/><path d="m290.959 257.294 5.294-5.54 3.26 5.73-6.335 3.944" fill="#fff"/><path d="m290.959 257.294 5.294-5.54 3.26 5.73-6.335 3.944" stroke="#31333A" stroke-linecap="round" stroke-linejoin="round"/><path d="m283.292 268.989-4.879-12.142 11.795-5.966s.814 10.364 14.726 10.826c15.039.5 14.332 6.067 14.332 6.067l-35.974 1.215Z" stroke="#31333A" stroke-linecap="round" stroke-linejoin="round"/><path d="M263.161 117.138h5.573c.673 0 .486 1.271-.598 1.421h1.832c.15 0 1.409 1.48-2.568 1.787-3.977.307-4.426 0-4.426 0l.187-3.208Z" fill="#fff" stroke="#31333A" stroke-linecap="round" stroke-linejoin="round"/><path d="M267.037 103.74s-10.16 9.632-10.36 10.18c-.2.549 2.593 7.58 2.593 7.58a8.756 8.756 0 0 0 2.494-.399s.15 1.347 3.242 1.247a10.358 10.358 0 0 1 4.588.648s2.443-2.393-5.436-3.191c-.028-1.25.039-2.501.2-3.74.2-.2 5.984-4.838 5.984-4.838l-3.305-7.487Z" fill="#fff"/><path d="M258.111 109.995a20.676 20.676 0 0 0 7.79 6.498l-4.115-8.441" fill="#DCDDDD"/><path d="M267.037 103.74s-10.16 9.632-10.36 10.18c-.2.549 2.593 7.58 2.593 7.58a8.756 8.756 0 0 0 2.494-.399s.15 1.347 3.242 1.247a10.358 10.358 0 0 1 4.588.648s2.443-2.393-5.436-3.191c-.028-1.25.039-2.501.2-3.74.2-.2 5.984-4.838 5.984-4.838l-3.305-7.487Z" stroke="#31333A" stroke-linecap="round" stroke-linejoin="round"/><path d="M231.234 74.007a9.428 9.428 0 0 0 9.428-9.428 9.428 9.428 0 0 0-9.428-9.429 9.428 9.428 0 1 0 0 18.857Z" fill="#31333A"/><path d="M241.468 66.792a9.428 9.428 0 1 0 0-18.857 9.428 9.428 0 0 0-9.428 9.429 9.428 9.428 0 0 0 9.428 9.428Z" fill="#31333A"/><path d="M235.793 58.634c5.207 0 9.429-4.221 9.429-9.428 0-5.207-4.222-9.429-9.429-9.429a9.428 9.428 0 0 0-9.428 9.429 9.428 9.428 0 0 0 9.428 9.428Z" fill="#31333A"/><path d="M271.348 245.304s22.879.872 28.155-3.79L265.29 128.18a49.02 49.02 0 0 0-4.948-12.71l-7.897-10.734-12.384 2.925-4.373 23.942 35.66 113.701Z" fill="#B5B5B6"/><path d="m244.053 131.16 15.894 77.793-25.908-38.975 12.191-25.212" fill="#31333A"/><path d="M265.367 239.945c11.092 3.096 29.695 0 34.137-4.247" stroke="#31333A" stroke-linecap="round" stroke-linejoin="round"/><path d="M271.348 245.304s22.879.872 28.155-3.79L265.29 128.18a49.02 49.02 0 0 0-4.948-12.71l-7.897-10.734-12.384 2.925-4.373 23.942 35.66 113.701Z" stroke="#31333A" stroke-linecap="round" stroke-linejoin="round"/><path d="M260.137 109.655s4.397 7.011 7.459 7.713l18.697-12.72a7.341 7.341 0 0 0 .468-10.277l-24.727-25.079c-3.04-3.254-6.855-3.493-9.796-.126l-1.568-.062c-3.23 3.699-9.119 12.279-5.442 15.41l24.307 16.001-9.398 9.14Z" fill="#fff"/><path d="m262.447 81.503 1.593 20.528-6.725-8.671 3.628-11.06" fill="#DCDDDD"/><g opacity=".1" stroke="#fff" stroke-width="2.514" stroke-miterlimit="10"><path d="m155.593 121.757 225.195-54.031M158.035 131.935 383.23 77.903M160.477 142.113l225.195-54.032M162.919 152.29l225.195-54.032M145.826 81.049 371.02 27.017M148.268 91.226l225.194-54.032M150.709 101.403l225.195-54.032M153.151 111.581l225.195-54.032"/></g><path d="M260.137 109.655s4.397 7.011 7.459 7.713l18.697-12.72a7.341 7.341 0 0 0 .468-10.277l-24.727-25.079c-3.04-3.254-6.855-3.493-9.796-.126l-1.568-.062c-3.23 3.699-9.119 12.279-5.442 15.41l24.307 16.001-9.398 9.14Z" stroke="#31333A" stroke-linecap="round" stroke-linejoin="round"/><path d="m241.737 105.746-13.967-1.009-5.247 8.962a42.396 42.396 0 0 0-4.98 29.012l12.98 107.261c17.307 2.895 28.294-3.795 28.294-3.795L244.62 129.442" fill="#B5B5B6"/><path d="M249.676 107.461c-29.739 7.919-58.634 40.549-58.634 40.549l23.89-38.524 21.357-8.041" fill="#31333A"/><path d="M222.365 240.594c6.37 7.787 35.735 2.655 38.396-1.239" stroke="#31333A" stroke-linecap="round" stroke-linejoin="round"/><path d="M226.035 117.138s-5.623 7.666-5.576 16.763l13.854 110.686" stroke="#31333A" stroke-linecap="round" stroke-linejoin="round"/><path d="m241.737 105.746-13.967-1.009-5.247 8.962a42.395 42.395 0 0 0-4.98 29.012l12.98 107.261c17.307 2.895 28.294-3.795 28.294-3.795L244.62 129.442" stroke="#31333A" stroke-linecap="round" stroke-linejoin="round"/><path d="M260.047 67.74a6.488 6.488 0 0 0-1.7-.971c-1.83-.713-18.212-5.952-40.385-1.129 0 0 2.407 29.453 6.095 41.395a68.47 68.47 0 0 0 30.84.448s5.957-13.208 7.786-24.682" fill="#fff"/><path d="M249.034 69.379c1.511-3.872-1.274-8.575-6.221-10.507-4.947-1.93-10.182-.358-11.693 3.513-1.512 3.871 1.274 8.575 6.221 10.506 4.946 1.931 10.182.359 11.693-3.512Z" fill="#fff" stroke="#31333A" stroke-linecap="round" stroke-linejoin="round"/><g opacity=".1" stroke="#fff" stroke-width="2.514" stroke-miterlimit="10"><path d="m123.874 97.06 225.195-54.032M128.758 117.415l225.195-54.032M131.2 127.592l225.195-54.031M133.642 137.77l225.194-54.032M136.083 147.947l225.195-54.032M118.99 76.706l225.195-54.032M121.432 86.883l225.195-54.031M126.316 107.238l225.195-54.032"/></g><path d="M247.056 68.287c1.476-2.89-.574-6.889-4.577-8.933-4.004-2.045-8.446-1.36-9.921 1.53-1.475 2.888.574 6.888 4.578 8.932 4.004 2.045 8.445 1.36 9.92-1.53Z" fill="#fff" stroke="#31333A" stroke-linecap="round" stroke-linejoin="round"/><path d="m226.966 85.839-1.239 23.191-8.897-5.289 8.808-14.54" fill="#DCDDDD"/><path d="M260.047 67.74a6.488 6.488 0 0 0-1.7-.971c-1.83-.713-18.212-5.952-40.385-1.129 0 0 2.407 29.453 6.095 41.395a68.47 68.47 0 0 0 30.84.448s5.957-13.208 7.786-24.682" stroke="#31333A" stroke-linecap="round" stroke-linejoin="round"/><path d="M248.722 109.762h-14.459a1.423 1.423 0 0 1-1.181-.524 1.429 1.429 0 0 1-.277-1.263l4.4-21.822a2.316 2.316 0 0 1 2.179-1.788h14.459a1.431 1.431 0 0 1 1.458 1.788l-4.4 21.822a2.316 2.316 0 0 1-2.179 1.787Z" fill="#fff"/><path d="m243.423 104.737-9.384 7.293-5.038-5.309 9.91-2.98" fill="#fff"/><path d="m243.423 104.737-9.384 7.293-5.038-5.309 9.91-2.98" stroke="#31333A" stroke-linecap="round" stroke-linejoin="round"/><path d="M248.722 109.762h-14.459a1.423 1.423 0 0 1-1.181-.524 1.429 1.429 0 0 1-.277-1.263l4.4-21.822a2.316 2.316 0 0 1 2.179-1.788h14.459a1.431 1.431 0 0 1 1.458 1.788l-4.4 21.822a2.316 2.316 0 0 1-2.179 1.787v0Z" stroke="#31333A" stroke-linecap="round" stroke-linejoin="round"/><path d="M246.267 98.454c1.083-.9 1.365-2.346.629-3.233-.736-.886-2.21-.877-3.293.022-1.083.9-1.365 2.347-.629 3.233.736.887 2.21.877 3.293-.022Z" fill="#DCDDDD" stroke="#31333A" stroke-linecap="round" stroke-linejoin="round"/><path d="m243.952 64.58.724-12.208h-8.883l-2.258 11.971" fill="#fff"/><path d="M251.687 65.299c-6.722 0-9.669-6.455-14.524-9.798-3.952-2.721 9.428.995 9.428.995l5.096 8.803Z" fill="#DCDDDD"/><path d="m243.952 64.58.724-12.208h-8.883l-2.258 11.971" stroke="#31333A" stroke-linecap="round" stroke-linejoin="round"/><path d="M241.468 50.013a8.26 8.26 0 1 0 0-16.52 8.26 8.26 0 0 0 0 16.52Z" fill="#31333A"/><path d="M238.657 57.067c11.163 6.184 11.729-10.424 6.805-14.315-8.794-6.95-12.707 1.361-12.707 1.361l.454 8.804" fill="#fff"/><path d="M238.657 57.067c11.163 6.184 11.729-10.424 6.805-14.315-8.794-6.95-12.707 1.361-12.707 1.361l.454 8.804" stroke="#31333A" stroke-linecap="round" stroke-linejoin="round"/><path d="M231.757 52.373c5.173-1.362 5.45-7.261 5.45-7.261s3.929.46 4.954-1.914c0 0 3.311 4.183 6.256 1.097 2.945-3.086-7.831-6.444-7.831-6.444l-7.104 2.632-2.36 3.449.544 7.533" fill="#31333A"/><path d="M236.068 50.013c-5.013-4.722-7.857 4.633-.275 5.13l.275-5.13Z" fill="#fff"/><path d="M236.068 50.013c-5.013-4.722-7.857 4.633-.275 5.13" stroke="#31333A" stroke-linecap="round" stroke-linejoin="round"/><path d="M226.035 101.163a26.257 26.257 0 0 1 3.901-1.787c2.834-1.002 2.834-3.634 5.424-4.071 0 0-1.456 5.159 1.267 4.454 4.035-1.044 8.934-4.02 9.572-3.254.638.766.575 1.85-1.787 3.19 0 0 1.532.894.128 2.489 0 0 2.106 1.978-2.106 3.51-4.211 1.532-14.868 4.068-14.868 4.068l-1.531-8.599Z" fill="#fff"/><path d="M228.558 100.769s4.513 8.031 4.513 9.535c0 1.505-4.601.133-4.601.133l-.398-5.088" fill="#DCDDDD"/><path d="M226.035 101.163a26.257 26.257 0 0 1 3.901-1.787c2.834-1.002 2.834-3.634 5.424-4.071 0 0-1.456 5.159 1.267 4.454 4.035-1.044 8.934-4.02 9.572-3.254.638.766.575 1.85-1.787 3.19 0 0 1.532.894.128 2.489 0 0 2.106 1.978-2.106 3.51-4.211 1.532-14.868 4.068-14.868 4.068l-1.531-8.599Z" stroke="#31333A" stroke-linecap="round" stroke-linejoin="round"/><path d="M217.962 65.64a8.074 8.074 0 0 0-5.503 4.896l-16.805 36.684h.002c-1.176 2.406-1.484 5.317-.524 7.217 1.679 3.325 6.29 4.995 10.473 3.794l24.031-6.903c1.322-3.211-1.327-11.381-1.327-11.381l-7.85.917 9.705-17.648" fill="#fff"/><g opacity=".1" stroke="#fff" stroke-width="2.514" stroke-miterlimit="10"><path d="m101.167 124.063 225.194-54.032M103.608 134.241l225.195-54.032M106.05 144.419l225.195-54.032M108.492 154.595l225.195-54.032M91.399 83.354l225.195-54.032M93.84 93.532 319.037 39.5M96.283 103.709l225.195-54.032M98.725 113.886l225.194-54.031"/></g><path d="M217.962 65.64a8.074 8.074 0 0 0-5.503 4.896l-16.805 36.684h.002c-1.176 2.406-1.484 5.317-.524 7.217 1.679 3.325 6.29 4.995 10.473 3.794l24.031-6.903c1.322-3.211-1.327-11.381-1.327-11.381l-7.85.917 9.705-17.648" stroke="#31333A" stroke-linecap="round" stroke-linejoin="round"/><path d="M244.951 46.028c.001.11.974 2.322.974 2.322 2.469.177.124 1.773.124 1.773" fill="#fff"/><path d="M244.951 46.028c.001.11.974 2.322.974 2.322 2.469.177.124 1.773.124 1.773" stroke="#31333A" stroke-linecap="round" stroke-linejoin="round"/><path d="M247.207 47.339a.63.63 0 0 0 .435-.757l-.147-.556a.591.591 0 0 0-.284-.362.589.589 0 0 0-.458-.045.631.631 0 0 0-.435.757l.147.556a.575.575 0 0 0 .284.362.586.586 0 0 0 .458.045Z" fill="#31333A"/><path d="m248.329 44.103-2.848.74" stroke="#31333A" stroke-linecap="round" stroke-linejoin="round"/><path d="M243.39 48.193a.631.631 0 0 0 .435-.757l-.147-.556a.591.591 0 0 0-.284-.362.584.584 0 0 0-.458-.044.63.63 0 0 0-.435.757l.147.556a.576.576 0 0 0 .284.361.586.586 0 0 0 .458.045Z" fill="#31333A"/><path d="m243.563 45.032-2.847.74" stroke="#31333A" stroke-linecap="round" stroke-linejoin="round"/><path d="m245.986 51.188-4.084-.755c-1.599 4.102 4.249 4.454 4.084.755Z" fill="#B5B5B6"/><path d="m234.668 51.058-1.447-1.215M233.883 51.626l-.02-1.17M239.088 102.253l5.324-2.557M244.54 102.185l-2.385.982M266.163 118.621l1.972-.062M264.772 119.873l2.628.473M214.667 101.589l5.792-.726M273.242 97.064l-3.707 3.452" stroke="#31333A" stroke-linecap="round" stroke-linejoin="round"/><path d="M73.007 139.846a5.387 5.387 0 1 0 0-10.773 5.387 5.387 0 0 0 0 10.773ZM297.231 171.826l9.09-3.313M292.687 179.794l9.089-3.313" stroke="#3351E5" stroke-width="2" stroke-linecap="round" stroke-linejoin="round"/></svg>