<svg version="1.1" xmlns="http://www.w3.org/2000/svg" viewBox="0 0 2341.2724748175897 1201.7523885330231" width="2341.2724748175897" height="1201.7523885330231">
  <!-- svg-source:excalidraw -->
  
  <defs>
    <style class="style-fonts">
      @font-face {
        font-family: "Virgil";
        src: url("https://excalidraw.com/Virgil.woff2");
      }
      @font-face {
        font-family: "Cascadia";
        src: url("https://excalidraw.com/Cascadia.woff2");
      }
    </style>
  </defs>
  <rect x="0" y="0" width="2341.2724748175897" height="1201.7523885330231" fill="#ffffff"></rect><g stroke-linecap="round" transform="translate(588.8172640791806 10) rotate(0 369.0394657439497 449.9665941676915)"><path d="M7.86 8.16 C7.86 8.16, 7.86 8.16, 7.86 8.16 M7.86 8.16 C7.86 8.16, 7.86 8.16, 7.86 8.16 M3.66 19.09 C7.37 13.84, 9.13 10.85, 18.1 2.48 M3.66 19.09 C7.94 15.64, 10.72 11.07, 18.1 2.48 M2.75 26.24 C10.55 19.58, 14.73 12.99, 24.4 1.33 M2.75 26.24 C11.46 17.28, 19.18 6.98, 24.4 1.33 M1.83 33.39 C6.12 26.91, 14.56 18.86, 30.7 0.18 M1.83 33.39 C11.18 21.69, 20.35 11.47, 30.7 0.18 M1.57 39.79 C11.78 28.94, 22.19 18, 34.37 2.05 M1.57 39.79 C7.67 32.25, 13.99 24.51, 34.37 2.05 M1.96 45.43 C12.28 31.12, 25.86 16.7, 39.36 2.41 M1.96 45.43 C12.69 33.09, 24.49 18.75, 39.36 2.41 M1.7 51.83 C10.63 41.14, 24.98 27.93, 45 2.02 M1.7 51.83 C17.38 34.86, 31.15 17.75, 45 2.02 M1.44 58.23 C14.16 43.85, 29.22 28.54, 49.99 2.38 M1.44 58.23 C11.05 46.86, 21.25 34.67, 49.99 2.38 M1.83 63.87 C11.34 51.4, 22.27 38.2, 55.63 1.98 M1.83 63.87 C15.01 48.28, 28.2 33.88, 55.63 1.98 M1.57 70.27 C15.53 53.1, 33.15 36.34, 60.62 2.34 M1.57 70.27 C13.04 56.26, 26.72 42.38, 60.62 2.34 M1.97 75.91 C18.46 59.25, 32.73 41.15, 66.26 1.95 M1.97 75.91 C19.43 57.23, 35.71 35.96, 66.26 1.95 M1.71 82.31 C23.69 54.93, 47.79 28.01, 71.25 2.31 M1.71 82.31 C19.52 61.72, 35.28 43.06, 71.25 2.31 M1.44 88.71 C25.91 58.36, 50.56 29.11, 76.89 1.91 M1.44 88.71 C18.65 69.24, 35.78 51.18, 76.89 1.91 M1.84 94.35 C20.82 71.99, 36.16 51.66, 81.88 2.27 M1.84 94.35 C23.21 69.6, 46.28 45.28, 81.88 2.27 M1.58 100.75 C28.35 68.85, 57.44 37.01, 87.52 1.88 M1.58 100.75 C34.91 61.33, 68.54 21.45, 87.52 1.88 M1.97 106.39 C36.69 70.76, 68.43 32.21, 92.51 2.24 M1.97 106.39 C37.78 66.28, 72.28 25.35, 92.51 2.24 M1.71 112.79 C38.02 71.34, 70.19 34.55, 98.15 1.85 M1.71 112.79 C38.03 70.28, 74.1 30.62, 98.15 1.85 M1.45 119.19 C41.5 76.22, 76.82 31.98, 103.14 2.21 M1.45 119.19 C31.11 86.22, 59.26 52.16, 103.14 2.21 M1.84 124.83 C43.48 79.31, 82.33 34.6, 108.78 1.81 M1.84 124.83 C24.88 100.09, 45.66 76.68, 108.78 1.81 M1.58 131.23 C27.95 96.07, 57.85 67.75, 113.77 2.17 M1.58 131.23 C26.72 102.24, 52.62 71.55, 113.77 2.17 M1.98 136.87 C35.45 99.38, 65.52 64.06, 119.41 1.78 M1.98 136.87 C25.8 109.01, 51.78 78.78, 119.41 1.78 M1.72 143.27 C49.73 87.83, 95.52 35.23, 124.4 2.14 M1.72 143.27 C32.25 106.05, 65.69 68.68, 124.4 2.14 M1.45 149.67 C40.59 101.91, 85.29 53.05, 130.04 1.74 M1.45 149.67 C29.75 117.83, 57.88 84.31, 130.04 1.74 M1.85 155.31 C42.55 109.68, 79.67 66.88, 135.03 2.1 M1.85 155.31 C29.11 121.92, 56.7 90.38, 135.03 2.1 M1.59 161.71 C29.91 129.95, 57.65 97.69, 140.67 1.71 M1.59 161.71 C43.68 113.36, 86.46 63.15, 140.67 1.71 M1.98 167.35 C44.6 117.8, 88.07 68.1, 145.66 2.07 M1.98 167.35 C41.12 123.11, 79.99 77.85, 145.66 2.07 M1.72 173.75 C50.85 119.77, 97.97 65.15, 150.65 2.43 M1.72 173.75 C35.99 133.14, 72.09 93.17, 150.65 2.43 M1.46 180.14 C45.84 133.55, 87.09 83.23, 156.29 2.03 M1.46 180.14 C35.67 141.51, 71.97 100.37, 156.29 2.03 M1.85 185.79 C43.5 136.01, 89.44 84.66, 161.28 2.39 M1.85 185.79 C42.17 139.3, 82.93 92.18, 161.28 2.39 M1.59 192.19 C53.02 132.35, 105.44 73.02, 166.92 2 M1.59 192.19 C38.08 146.62, 77.23 103.25, 166.92 2 M1.99 197.83 C41.54 154.3, 80.92 109.48, 171.91 2.36 M1.99 197.83 C49.14 142.55, 97.55 87.83, 171.91 2.36 M1.72 204.23 C67.26 128.05, 133.81 51.57, 177.55 1.96 M1.72 204.23 C40.6 159.48, 79.73 114.29, 177.55 1.96 M1.46 210.62 C63 142.86, 122.85 74.51, 182.54 2.32 M1.46 210.62 C57.91 146.18, 114.11 81.53, 182.54 2.32 M1.86 216.27 C66.82 143.44, 129.81 72.44, 188.18 1.93 M1.86 216.27 C58.79 148.75, 117.66 81.45, 188.18 1.93 M1.6 222.66 C55.94 160.78, 110.75 98.62, 193.17 2.29 M1.6 222.66 C44.15 173.09, 88.55 122.77, 193.17 2.29 M1.99 228.31 C62.95 160.03, 123.14 92.11, 198.81 1.9 M1.99 228.31 C77.23 140.86, 153.91 52.63, 198.81 1.9 M1.73 234.71 C78.43 150.99, 152.72 63.55, 203.8 2.26 M1.73 234.71 C79.08 145.85, 155.99 55.69, 203.8 2.26 M1.47 241.1 C59.71 174.47, 116.73 108.29, 209.44 1.86 M1.47 241.1 C71.6 163.35, 140.41 83.42, 209.44 1.86 M1.86 246.75 C56.04 185.89, 109.87 124.85, 214.43 2.22 M1.86 246.75 C46.99 195.88, 93.03 142.38, 214.43 2.22 M1.6 253.14 C72.33 174.23, 140.93 93.74, 220.07 1.83 M1.6 253.14 C85.96 156.65, 168.53 61.19, 220.07 1.83 M2 258.79 C76.77 172.49, 153.39 84.09, 225.06 2.19 M2 258.79 C55.66 197.39, 107.07 138.98, 225.06 2.19 M1.73 265.19 C87.36 168.48, 172.6 71.33, 230.7 1.79 M1.73 265.19 C82.29 172.15, 165.68 77.35, 230.7 1.79 M1.47 271.58 C60.86 203.95, 121.13 135.1, 235.69 2.15 M1.47 271.58 C53.86 211.29, 107.18 151.35, 235.69 2.15 M1.87 277.23 C56.35 212.15, 113.46 147, 241.33 1.76 M1.87 277.23 C69.78 200.01, 135.7 123.86, 241.33 1.76 M1.61 283.62 C86.61 187.64, 170.84 90.18, 246.32 2.12 M1.61 283.62 C66.13 210.74, 129.62 137.67, 246.32 2.12 M2 289.27 C101.89 176.88, 200.46 63.16, 251.96 1.72 M2 289.27 C79.85 198.93, 157.8 107.96, 251.96 1.72 M1.74 295.66 C95.64 189.15, 188.53 81.72, 256.95 2.08 M1.74 295.66 C75.25 211.28, 148.12 127.06, 256.95 2.08 M1.48 302.06 C55.53 239.79, 109.57 176.21, 262.59 1.69 M1.48 302.06 C61.89 231.11, 123.52 162.03, 262.59 1.69 M1.87 307.71 C61.75 237, 123 166.65, 267.58 2.05 M1.87 307.71 C88.48 209.18, 174.84 108.87, 267.58 2.05 M1.61 314.1 C82.55 221.58, 163.48 129.83, 272.56 2.41 M1.61 314.1 C101.45 200.42, 201.5 85.72, 272.56 2.41 M2.01 319.75 C63.51 247.83, 123.66 179.31, 278.21 2.01 M2.01 319.75 C80.35 230.14, 158.37 139.99, 278.21 2.01 M1.74 326.14 C101.14 209.83, 202.7 93.74, 283.19 2.37 M1.74 326.14 C67.93 249.81, 134.48 173.87, 283.19 2.37 M1.48 332.54 C114.6 200.91, 229.55 70.18, 288.84 1.98 M1.48 332.54 C97.9 221.07, 194.02 109.55, 288.84 1.98 M1.88 338.19 C105.12 219.25, 210.7 96.73, 293.82 2.34 M1.88 338.19 C99.18 224.99, 197.47 111.55, 293.82 2.34 M1.62 344.58 C118.44 213.23, 234.36 79.62, 299.47 1.94 M1.62 344.58 C105.82 225.21, 208.63 106.77, 299.47 1.94 M2.01 350.23 C106.71 230.39, 210.89 112.11, 304.45 2.3 M2.01 350.23 C104.05 233.97, 206.21 117.72, 304.45 2.3 M1.75 356.62 C124.84 216.56, 246.69 75.83, 310.1 1.91 M1.75 356.62 C79.39 268.38, 154.84 180.44, 310.1 1.91 M1.49 363.02 C70.54 283.21, 139.82 204.16, 315.08 2.27 M1.49 363.02 C91.88 258.22, 182.43 153.05, 315.08 2.27 M1.88 368.66 C126.34 224.43, 252.15 81.75, 320.73 1.88 M1.88 368.66 C84.04 273.77, 165.52 179.44, 320.73 1.88 M1.62 375.06 C123.62 234.92, 245.91 94.18, 325.71 2.24 M1.62 375.06 C72.8 290.63, 146.12 206.78, 325.71 2.24 M2.02 380.71 C107.35 258.58, 215.21 136.38, 331.36 1.84 M2.02 380.71 C87.7 280.48, 174.93 180.39, 331.36 1.84 M1.75 387.1 C89.67 284.88, 179.66 182.13, 336.34 2.2 M1.75 387.1 C119.72 252.42, 235.16 118.87, 336.34 2.2 M1.49 393.5 C105.59 271.62, 209.45 150.92, 341.99 1.81 M1.49 393.5 C86.5 296.15, 170.04 200.07, 341.99 1.81 M1.89 399.14 C77.01 313.54, 153.26 225.39, 346.97 2.17 M1.89 399.14 C86.55 302.74, 170.93 205.83, 346.97 2.17 M1.63 405.54 C83.14 311.66, 164.21 217.99, 352.62 1.77 M1.63 405.54 C87.99 305.55, 174.46 206.51, 352.62 1.77 M2.02 411.18 C86.81 315.82, 171.18 219.82, 357.6 2.13 M2.02 411.18 C102.33 297.76, 201.53 183.3, 357.6 2.13 M1.76 417.58 C131.33 269.28, 261.26 118.78, 363.25 1.74 M1.76 417.58 C144.82 254.47, 288.11 89.66, 363.25 1.74 M1.5 423.98 C142.76 261.54, 283.05 100.07, 368.23 2.1 M1.5 423.98 C144.98 260.58, 288.64 95.65, 368.23 2.1 M1.89 429.62 C121.98 290.48, 242.37 153.54, 373.88 1.7 M1.89 429.62 C114.31 300.31, 224.65 172.87, 373.88 1.7 M1.63 436.02 C82.32 342.79, 162.69 250.15, 378.86 2.06 M1.63 436.02 C116 303.66, 229.45 172.96, 378.86 2.06 M2.02 441.66 C125.76 298.66, 248.87 155.86, 383.85 2.42 M2.02 441.66 C92.94 336.06, 183.93 230.74, 383.85 2.42 M1.76 448.06 C133.18 299.77, 262.26 149.6, 389.49 2.03 M1.76 448.06 C120.77 310.34, 240.02 173.15, 389.49 2.03 M1.5 454.46 C135.35 299.75, 269.46 146.15, 394.48 2.39 M1.5 454.46 C148.56 284.21, 297.42 114.01, 394.48 2.39 M1.9 460.1 C98.36 352.53, 192.91 242.62, 400.12 1.99 M1.9 460.1 C116.94 329.08, 230.97 197.19, 400.12 1.99 M1.64 466.5 C131.43 316.45, 261.64 166.82, 405.11 2.35 M1.64 466.5 C145.71 301.77, 288.99 136.66, 405.11 2.35 M2.03 472.14 C115.93 339.92, 230.08 207.87, 410.75 1.96 M2.03 472.14 C120.35 333.6, 239.92 197.15, 410.75 1.96 M1.77 478.54 C160.98 293.5, 321.48 109.22, 415.74 2.32 M1.77 478.54 C123.12 340.64, 243.69 201.74, 415.74 2.32 M1.51 484.94 C124.76 342.96, 249.48 200.87, 421.38 1.93 M1.51 484.94 C150.66 314.5, 298.81 143.66, 421.38 1.93 M1.9 490.58 C100.69 377, 198.61 265.51, 426.37 2.29 M1.9 490.58 C162.39 305.85, 323.04 120.56, 426.37 2.29 M1.64 496.98 C167.44 307.72, 334.15 115.75, 432.01 1.89 M1.64 496.98 C125.05 358.09, 246.78 218.04, 432.01 1.89 M2.03 502.62 C137.41 345.2, 274.89 187.87, 437 2.25 M2.03 502.62 C132.06 354.77, 259.52 207.22, 437 2.25 M1.77 509.02 C145.15 342.56, 288.39 178.52, 442.64 1.86 M1.77 509.02 C118.49 371.1, 237.27 234.36, 442.64 1.86 M1.51 515.42 C122.29 372.35, 244.81 231.82, 447.63 2.22 M1.51 515.42 C175.25 314.94, 349.25 115.14, 447.63 2.22 M1.91 521.06 C166.27 334.17, 329.43 145.94, 453.27 1.82 M1.91 521.06 C128.89 375.95, 254.64 231.51, 453.27 1.82 M1.64 527.46 C147.53 359.32, 292.86 192.12, 458.26 2.18 M1.64 527.46 C137.1 373.37, 271.6 217.78, 458.26 2.18 M2.04 533.1 C97.93 418.38, 197.3 306.24, 463.9 1.79 M2.04 533.1 C121.68 397.24, 238.82 261.81, 463.9 1.79 M1.78 539.5 C108.02 416.33, 213.28 292.9, 468.89 2.15 M1.78 539.5 C152.18 368.46, 301.53 196.41, 468.89 2.15 M1.52 545.9 C129.76 398.82, 256.3 253.29, 474.53 1.75 M1.52 545.9 C154.99 372.42, 306.51 198.07, 474.53 1.75 M1.91 551.54 C169.84 357.18, 337.52 162.59, 479.52 2.11 M1.91 551.54 C122.39 415.03, 242.06 278.01, 479.52 2.11 M1.65 557.94 C192.4 336.59, 383.02 117.49, 485.17 1.72 M1.65 557.94 C185.62 349.36, 368.47 138.73, 485.17 1.72 M2.04 563.58 C109.29 441.71, 213.81 319.65, 490.15 2.08 M2.04 563.58 C172.46 366.69, 343.84 169.76, 490.15 2.08 M1.78 569.98 C158.3 386.53, 318.34 202.81, 495.8 1.68 M1.78 569.98 C152.26 395.33, 303.28 222.65, 495.8 1.68 M1.52 576.38 C158.92 396.47, 315.43 216.98, 500.78 2.04 M1.52 576.38 C183.87 367.08, 366.65 157.14, 500.78 2.04 M1.92 582.02 C130.24 432.33, 260.89 282.25, 505.77 2.4 M1.92 582.02 C183.1 373.16, 363.11 165.18, 505.77 2.4 M1.65 588.42 C161.83 405.89, 320.77 223.18, 511.41 2.01 M1.65 588.42 C162.09 404.89, 322.27 221.47, 511.41 2.01 M2.05 594.06 C147.49 427.26, 292.93 259.76, 516.4 2.37 M2.05 594.06 C196.51 373.08, 388.92 152.52, 516.4 2.37 M1.79 600.46 C132.42 449.69, 261.74 300.8, 522.04 1.98 M1.79 600.46 C157.5 423.89, 311.73 246.9, 522.04 1.98 M1.53 606.86 C182.22 401.39, 361.29 194.04, 527.03 2.34 M1.53 606.86 C193.02 385.7, 384.87 165.26, 527.03 2.34 M1.92 612.5 C181.18 402.48, 361.47 195.1, 532.67 1.94 M1.92 612.5 C155.02 432.7, 309.41 255.12, 532.67 1.94 M1.66 618.9 C141.63 455.67, 282.23 295.86, 537.66 2.3 M1.66 618.9 C173.43 419.42, 346.52 220.42, 537.66 2.3 M2.05 624.54 C201.87 397.87, 397.89 170.68, 543.3 1.91 M2.05 624.54 C193.99 404.19, 385.07 184.92, 543.3 1.91 M1.79 630.94 C183 423.36, 364.27 213.93, 548.29 2.27 M1.79 630.94 C120.17 494.84, 239.11 357.77, 548.29 2.27 M1.53 637.34 C155.04 463.88, 307.21 288.54, 553.93 1.87 M1.53 637.34 C117.68 502.54, 236.08 366.64, 553.93 1.87 M1.93 642.98 C178.76 439.03, 357.84 233.14, 558.92 2.23 M1.93 642.98 C223.5 388.6, 444.34 134.52, 558.92 2.23 M1.66 649.38 C118.16 517.54, 232.71 386.41, 564.56 1.84 M1.66 649.38 C165.46 464.87, 327.6 278.66, 564.56 1.84 M1.4 655.78 C154.79 482.92, 304.26 310.46, 569.55 2.2 M1.4 655.78 C218.51 404.54, 437.63 152.57, 569.55 2.2 M1.8 661.42 C143.01 499.95, 284.28 336.86, 575.19 1.8 M1.8 661.42 C151.69 485.79, 303.52 311.08, 575.19 1.8 M1.54 667.82 C158.95 486.94, 318.2 303.14, 580.18 2.16 M1.54 667.82 C165.63 474.47, 332.75 282.47, 580.18 2.16 M1.93 673.46 C160.67 492.16, 319.41 309.99, 585.82 1.77 M1.93 673.46 C181.66 462.42, 363.34 253.4, 585.82 1.77 M1.67 679.86 C195.49 456.36, 388.48 233.01, 590.81 2.13 M1.67 679.86 C230.21 419.79, 458.2 157.13, 590.81 2.13 M1.41 686.26 C194.45 464.28, 385.55 244.67, 596.45 1.73 M1.41 686.26 C166.85 497.82, 329.9 310.04, 596.45 1.73 M1.8 691.9 C168.67 497.55, 339.71 302.14, 601.44 2.09 M1.8 691.9 C205.64 457.94, 410.4 221.59, 601.44 2.09 M1.54 698.3 C130.55 552.37, 260.12 404, 607.08 1.7 M1.54 698.3 C167.21 504.87, 335.32 310.92, 607.08 1.7 M1.94 703.94 C162.88 520.09, 322.69 337.68, 612.07 2.06 M1.94 703.94 C242.61 428.95, 481.1 154.49, 612.07 2.06 M1.67 710.34 C206.48 478.6, 409.44 246.15, 617.06 2.42 M1.67 710.34 C198.9 480.92, 398.13 251.54, 617.06 2.42 M1.41 716.73 C162.34 530.37, 324.41 344.85, 622.7 2.02 M1.41 716.73 C220.97 466.1, 440.08 214.37, 622.7 2.02 M1.81 722.38 C145.13 555.88, 290.34 390.42, 627.69 2.38 M1.81 722.38 C186.11 509.8, 370.26 298.27, 627.69 2.38 M1.55 728.78 C222.86 479.2, 442.57 225.76, 633.33 1.99 M1.55 728.78 C136.89 569.04, 274.54 410.95, 633.33 1.99 M1.94 734.42 C157.45 557.11, 312.75 378.4, 638.32 2.35 M1.94 734.42 C222.01 479.81, 442.04 225.94, 638.32 2.35 M1.68 740.82 C169.73 542.87, 341.03 347.35, 643.96 1.96 M1.68 740.82 C235.27 473.31, 468.24 205.42, 643.96 1.96 M1.42 747.21 C177.51 542.76, 354.21 340.76, 648.95 2.32 M1.42 747.21 C207.32 509.9, 413 273.45, 648.95 2.32 M1.81 752.86 C146.68 584.91, 295.03 414.98, 654.59 1.92 M1.81 752.86 C223.33 499.41, 442.57 246.99, 654.59 1.92 M1.55 759.26 C256.8 467.88, 512.37 172.46, 659.58 2.28 M1.55 759.26 C211.87 516.81, 423.56 272.96, 659.58 2.28 M1.94 764.9 C208.93 523.96, 416.05 285.42, 665.22 1.89 M1.94 764.9 C180.56 563.41, 358.59 359.02, 665.22 1.89 M1.68 771.3 C160.37 585.63, 319.89 402.1, 670.21 2.25 M1.68 771.3 C237.51 497.18, 474.59 225.09, 670.21 2.25 M1.42 777.69 C193.89 560.11, 386 339.75, 675.85 1.85 M1.42 777.69 C176.75 574, 354.88 368.4, 675.85 1.85 M1.82 783.34 C163.01 593.35, 325.79 406.45, 680.84 2.21 M1.82 783.34 C195.04 559.4, 388.24 336.79, 680.84 2.21 M1.56 789.73 C248.97 499.92, 498.53 213.61, 686.48 1.82 M1.56 789.73 C149.77 622.06, 294.63 454.77, 686.48 1.82 M1.95 795.38 C264.49 493.7, 527.19 192.65, 691.47 2.18 M1.95 795.38 C180.93 590.95, 360.7 383.35, 691.47 2.18 M1.69 801.78 C181.79 596.58, 360.91 391.16, 697.11 1.78 M1.69 801.78 C261.41 506, 520.8 208.16, 697.11 1.78 M1.43 808.17 C154.2 632.92, 308.42 455.72, 702.1 2.14 M1.43 808.17 C218.81 556.72, 438.48 303.73, 702.1 2.14 M1.82 813.82 C235.91 545.79, 470.6 275.43, 707.74 1.75 M1.82 813.82 C276.51 498.75, 550.84 183.6, 707.74 1.75 M1.56 820.21 C212.47 579.82, 420.47 339.77, 712.73 2.11 M1.56 820.21 C245.58 534.73, 490.92 252.63, 712.73 2.11 M1.95 825.86 C169.76 633.12, 337.62 440.97, 717.06 3.22 M1.95 825.86 C198.71 598.46, 398.51 368.68, 717.06 3.22 M1.69 832.25 C219.94 579.8, 438.99 327.54, 722.05 3.58 M1.69 832.25 C244.98 551.94, 491.04 269.7, 722.05 3.58 M1.43 838.65 C204.26 607.61, 404.39 376.6, 725.72 5.45 M1.43 838.65 C180.17 638.92, 356 436.15, 725.72 5.45 M1.83 844.3 C241.68 570.37, 482.79 292.98, 728.74 8.08 M1.83 844.3 C262.84 541.37, 526.63 238.8, 728.74 8.08 M1.56 850.69 C182.77 638.7, 366.24 427.36, 732.41 9.95 M1.56 850.69 C189.48 635.85, 375.7 422.11, 732.41 9.95 M1.96 856.34 C165.41 670.17, 327.05 485.21, 734.78 13.33 M1.96 856.34 C257.41 559.28, 513.42 264.42, 734.78 13.33 M1.7 862.73 C157.26 682.52, 314.92 501.41, 736.48 17.46 M1.7 862.73 C200.61 636.52, 397.64 409.65, 736.48 17.46 M1.44 869.13 C292.53 537.72, 581.1 205.2, 738.85 20.84 M1.44 869.13 C236.2 600.11, 472.22 328.34, 738.85 20.84 M2.49 874.02 C219.49 624.71, 437.51 374.27, 739.9 25.73 M2.49 874.02 C163.75 691.18, 323.19 507.78, 739.9 25.73 M2.88 879.66 C176.82 674.18, 353.18 473.18, 738.98 32.88 M2.88 879.66 C274.05 564.1, 546.91 250.64, 738.98 32.88 M4.59 883.8 C226.9 629.55, 447.42 374.44, 738.72 39.28 M4.59 883.8 C154.81 710.72, 308.24 533.9, 738.72 39.28 M6.3 887.93 C246.91 613.62, 485.27 339.09, 739.11 44.92 M6.3 887.93 C205.23 656.54, 406.29 425.32, 739.11 44.92 M8 892.06 C229.75 635.32, 451.47 379.7, 738.85 51.32 M8 892.06 C254.81 613.55, 498.88 333.14, 738.85 51.32 M11.68 893.93 C292.71 568.66, 573.28 245.09, 739.25 56.96 M11.68 893.93 C219.85 656.35, 426.51 418.25, 739.25 56.96 M15.35 895.8 C196.75 682.71, 379.31 472.36, 738.98 63.36 M15.35 895.8 C205.45 679.22, 393.24 463.99, 738.98 63.36 M18.37 898.43 C255.71 626.34, 494.03 352.64, 738.72 69.76 M18.37 898.43 C257.72 620.85, 497.22 346.4, 738.72 69.76 M23.36 898.79 C286.3 599.03, 547.93 298.66, 739.12 75.4 M23.36 898.79 C186.41 710.93, 349.84 523.79, 739.12 75.4 M27.69 899.9 C197.84 707.83, 366.79 514.85, 738.86 81.8 M27.69 899.9 C184.92 718.12, 344.52 534.54, 738.86 81.8 M32.68 900.26 C267.79 632.11, 502.58 362.33, 739.25 87.44 M32.68 900.26 C220.75 685.97, 405.65 472.18, 739.25 87.44 M37.66 900.62 C288.12 615.73, 537.25 327.46, 738.99 93.84 M37.66 900.62 C212.6 701.64, 387.13 500.11, 738.99 93.84 M43.31 900.23 C263.81 646.57, 484.26 394.98, 738.73 100.24 M43.31 900.23 C296.36 608.94, 550.33 317.14, 738.73 100.24 M48.29 900.59 C263.9 649.44, 481.84 400.3, 739.12 105.88 M48.29 900.59 C301.37 603.8, 557.88 308.46, 739.12 105.88 M53.94 900.19 C291.74 626.52, 531.61 350.87, 738.86 112.28 M53.94 900.19 C268.82 653.62, 484.03 406.17, 738.86 112.28 M58.92 900.55 C266.2 662.63, 473.48 424.56, 739.26 117.92 M58.92 900.55 C215.8 719.83, 373.95 537.63, 739.26 117.92 M64.57 900.16 C291.43 634.44, 522.37 370.56, 738.99 124.32 M64.57 900.16 C241.64 691.85, 421.84 485.38, 738.99 124.32 M69.55 900.52 C265.63 671.8, 463.73 445.49, 738.73 130.72 M69.55 900.52 C308.97 624.94, 547.47 350.21, 738.73 130.72 M75.2 900.12 C251.72 697.99, 429.58 494.51, 739.13 136.36 M75.2 900.12 C314.61 628.08, 551.43 354.76, 739.13 136.36 M80.18 900.49 C225.49 729.94, 373.12 561.42, 738.87 142.76 M80.18 900.49 C301.78 644.48, 526.56 386.1, 738.87 142.76 M85.83 900.09 C332.92 617.49, 581.9 331.23, 739.26 148.4 M85.83 900.09 C283.64 672.9, 480.44 446.92, 739.26 148.4 M90.81 900.45 C222.01 750.34, 352.46 599.82, 739 154.8 M90.81 900.45 C261.01 702.5, 431.23 506.48, 739 154.8 M96.46 900.06 C353.16 606.82, 609.91 311.37, 738.74 161.2 M96.46 900.06 C347.53 614.1, 596.06 327.7, 738.74 161.2 M101.44 900.42 C302.64 668.54, 502.2 440.09, 739.13 166.84 M101.44 900.42 C275.45 695.71, 452.98 492.61, 739.13 166.84 M106.43 900.78 C307.68 669.34, 508.33 438.61, 738.87 173.24 M106.43 900.78 C289.17 692.81, 470.25 484.44, 738.87 173.24 M112.07 900.38 C247.45 745.98, 379.44 594.87, 739.27 178.88 M112.07 900.38 C251.23 742.09, 389.47 583.18, 739.27 178.88 M117.06 900.74 C244.77 755.55, 372.41 608.25, 739 185.28 M117.06 900.74 C269.83 725.66, 423.3 549.33, 739 185.28 M122.7 900.35 C321.8 669.62, 520.82 442.3, 738.74 191.67 M122.7 900.35 C249.57 759.04, 373.83 616.31, 738.74 191.67 M127.69 900.71 C370.2 622.3, 612.12 344.68, 739.14 197.32 M127.69 900.71 C308.04 693.23, 487.25 486.6, 739.14 197.32 M133.33 900.31 C281.89 728.34, 430.65 557.3, 738.88 203.72 M133.33 900.31 C260.02 753.23, 388.11 605.71, 738.88 203.72 M138.32 900.67 C319.96 694.86, 497.94 490.12, 739.27 209.36 M138.32 900.67 C278.75 740.49, 417.14 580.18, 739.27 209.36 M143.96 900.28 C355.15 661.65, 564.24 420.5, 739.01 215.76 M143.96 900.28 C331.66 684.19, 520.83 466.46, 739.01 215.76 M148.95 900.64 C381.97 633.67, 615.27 366.48, 738.75 222.15 M148.95 900.64 C288.84 737.66, 430.83 574.31, 738.75 222.15 M154.59 900.24 C379.04 645.66, 601.96 388.44, 739.14 227.8 M154.59 900.24 C311.56 719.09, 468.02 538.84, 739.14 227.8 M159.58 900.6 C297.76 741.98, 435.12 582.33, 738.88 234.2 M159.58 900.6 C322.01 711.06, 485.99 522.05, 738.88 234.2 M165.22 900.21 C308.97 736.64, 452.43 571.02, 739.28 239.84 M165.22 900.21 C326.96 713.69, 490.61 524.9, 739.28 239.84 M170.21 900.57 C317.9 731.35, 463.73 563.85, 739.01 246.24 M170.21 900.57 C338.49 706.54, 507.56 512.47, 739.01 246.24 M175.85 900.17 C311.23 742.29, 448.99 585.34, 738.75 252.63 M175.85 900.17 C326.73 725.46, 479.78 549.34, 738.75 252.63 M180.84 900.53 C374.06 680, 563.92 460.97, 739.15 258.28 M180.84 900.53 C404.1 642.11, 626.3 386.44, 739.15 258.28 M186.48 900.14 C308.12 760.18, 428.65 621.61, 738.89 264.67 M186.48 900.14 C302.31 769.42, 417.56 636.49, 738.89 264.67 M191.47 900.5 C335.77 732.61, 482.53 563.46, 739.28 270.32 M191.47 900.5 C346.76 722.69, 501.07 545.19, 739.28 270.32 M197.11 900.11 C306.83 770.83, 417.68 643.41, 739.02 276.72 M197.11 900.11 C391.27 679.16, 582.66 458.42, 739.02 276.72 M202.1 900.47 C348.15 735.09, 493.06 568.47, 738.76 283.11 M202.1 900.47 C320.9 762.37, 439.35 626.84, 738.76 283.11 M207.74 900.07 C314.93 777.23, 424.27 651.25, 739.15 288.76 M207.74 900.07 C338.11 749.44, 468.46 599.93, 739.15 288.76 M212.73 900.43 C348.6 743.06, 487.65 583.91, 738.89 295.15 M212.73 900.43 C351.86 738.3, 491.2 577.71, 738.89 295.15 M218.37 900.04 C420.38 663.4, 624.06 429.33, 739.28 300.8 M218.37 900.04 C370.98 721.21, 525.25 543.81, 739.28 300.8 M223.36 900.4 C340.68 764.51, 459.3 626.17, 739.02 307.2 M223.36 900.4 C350.92 755.14, 475.99 610.67, 739.02 307.2 M228.35 900.76 C385.61 719.78, 543.3 538.28, 738.76 313.59 M228.35 900.76 C329.82 781.68, 432.81 663.43, 738.76 313.59 M233.99 900.36 C348.28 767.82, 465.65 633.27, 739.16 319.24 M233.99 900.36 C419.5 688.49, 603.61 477.68, 739.16 319.24 M238.98 900.72 C374.76 739.62, 514.1 581.25, 738.9 325.63 M238.98 900.72 C406.85 709.37, 571.57 519.05, 738.9 325.63 M244.62 900.33 C436.04 679.2, 629.47 457.29, 739.29 331.28 M244.62 900.33 C348.21 781.09, 453.23 661.37, 739.29 331.28 M249.61 900.69 C435.55 687.33, 621.59 472.33, 739.03 337.67 M249.61 900.69 C412.24 712.54, 575.34 524.64, 739.03 337.67 M255.25 900.29 C405.31 726.77, 554.62 555.2, 738.77 344.07 M255.25 900.29 C424.91 704.75, 594.03 510.85, 738.77 344.07 M260.24 900.65 C396.26 745.8, 533.08 588.25, 739.16 349.72 M260.24 900.65 C421.4 715.84, 583.34 529.78, 739.16 349.72 M265.88 900.26 C388.18 759.74, 512.11 618.08, 738.9 356.11 M265.88 900.26 C415.14 728.51, 565.5 555.28, 738.9 356.11 M270.87 900.62 C374.59 782.19, 478.62 663.06, 739.29 361.76 M270.87 900.62 C433.62 712.08, 597.41 523.63, 739.29 361.76 M276.51 900.22 C455.26 697.46, 634.39 491.86, 739.03 368.15 M276.51 900.22 C386.92 774.84, 497.12 647.46, 739.03 368.15 M281.5 900.58 C460.46 694.64, 640 487.37, 738.77 374.55 M281.5 900.58 C397.38 769.84, 511.97 637.82, 738.77 374.55 M287.14 900.19 C422.18 745.67, 556.78 589.33, 739.17 380.19 M287.14 900.19 C382.86 790.41, 477.02 681.79, 739.17 380.19 M292.13 900.55 C462.89 705.62, 631.6 512.37, 738.9 386.59 M292.13 900.55 C382.64 795.13, 474.78 689.98, 738.9 386.59 M297.77 900.16 C429.18 749.77, 559.22 600.72, 739.3 392.24 M297.77 900.16 C431.3 746.97, 565.68 593.17, 739.3 392.24 M302.76 900.52 C443.78 737.42, 583.61 574.9, 739.04 398.63 M302.76 900.52 C412.98 773.59, 522.15 648.4, 739.04 398.63 M308.4 900.12 C449.12 737.85, 590.18 576.57, 738.78 405.03 M308.4 900.12 C472.23 713.44, 634.17 527.22, 738.78 405.03 M313.39 900.48 C461.4 729.9, 611.71 558.9, 739.17 410.67 M313.39 900.48 C444.63 750.35, 574.93 600.18, 739.17 410.67 M319.03 900.09 C412.59 791.93, 506.74 682.94, 738.91 417.07 M319.03 900.09 C428.86 774.9, 538.93 649.54, 738.91 417.07 M324.02 900.45 C470.15 734.53, 615.94 565.94, 739.3 422.72 M324.02 900.45 C476.41 725.2, 628.81 549.4, 739.3 422.72 M329.66 900.05 C450.18 759.8, 571.31 621.19, 739.04 429.11 M329.66 900.05 C479.54 729.2, 629.39 556.88, 739.04 429.11 M334.65 900.41 C490.84 718.5, 648.57 537.16, 738.78 435.51 M334.65 900.41 C461.48 755.36, 586.48 610.81, 738.78 435.51 M339.64 900.77 C464.78 756.36, 591.6 610.67, 739.18 441.15 M339.64 900.77 C450.22 772, 562.34 642.27, 739.18 441.15 M345.28 900.38 C462.74 764.31, 581.35 629, 738.91 447.55 M345.28 900.38 C457.27 770.04, 570.03 640.15, 738.91 447.55 M350.27 900.74 C477.41 755.28, 603.88 609.86, 739.31 453.19 M350.27 900.74 C495.34 735.57, 640.03 569.61, 739.31 453.19 M355.91 900.34 C469.25 770.76, 582.81 640.79, 739.05 459.59 M355.91 900.34 C480.15 757.59, 604.67 614.69, 739.05 459.59 M360.9 900.7 C456.44 792.67, 550.59 685.21, 738.79 465.99 M360.9 900.7 C504.04 735.35, 648.78 569.44, 738.79 465.99 M366.54 900.31 C495.93 750.96, 626.18 600.92, 739.18 471.63 M366.54 900.31 C491.8 755.2, 617.24 611.18, 739.18 471.63 M371.53 900.67 C470.87 785.56, 572.91 668.75, 738.92 478.03 M371.53 900.67 C460.2 801.8, 546.92 701.66, 738.92 478.03 M377.17 900.27 C453.45 809.04, 531.97 718.88, 739.31 483.67 M377.17 900.27 C487.77 773.48, 598.58 646.4, 739.31 483.67 M382.16 900.63 C477.79 790.55, 571.98 680.72, 739.05 490.07 M382.16 900.63 C465.63 803.85, 549.33 707, 739.05 490.07 M387.8 900.24 C465.82 810.79, 543.09 723.4, 738.79 496.47 M387.8 900.24 C491.48 779.15, 596.43 658.47, 738.79 496.47 M392.79 900.6 C516.25 757.41, 639.89 615.31, 739.19 502.11 M392.79 900.6 C482.58 799.47, 571.61 697.16, 739.19 502.11 M398.43 900.2 C482.82 801, 568.14 701.4, 738.92 508.51 M398.43 900.2 C486.57 799.14, 574.7 697.94, 738.92 508.51 M403.42 900.57 C522.77 762.71, 641.5 625.99, 739.32 514.15 M403.42 900.57 C522.85 762.93, 642.6 625.1, 739.32 514.15 M409.06 900.17 C535.25 754.09, 663.17 608.32, 739.06 520.55 M409.06 900.17 C477.76 823.38, 545.51 744.65, 739.06 520.55 M414.05 900.53 C524 777.49, 632.22 652.21, 738.8 526.95 M414.05 900.53 C535.78 761.91, 656.67 622.02, 738.8 526.95 M419.69 900.14 C499.58 806.31, 579.98 713.05, 739.19 532.59 M419.69 900.14 C497.22 812.04, 574.78 723.52, 739.19 532.59 M424.68 900.5 C502.29 811.35, 579.38 722.21, 738.93 538.99 M424.68 900.5 C524.61 785.94, 624.69 671.32, 738.93 538.99 M430.32 900.1 C514.57 805.28, 598.48 709.73, 739.32 544.63 M430.32 900.1 C535.31 779.18, 640.21 657.87, 739.32 544.63 M435.31 900.46 C531.94 789.05, 627.13 678.63, 739.06 551.03 M435.31 900.46 C551.14 767.93, 667.6 633.58, 739.06 551.03 M440.95 900.07 C505.84 827.28, 571.51 752.58, 738.8 557.43 M440.95 900.07 C546.33 778.1, 654.23 654.11, 738.8 557.43 M445.94 900.43 C514.09 822.2, 583.6 741.88, 739.2 563.07 M445.94 900.43 C545.91 787.42, 645.72 673.9, 739.2 563.07 M451.58 900.03 C524.49 817.69, 596.27 735.26, 738.93 569.47 M451.58 900.03 C518.5 823.29, 584.82 746.79, 738.93 569.47 M456.57 900.39 C560.8 780.34, 665.96 662.09, 739.33 575.11 M456.57 900.39 C548.69 792.18, 641.89 685.59, 739.33 575.11 M461.55 900.75 C543.69 805.77, 627.15 711.09, 739.07 581.51 M461.55 900.75 C564.48 781.38, 667.13 663.31, 739.07 581.51 M467.2 900.36 C560.95 789.84, 656.86 679.21, 738.81 587.91 M467.2 900.36 C543.73 812.55, 621.01 723.5, 738.81 587.91 M472.18 900.72 C540.32 821.66, 606.07 744.84, 739.2 593.55 M472.18 900.72 C543.73 818.72, 615.52 737.04, 739.2 593.55 M477.83 900.32 C556.09 809.71, 634.51 718.42, 738.94 599.95 M477.83 900.32 C556.21 809.8, 636.83 718.43, 738.94 599.95 M482.81 900.68 C584.21 784.67, 684.13 669.93, 739.33 605.59 M482.81 900.68 C557.25 816.34, 629.95 732.59, 739.33 605.59 M488.46 900.29 C587.5 789.78, 684.04 676.37, 739.07 611.99 M488.46 900.29 C557.22 820.94, 626.57 740.55, 739.07 611.99 M493.44 900.65 C578.24 804.96, 662.67 705.04, 738.81 618.39 M493.44 900.65 C561.15 824.03, 627.37 748.8, 738.81 618.39 M499.09 900.25 C562.6 821.9, 630.81 747.3, 739.2 624.03 M499.09 900.25 C559.93 829.77, 621.45 759.12, 739.2 624.03 M504.07 900.61 C585.09 806.49, 665.8 713.55, 738.94 630.43 M504.07 900.61 C586.09 804.29, 667.79 709.53, 738.94 630.43 M509.72 900.22 C572.62 827.35, 636.94 751.79, 739.34 636.07 M509.72 900.22 C574.07 825.73, 640.13 750.01, 739.34 636.07 M514.7 900.58 C597.61 806.82, 678.37 714.13, 739.08 642.47 M514.7 900.58 C587.65 816.73, 661.25 732.21, 739.08 642.47 M520.35 900.19 C563.58 847.63, 608.37 795.93, 738.82 648.87 M520.35 900.19 C601.62 806.13, 683.54 711.36, 738.82 648.87 M525.33 900.55 C603.07 811.69, 680.82 722.94, 739.21 654.51 M525.33 900.55 C583.8 831.6, 643.65 762.43, 739.21 654.51 M530.98 900.15 C596.47 826.65, 662.07 750.79, 738.95 660.91 M530.98 900.15 C597.9 820.57, 665.58 742.36, 738.95 660.91 M535.96 900.51 C588.73 838.25, 645.8 773.43, 739.34 666.55 M535.96 900.51 C610.35 814.58, 685.81 728.79, 739.34 666.55 M541.61 900.12 C611.06 818.34, 678.69 740.45, 739.08 672.95 M541.61 900.12 C604.15 830.03, 665.65 758.88, 739.08 672.95 M546.59 900.48 C621.23 813.99, 698.1 725.39, 738.82 679.35 M546.59 900.48 C591.68 848.56, 634.76 797.13, 738.82 679.35 M552.24 900.08 C614.08 829.65, 675.01 757.74, 739.21 684.99 M552.24 900.08 C603.51 841.05, 655.68 781.89, 739.21 684.99 M557.22 900.44 C629.56 815.76, 699.57 732.18, 738.95 691.39 M557.22 900.44 C625.54 820.86, 694.77 742.09, 738.95 691.39 M562.87 900.05 C622.46 834.74, 680.01 767.9, 739.35 697.03 M562.87 900.05 C625.78 827.76, 686.76 756.3, 739.35 697.03 M567.85 900.41 C624.79 833.76, 682.09 767.4, 739.09 703.43 M567.85 900.41 C604.3 860.71, 638.92 820.32, 739.09 703.43 M572.84 900.77 C623.29 841.35, 675.42 785.13, 738.82 709.83 M572.84 900.77 C613.79 853.11, 654.72 806.34, 738.82 709.83 M578.48 900.37 C612.76 860.77, 649.24 818.8, 739.22 715.47 M578.48 900.37 C639.83 829.27, 702.56 758.24, 739.22 715.47 M583.47 900.73 C629.29 848.14, 676.97 794.16, 738.96 721.87 M583.47 900.73 C622.63 856.7, 659.53 813, 738.96 721.87 M589.12 900.34 C623.19 858.95, 661.08 819.86, 739.35 727.51 M589.12 900.34 C629.32 855.43, 667.49 810.11, 739.35 727.51 M594.1 900.7 C650.06 835.65, 707.97 768.9, 739.09 733.91 M594.1 900.7 C623.08 865.69, 652.6 829.68, 739.09 733.91 M599.75 900.3 C650.58 845.44, 700.69 786.53, 738.83 740.31 M599.75 900.3 C637.35 858.52, 676.6 815.27, 738.83 740.31 M604.73 900.66 C655.37 843.54, 705.29 786.8, 739.22 745.95 M604.73 900.66 C655.79 842.37, 706 782.5, 739.22 745.95 M610.38 900.27 C647.54 856.27, 687.51 810.28, 738.96 752.35 M610.38 900.27 C648.81 854.74, 688.5 810.35, 738.96 752.35 M615.36 900.63 C649.04 862.16, 681.25 824.35, 738.7 758.74 M615.36 900.63 C663.32 845.16, 708.61 791.94, 738.7 758.74 M621.01 900.24 C665.92 846.7, 713.14 797.25, 739.1 764.39 M621.01 900.24 C664.26 852.03, 706.67 802.18, 739.1 764.39 M625.99 900.6 C650.47 875.82, 672.63 849.29, 738.83 770.79 M625.99 900.6 C649.22 874.16, 673.5 846.33, 738.83 770.79 M631.64 900.2 C660.5 866.03, 693.88 828.4, 739.23 776.43 M631.64 900.2 C665.66 864.14, 697.93 826.47, 739.23 776.43 M636.62 900.56 C673.77 857.86, 710.78 814.67, 738.97 782.83 M636.62 900.56 C660.07 874.09, 683.37 845.72, 738.97 782.83 M642.27 900.17 C665.22 874.63, 688.02 846.72, 738.71 789.22 M642.27 900.17 C667.55 872.01, 691.06 843.57, 738.71 789.22 M647.25 900.53 C668.69 879.32, 690.12 854.86, 739.1 794.87 M647.25 900.53 C667.48 878.45, 686.39 855.67, 739.1 794.87 M652.9 900.13 C676.96 872.75, 697.08 847.32, 738.84 801.26 M652.9 900.13 C674.24 875.99, 695.7 850.56, 738.84 801.26 M657.88 900.49 C680.7 874.6, 704.7 847.21, 739.23 806.91 M657.88 900.49 C680.28 872.81, 704.07 845.47, 739.23 806.91 M663.53 900.1 C689.34 867.81, 717.87 834.44, 738.97 813.31 M663.53 900.1 C691.08 867.71, 720.12 835.51, 738.97 813.31 M668.51 900.46 C692.32 868.87, 721.48 839.11, 738.71 819.7 M668.51 900.46 C695.01 871.5, 719.11 842.96, 738.71 819.7 M674.16 900.06 C695.06 877.88, 713.95 853.41, 739.11 825.35 M674.16 900.06 C688.51 884.07, 700.94 868.15, 739.11 825.35 M679.14 900.42 C699.3 875.5, 724.01 852.79, 738.84 831.74 M679.14 900.42 C697.01 879.62, 717.21 858.06, 738.84 831.74 M684.13 900.78 C696.44 888.1, 710.83 871.79, 739.24 837.39 M684.13 900.78 C706.72 875.72, 728.38 850.62, 739.24 837.39 M689.77 900.39 C710 879.61, 728.44 855.51, 738.98 843.79 M689.77 900.39 C700.21 889.34, 712.46 876.01, 738.98 843.79 M694.76 900.75 C704.33 889.46, 712.99 877.64, 738.72 850.18 M694.76 900.75 C707.38 887.5, 718.6 873.73, 738.72 850.18 M700.4 900.35 C711.03 887.54, 720.55 875.23, 739.11 855.83 M700.4 900.35 C711.85 885.96, 725.61 871.21, 739.11 855.83 M705.39 900.71 C717.7 885.75, 730.49 871.09, 738.85 862.22 M705.39 900.71 C714.31 891.45, 722.65 880.93, 738.85 862.22 M709.06 902.58 C717.04 893.47, 725.41 881.22, 738.59 868.62 M709.06 902.58 C716.71 893.82, 722.41 885.77, 738.59 868.62 M715.36 901.43 C721.36 891.37, 731.2 884.98, 737.67 875.77 M715.36 901.43 C721.25 895.94, 726.17 889.84, 737.67 875.77 M722.32 899.53 C724.91 894.59, 728.41 891.31, 736.75 882.93 M722.32 899.53 C727.8 892.73, 732.95 887.1, 736.75 882.93" stroke="#fab005" stroke-width="0.5" fill="none"></path><path d="M32 0 M32 0 C254.34 -1.94, 475.82 -1.98, 706.08 0 M32 0 C256.15 -2.24, 480.93 -2.2, 706.08 0 M706.08 0 C728.32 -1, 737.49 9.43, 738.08 32 M706.08 0 C727.45 0.82, 736.11 11.35, 738.08 32 M738.08 32 C739.5 362.39, 739.46 693.24, 738.08 867.93 M738.08 32 C736.66 306.11, 736.65 579.62, 738.08 867.93 M738.08 867.93 C737.83 889.57, 729.06 901.08, 706.08 899.93 M738.08 867.93 C740.14 888.95, 727.33 902.08, 706.08 899.93 M706.08 899.93 C489.7 901.45, 273.69 901.59, 32 899.93 M706.08 899.93 C453.73 899.54, 201.29 899.97, 32 899.93 M32 899.93 C12.56 899.3, -0.45 887.85, 0 867.93 M32 899.93 C9.3 899.08, -0.22 888.35, 0 867.93 M0 867.93 C2.56 632.85, 2.79 398.44, 0 32 M0 867.93 C-2.39 666.07, -2.55 464.69, 0 32 M0 32 C-1.55 8.88, 9.46 -1.7, 32 0 M0 32 C0.86 11.15, 11.72 0.22, 32 0" stroke="#000000" stroke-width="1" fill="none"></path></g><g transform="translate(921.8567298231303 438.36659416769146) rotate(0 36 21.600000000000023)"><text x="36" y="0" font-family="Cascadia, Segoe UI Emoji" font-size="36px" fill="#000000" text-anchor="middle" style="white-space: pre;" direction="ltr" dominant-baseline="text-before-edge">图片</text></g><g stroke-linecap="round" transform="translate(618.660429682574 744.3598752445951) rotate(0 107 66.5)"><path d="M7.86 8.16 C7.86 8.16, 7.86 8.16, 7.86 8.16 M7.86 8.16 C7.86 8.16, 7.86 8.16, 7.86 8.16 M3.66 19.09 C5.63 16.39, 7.58 13.18, 18.1 2.48 M3.66 19.09 C7.42 13.52, 12.83 7.9, 18.1 2.48 M2.75 26.24 C8.51 20.39, 15.85 10.42, 24.4 1.33 M2.75 26.24 C7.21 20.89, 14.39 14.29, 24.4 1.33 M2.48 32.64 C13.53 21.9, 21.04 10.73, 30.7 0.18 M2.48 32.64 C9.9 24.2, 18.5 15.31, 30.7 0.18 M2.88 38.28 C8.28 31.66, 15.13 22.86, 34.37 2.05 M2.88 38.28 C8.59 30.94, 14.99 23.25, 34.37 2.05 M2.62 44.68 C11.56 33.5, 20.22 25.09, 39.36 2.41 M2.62 44.68 C11.45 34.04, 22.1 23.54, 39.36 2.41 M2.36 51.07 C9.56 40.54, 21.68 30.32, 45 2.02 M2.36 51.07 C12.98 39.93, 22.52 28.1, 45 2.02 M2.75 56.72 C16.36 44.03, 27 26.72, 49.99 2.38 M2.75 56.72 C17.96 38.18, 34.11 19.99, 49.99 2.38 M2.49 63.11 C16.94 47.11, 27.28 34.17, 55.63 1.98 M2.49 63.11 C19.86 41.92, 37.44 21.26, 55.63 1.98 M2.88 68.76 C16.52 52.73, 30.35 40.11, 60.62 2.34 M2.88 68.76 C16.26 52.87, 27.95 38.07, 60.62 2.34 M2.62 75.16 C18.82 55.65, 38.7 37.22, 66.26 1.95 M2.62 75.16 C22.84 51.32, 44.19 27.57, 66.26 1.95 M2.36 81.55 C28.77 50.31, 55.31 17.41, 71.25 2.31 M2.36 81.55 C28.27 54.33, 52.44 25.51, 71.25 2.31 M2.76 87.2 C32.37 54.17, 59.73 20.22, 76.89 1.91 M2.76 87.2 C30.49 55.77, 55.9 26.65, 76.89 1.91 M2.49 93.59 C32.31 57.64, 62.18 26.94, 81.88 2.27 M2.49 93.59 C33.25 59.83, 61.66 25.34, 81.88 2.27 M2.89 99.24 C27.84 71.5, 50.15 42.49, 87.52 1.88 M2.89 99.24 C35.44 63.44, 66.37 27.85, 87.52 1.88 M2.63 105.64 C23 83.93, 39.45 66.01, 92.51 2.24 M2.63 105.64 C24.22 78.06, 47.61 54.19, 92.51 2.24 M3.02 111.28 C24.14 87.24, 46.31 59.94, 98.15 1.85 M3.02 111.28 C29.79 81.31, 54.46 52.57, 98.15 1.85 M4.73 115.41 C23.8 92.87, 46.22 66.4, 103.14 2.21 M4.73 115.41 C43.01 71.08, 80.35 28.16, 103.14 2.21 M5.12 121.06 C30.13 90.1, 59.74 58.25, 108.78 1.81 M5.12 121.06 C37.25 82.72, 72.4 43.56, 108.78 1.81 M8.14 123.68 C31.83 98.3, 54.33 70.08, 113.77 2.17 M8.14 123.68 C40.26 87.87, 69.96 53.65, 113.77 2.17 M10.51 127.06 C33.52 99.44, 55.5 74.59, 119.41 1.78 M10.51 127.06 C32.64 102.36, 54.46 77.06, 119.41 1.78 M13.52 129.68 C47.48 92.38, 81.48 50.97, 124.4 2.14 M13.52 129.68 C46.22 91.45, 79.82 52.98, 124.4 2.14 M17.86 130.8 C47.93 97.11, 78.02 61.25, 130.04 1.74 M17.86 130.8 C54.85 90.09, 90.47 48.87, 130.04 1.74 M22.19 131.91 C48.16 101.37, 76.71 72.19, 135.03 2.1 M22.19 131.91 C54.53 97.93, 84.78 61.42, 135.03 2.1 M25.86 133.78 C50.5 106.14, 79.43 74.35, 140.67 1.71 M25.86 133.78 C55.82 98.11, 88.67 61.23, 140.67 1.71 M30.85 134.14 C58.66 100.35, 88.54 65.42, 145.66 2.07 M30.85 134.14 C66.84 92.49, 103.12 51.36, 145.66 2.07 M35.18 135.26 C59.83 102.27, 88.66 73.21, 150.65 2.43 M35.18 135.26 C62.37 105.82, 89.13 75.33, 150.65 2.43 M40.17 135.62 C71.68 97.49, 106.83 59.49, 156.29 2.03 M40.17 135.62 C83.15 85.31, 127.09 34.8, 156.29 2.03 M45.81 135.22 C72.14 105.89, 97.93 75.8, 161.28 2.39 M45.81 135.22 C85.08 92.2, 123.24 48.61, 161.28 2.39 M50.8 135.58 C87.51 93.51, 123.6 51.96, 166.92 2 M50.8 135.58 C91.62 90.02, 130.89 45.81, 166.92 2 M56.44 135.19 C90.45 93.03, 128.51 50.37, 171.91 2.36 M56.44 135.19 C89.13 97.86, 122.21 60.4, 171.91 2.36 M61.43 135.55 C86.09 105.92, 114.92 74.79, 177.55 1.96 M61.43 135.55 C97.49 95.36, 133.02 55.38, 177.55 1.96 M66.41 135.91 C110.29 83.91, 154.94 32.45, 183.19 1.57 M66.41 135.91 C111.12 87.88, 154 37.18, 183.19 1.57 M72.06 135.51 C117.66 85.68, 160.33 31.92, 188.18 1.93 M72.06 135.51 C104.77 98.2, 136.51 61.26, 188.18 1.93 M77.04 135.87 C116.41 93.45, 154.42 47.54, 192.51 3.04 M77.04 135.87 C106.87 102.67, 136.33 69.41, 192.51 3.04 M82.69 135.48 C106.81 109.18, 132.27 78.36, 196.84 4.16 M82.69 135.48 C119.91 94.54, 155.52 52.41, 196.84 4.16 M87.67 135.84 C132.3 85.01, 175.1 34.34, 201.83 4.52 M87.67 135.84 C125.61 92, 164.93 46.56, 201.83 4.52 M93.32 135.44 C121.69 103.04, 146.56 76.58, 204.85 7.14 M93.32 135.44 C135.39 88.4, 177.2 41.01, 204.85 7.14 M98.3 135.8 C134.87 93.45, 177.46 47.91, 207.21 10.52 M98.3 135.8 C126.09 104.32, 154.63 71.87, 207.21 10.52 M103.95 135.41 C126.82 108, 153.06 82.21, 210.23 13.15 M103.95 135.41 C127.7 106.31, 153.52 77.04, 210.23 13.15 M108.93 135.77 C139.21 101.35, 166.16 69.33, 211.93 17.28 M108.93 135.77 C144.95 95.79, 180.33 54.63, 211.93 17.28 M114.58 135.38 C139.99 106.76, 164.73 78.2, 212.99 22.17 M114.58 135.38 C154.24 91.54, 192.93 46.77, 212.99 22.17 M119.56 135.74 C150.55 102.64, 178.11 66.58, 215.35 25.55 M119.56 135.74 C154.92 96.1, 189.42 55.92, 215.35 25.55 M125.21 135.34 C152.81 107, 177.73 76.99, 215.09 31.95 M125.21 135.34 C143.87 114.08, 162.24 91.71, 215.09 31.95 M130.19 135.7 C148.07 111.01, 171.24 90.74, 214.83 38.34 M130.19 135.7 C148.98 113, 168.5 90.65, 214.83 38.34 M135.84 135.31 C162.49 107.35, 187.03 75.7, 215.22 43.99 M135.84 135.31 C159.36 108.18, 183.33 81.84, 215.22 43.99 M140.82 135.67 C166.9 103.89, 195.94 71.93, 214.96 50.38 M140.82 135.67 C157.63 115.53, 173.11 98.36, 214.96 50.38 M146.47 135.27 C165.13 112.64, 184.12 89.28, 215.35 56.03 M146.47 135.27 C170.38 106.55, 195.83 78.01, 215.35 56.03 M151.45 135.63 C165.56 116.77, 179.93 102.64, 215.09 62.43 M151.45 135.63 C176.22 105.94, 202.25 77.5, 215.09 62.43 M157.1 135.24 C176.87 114.29, 194.34 90.45, 215.49 68.07 M157.1 135.24 C176.81 112.37, 198.36 86.5, 215.49 68.07 M162.08 135.6 C179.29 116.21, 198.1 93.06, 215.22 74.47 M162.08 135.6 C183.25 113.07, 204.15 88.75, 215.22 74.47 M167.73 135.2 C183.45 115.41, 199.63 96.12, 215.62 80.11 M167.73 135.2 C184.35 115.73, 201.18 98.05, 215.62 80.11 M172.71 135.56 C186 117.79, 202.23 104.59, 215.36 86.51 M172.71 135.56 C189.6 116.84, 206.35 96.96, 215.36 86.51 M178.36 135.17 C189.17 125.36, 195.34 113.2, 215.75 92.15 M178.36 135.17 C187.05 125.52, 195.38 116.67, 215.75 92.15 M184 134.77 C192.13 126.03, 200.34 112, 215.49 98.55 M184 134.77 C195.64 119.87, 208.82 107.14, 215.49 98.55 M190.3 133.62 C197.84 126.38, 204.35 116.06, 216.54 103.44 M190.3 133.62 C200 122.05, 210.22 110.23, 216.54 103.44 M197.25 131.72 C199.54 127.44, 207.27 121, 215.62 110.59 M197.25 131.72 C202.44 125.02, 209.72 118.99, 215.62 110.59" stroke="#fab005" stroke-width="0.5" fill="none"></path><path d="M32 0 M32 0 C70.86 -1.21, 110.8 -0.2, 182 0 M32 0 C71.43 0.63, 112.35 0.57, 182 0 M182 0 C204.28 -1.89, 215.15 12.49, 214 32 M182 0 C201.54 -1.95, 212.56 10.86, 214 32 M214 32 C212.21 56.38, 212.31 83.24, 214 101 M214 32 C214.22 46.13, 214.11 59.17, 214 101 M214 101 C214.27 120.54, 202.07 134.02, 182 133 M214 101 C213.7 120.91, 202.05 131.89, 182 133 M182 133 C143.32 131.4, 105.28 132.98, 32 133 M182 133 C143.67 132.52, 106.55 132.4, 32 133 M32 133 C10.94 133.22, -1.58 122.51, 0 101 M32 133 C11.35 131.51, -2.3 120.67, 0 101 M0 101 C0.44 84.4, -1.59 68.64, 0 32 M0 101 C-1.37 81.18, 0.17 59.48, 0 32 M0 32 C1.51 12.16, 11.26 -0.04, 32 0 M0 32 C2.2 10.12, 8.49 -2.09, 32 0" stroke="#000000" stroke-width="1" fill="none"></path></g><g transform="translate(689.660429682574 789.2598752445952) rotate(0 36 21.600000000000023)"><text x="36" y="0" font-family="Cascadia, Segoe UI Emoji" font-size="36px" fill="#000000" text-anchor="middle" style="white-space: pre;" direction="ltr" dominant-baseline="text-before-edge">时间</text></g><g stroke-linecap="round" transform="translate(845.8850315479237 736.1445756277778) rotate(0 103.57627093200108 33.799999999999955)"><path d="M2.65 6.28 C2.65 6.28, 2.65 6.28, 2.65 6.28 M2.65 6.28 C2.65 6.28, 2.65 6.28, 2.65 6.28 M1.08 14.19 C3.91 11.06, 6.42 7.81, 9.61 4.38 M1.08 14.19 C3.03 11.76, 6.24 8.59, 9.61 4.38 M1.48 19.83 C5.75 13.27, 10.37 8.81, 17.88 0.96 M1.48 19.83 C6.63 12.19, 12.94 6.14, 17.88 0.96 M1.21 26.23 C6.99 21.53, 9.17 14.05, 23.52 0.57 M1.21 26.23 C9.27 16.23, 17.64 6.44, 23.52 0.57 M1.61 31.87 C7.83 24.08, 13.36 18.43, 28.51 0.93 M1.61 31.87 C7.94 23.61, 14.4 15.45, 28.51 0.93 M1.35 38.27 C12.11 24.11, 23.24 11.76, 34.15 0.54 M1.35 38.27 C10.86 27.85, 20.43 16.26, 34.15 0.54 M1.09 44.67 C12.13 27.91, 28.12 14.29, 39.14 0.9 M1.09 44.67 C9.74 34.78, 18.22 25.72, 39.14 0.9 M1.48 50.31 C10.08 39.1, 23.31 27.83, 44.12 1.26 M1.48 50.31 C15.99 33.83, 29.24 17.42, 44.12 1.26 M1.87 55.96 C14.06 41.37, 25.71 27.61, 49.77 0.86 M1.87 55.96 C18.19 35.58, 35.53 16.59, 49.77 0.86 M2.93 60.84 C23 37.54, 43.85 14.38, 54.75 1.22 M2.93 60.84 C21.29 41.83, 38.59 20.28, 54.75 1.22 M5.94 63.47 C21.58 47.21, 36.22 30.1, 60.4 0.83 M5.94 63.47 C25.73 40.96, 45.19 18.53, 60.4 0.83 M8.96 66.09 C20.21 50.44, 31.56 37.85, 65.38 1.19 M8.96 66.09 C31.17 42.51, 51.55 18.29, 65.38 1.19 M11.98 68.72 C22.92 54.37, 35.17 41.08, 71.03 0.79 M11.98 68.72 C26.53 52.25, 39.25 38.84, 71.03 0.79 M17.62 68.32 C30.68 50.26, 46.12 36.5, 76.01 1.15 M17.62 68.32 C40.22 41.33, 62.34 15.38, 76.01 1.15 M23.27 67.93 C39.57 48.44, 56.68 32.27, 81.66 0.76 M23.27 67.93 C46.42 43.06, 67.96 14.96, 81.66 0.76 M28.25 68.29 C42.57 52.84, 53.94 34.16, 86.64 1.12 M28.25 68.29 C41.55 54.97, 52.39 41.23, 86.64 1.12 M33.9 67.89 C47.37 49.61, 64.92 33.66, 92.29 0.72 M33.9 67.89 C47.68 51.35, 61.62 35.72, 92.29 0.72 M38.89 68.25 C53.12 51.4, 67.98 32.29, 97.27 1.08 M38.89 68.25 C58.15 46.71, 75.99 25.1, 97.27 1.08 M43.87 68.61 C62.34 45.49, 82.92 24.82, 102.92 0.69 M43.87 68.61 C62.67 47.6, 82.26 26.8, 102.92 0.69 M49.52 68.22 C60.95 54.07, 77.01 37.98, 107.9 1.05 M49.52 68.22 C65.32 47.44, 83.81 28.08, 107.9 1.05 M54.5 68.58 C67.52 53.06, 81.54 33.72, 113.55 0.65 M54.5 68.58 C73.88 43.87, 96.26 20.58, 113.55 0.65 M60.15 68.18 C82.58 42.36, 101.94 18.95, 118.53 1.01 M60.15 68.18 C82.85 44.29, 103.23 17.39, 118.53 1.01 M65.13 68.54 C85.69 47.59, 104 24.75, 124.18 0.62 M65.13 68.54 C80.65 52.03, 94.34 34.18, 124.18 0.62 M70.78 68.15 C93.65 43, 114.35 17.25, 129.16 0.98 M70.78 68.15 C86.94 50.78, 102.22 33.06, 129.16 0.98 M75.76 68.51 C91.53 50.73, 110.51 29.17, 134.81 0.59 M75.76 68.51 C91.61 50.25, 107.33 30.92, 134.81 0.59 M81.41 68.11 C104.7 42.64, 126.59 16.69, 139.79 0.95 M81.41 68.11 C99.62 45.33, 118.79 23.93, 139.79 0.95 M86.39 68.47 C108.95 44, 134.69 16.79, 145.44 0.55 M86.39 68.47 C101.8 51.41, 118.18 32.93, 145.44 0.55 M92.04 68.08 C109.08 47.23, 125.09 28.05, 150.42 0.91 M92.04 68.08 C105.67 52.14, 120.22 34.53, 150.42 0.91 M97.02 68.44 C114.45 47.64, 131.8 24.64, 155.41 1.27 M97.02 68.44 C111.79 51.85, 124.36 37.28, 155.41 1.27 M102.67 68.05 C124.36 41.97, 146.37 15.21, 161.05 0.88 M102.67 68.05 C121.7 46.85, 141.81 24.69, 161.05 0.88 M107.65 68.41 C122.35 47.38, 139.69 29.23, 166.04 1.24 M107.65 68.41 C129.6 42.62, 152.33 16.68, 166.04 1.24 M113.3 68.01 C130.26 49.74, 144.98 30.21, 171.68 0.84 M113.3 68.01 C134.72 42.62, 157.44 16.21, 171.68 0.84 M118.28 68.37 C134.75 45.56, 156.18 25.57, 176.67 1.2 M118.28 68.37 C132.37 52.51, 147.45 35.32, 176.67 1.2 M123.93 67.98 C138.36 48.87, 152.88 33.03, 182.32 0.81 M123.93 67.98 C139.22 51.82, 153.69 32.31, 182.32 0.81 M128.91 68.34 C142.69 55.4, 153.36 40.15, 187.3 1.17 M128.91 68.34 C152.36 41.31, 174.17 15.92, 187.3 1.17 M134.56 67.94 C152.26 48.76, 165.13 30.5, 192.29 1.53 M134.56 67.94 C152.29 46.76, 170.04 25.68, 192.29 1.53 M139.54 68.3 C159.25 44.76, 181.1 21.24, 197.93 1.13 M139.54 68.3 C156.1 50.64, 172.12 33.13, 197.93 1.13 M145.19 67.91 C165.49 46.28, 185.03 21.98, 200.95 3.76 M145.19 67.91 C164.66 45.72, 185.68 21.58, 200.95 3.76 M150.17 68.27 C167.19 49.74, 179.74 36.04, 203.97 6.38 M150.17 68.27 C171.96 45.52, 192.76 20.72, 203.97 6.38 M155.16 68.63 C169.51 55.96, 182.16 38.76, 206.99 9.01 M155.16 68.63 C168.62 52.59, 183.34 36.18, 206.99 9.01 M160.8 68.23 C175.4 53.15, 188.71 34.33, 208.04 13.89 M160.8 68.23 C178.52 48.18, 197.27 27.06, 208.04 13.89 M165.79 68.59 C179.69 55.48, 191.97 39.92, 207.78 20.29 M165.79 68.59 C174.27 58.97, 183.22 49.46, 207.78 20.29 M171.43 68.2 C185.3 55.13, 195.51 39.74, 207.52 26.69 M171.43 68.2 C180.62 56.75, 192.06 46.07, 207.52 26.69 M176.42 68.56 C185.34 61.3, 191.81 52.48, 207.91 32.33 M176.42 68.56 C182.64 61.05, 189.19 54.19, 207.91 32.33 M182.06 68.16 C190.57 56.54, 198.7 49.06, 207.65 38.73 M182.06 68.16 C189.32 59.85, 194.66 54.14, 207.65 38.73 M187.05 68.52 C195.12 59.73, 202.24 53.58, 207.39 45.13 M187.05 68.52 C193.96 59.64, 201.53 52.85, 207.39 45.13 M192.04 68.88 C195.31 63.17, 199.14 59.3, 207.13 51.53 M192.04 68.88 C196.88 64.61, 201.09 58.9, 207.13 51.53 M198.34 67.74 C200.77 65.13, 202.78 63.43, 206.21 58.68 M198.34 67.74 C199.86 65.47, 201.47 63.67, 206.21 58.68" stroke="#fab005" stroke-width="0.5" fill="none"></path><path d="M16.9 0 M16.9 0 C85.24 0.86, 154.13 1.48, 190.25 0 M16.9 0 C62.8 1.36, 108.37 1.57, 190.25 0 M190.25 0 C202.98 -1.01, 206.22 6.41, 207.15 16.9 M190.25 0 C200.7 -1.88, 204.97 4.98, 207.15 16.9 M207.15 16.9 C208.69 24.94, 207.65 38.33, 207.15 50.7 M207.15 16.9 C207.56 29.34, 206.46 40.49, 207.15 50.7 M207.15 50.7 C208.46 62.48, 201.92 68.72, 190.25 67.6 M207.15 50.7 C207.23 62.97, 203.36 68.51, 190.25 67.6 M190.25 67.6 C133.25 65.43, 77.9 66.33, 16.9 67.6 M190.25 67.6 C129.09 66.36, 68.24 66.67, 16.9 67.6 M16.9 67.6 C5.21 69.03, -1.42 60.42, 0 50.7 M16.9 67.6 C5.69 69.42, 0.54 63.49, 0 50.7 M0 50.7 C-0.53 41.86, 1.18 28.3, 0 16.9 M0 50.7 C-0.52 39.12, 0.29 28.84, 0 16.9 M0 16.9 C1.01 4.74, 6.45 0.84, 16.9 0 M0 16.9 C1.78 6.38, 6.5 -1.56, 16.9 0" stroke="#000000" stroke-width="1" fill="none"></path></g><g transform="translate(877.4613024799248 748.3445756277778) rotate(0 72 21.599999999999966)"><text x="72" y="0" font-family="Cascadia, Segoe UI Emoji" font-size="36px" fill="#000000" text-anchor="middle" style="white-space: pre;" direction="ltr" dominant-baseline="text-before-edge">下单时间</text></g><g stroke-linecap="round" transform="translate(848.0881897249369 813.456552458855) rotate(0 103.57627093200108 33.799999999999955)"><path d="M2.65 6.28 C2.65 6.28, 2.65 6.28, 2.65 6.28 M2.65 6.28 C2.65 6.28, 2.65 6.28, 2.65 6.28 M1.08 14.19 C4.56 11.86, 6.1 8.31, 9.61 4.38 M1.08 14.19 C3.6 10.04, 7.88 7.06, 9.61 4.38 M1.48 19.83 C6.34 16.23, 9.7 9, 17.88 0.96 M1.48 19.83 C8.14 11.39, 15.11 4.79, 17.88 0.96 M1.21 26.23 C7.44 17.97, 11.57 14.08, 23.52 0.57 M1.21 26.23 C10.88 15.85, 18.64 7.28, 23.52 0.57 M1.61 31.87 C9.83 25.97, 14.4 18.31, 28.51 0.93 M1.61 31.87 C8.69 23.42, 15.93 15.97, 28.51 0.93 M1.35 38.27 C12.79 27.6, 23.72 11.66, 34.15 0.54 M1.35 38.27 C11.88 24.41, 24.54 12.34, 34.15 0.54 M1.09 44.67 C11.48 28.92, 24.56 14.59, 39.14 0.9 M1.09 44.67 C15.89 27.46, 29.62 11.2, 39.14 0.9 M1.48 50.31 C10.49 38.54, 18.6 28.5, 44.12 1.26 M1.48 50.31 C12.12 37.71, 22.66 26.17, 44.12 1.26 M1.87 55.96 C11.99 42.85, 24.62 28.86, 49.77 0.86 M1.87 55.96 C16.92 39.35, 31.21 20.78, 49.77 0.86 M2.93 60.84 C15.53 47.69, 26.47 32.09, 54.75 1.22 M2.93 60.84 C19.04 41.84, 34.49 25.58, 54.75 1.22 M5.94 63.47 C18.69 48.49, 32.64 33.54, 60.4 0.83 M5.94 63.47 C17.43 50, 29.73 38.05, 60.4 0.83 M8.96 66.09 C21.51 51.47, 38.35 33.71, 65.38 1.19 M8.96 66.09 C21.42 52.52, 33.88 37.53, 65.38 1.19 M11.98 68.72 C33.37 46.26, 54.52 19.4, 71.03 0.79 M11.98 68.72 C33.42 42.89, 56.53 16.4, 71.03 0.79 M17.62 68.32 C37.12 46.12, 54.31 25.24, 76.01 1.15 M17.62 68.32 C39.44 42.79, 63.34 15.65, 76.01 1.15 M23.27 67.93 C43.93 41.33, 66.58 16.98, 81.66 0.76 M23.27 67.93 C44.62 42.15, 67.19 16.69, 81.66 0.76 M28.25 68.29 C41.94 50.19, 57.78 34.52, 86.64 1.12 M28.25 68.29 C44.82 49.24, 63.41 28.48, 86.64 1.12 M33.9 67.89 C54.37 46.53, 73.55 25.38, 92.29 0.72 M33.9 67.89 C48.8 53.02, 61.55 35.35, 92.29 0.72 M38.89 68.25 C54.03 50.47, 66.8 34.12, 97.27 1.08 M38.89 68.25 C55.24 48.2, 72.63 28.65, 97.27 1.08 M43.87 68.61 C61.55 47.05, 81.56 27.16, 102.92 0.69 M43.87 68.61 C58.31 51.38, 73.75 34.42, 102.92 0.69 M49.52 68.22 C62.69 50.38, 78.85 35.11, 107.9 1.05 M49.52 68.22 C73.4 43.13, 96.27 17.01, 107.9 1.05 M54.5 68.58 C70.77 50.42, 87.32 30.25, 113.55 0.65 M54.5 68.58 C70.47 50.21, 85.04 32.63, 113.55 0.65 M60.15 68.18 C71.92 55.92, 86.48 39.03, 118.53 1.01 M60.15 68.18 C77.4 47.32, 95.27 26.86, 118.53 1.01 M65.13 68.54 C82.65 50.44, 101.71 29.25, 124.18 0.62 M65.13 68.54 C80.8 49.55, 98.78 30.26, 124.18 0.62 M70.78 68.15 C84.14 52.05, 96.69 36.85, 129.16 0.98 M70.78 68.15 C83.5 53.53, 95.64 39.88, 129.16 0.98 M75.76 68.51 C92.39 49.51, 108.4 30.36, 134.81 0.59 M75.76 68.51 C91.9 47.68, 110.93 28.47, 134.81 0.59 M81.41 68.11 C103.17 45.81, 122.22 21.51, 139.79 0.95 M81.41 68.11 C104.15 41.53, 127.11 16.45, 139.79 0.95 M86.39 68.47 C108.9 42.38, 134.86 15.59, 145.44 0.55 M86.39 68.47 C104.37 48.49, 123.2 26.52, 145.44 0.55 M92.04 68.08 C108.22 48.51, 124.25 28.96, 150.42 0.91 M92.04 68.08 C113.8 43.96, 134.3 19.39, 150.42 0.91 M97.02 68.44 C115.44 48.32, 133.49 25.64, 155.41 1.27 M97.02 68.44 C110.52 51.23, 124.52 35.74, 155.41 1.27 M102.67 68.05 C127.94 43.31, 148.4 13.16, 161.05 0.88 M102.67 68.05 C122.81 43.67, 142.31 21.13, 161.05 0.88 M107.65 68.41 C127.93 41.88, 151.6 16.17, 166.04 1.24 M107.65 68.41 C122.31 51.01, 137.48 33.59, 166.04 1.24 M113.3 68.01 C129.63 49.66, 148.66 26, 171.68 0.84 M113.3 68.01 C128.31 50.87, 143.2 34.08, 171.68 0.84 M118.28 68.37 C140.27 40.87, 160.81 16.52, 176.67 1.2 M118.28 68.37 C133.32 52.66, 147.75 35.93, 176.67 1.2 M123.93 67.98 C146.09 43.38, 167.53 17.87, 182.32 0.81 M123.93 67.98 C139.19 49.99, 152.09 33.21, 182.32 0.81 M128.91 68.34 C150.87 39.77, 175.38 16.19, 187.3 1.17 M128.91 68.34 C147.01 48.15, 164.44 28.52, 187.3 1.17 M134.56 67.94 C153.59 45.72, 172.12 25.03, 192.29 1.53 M134.56 67.94 C157.94 43.19, 179.26 16.68, 192.29 1.53 M139.54 68.3 C161.72 44.45, 183.66 18.65, 197.93 1.13 M139.54 68.3 C157.76 48.02, 173.66 29.62, 197.93 1.13 M145.19 67.91 C159.93 50.13, 176.91 32.82, 200.95 3.76 M145.19 67.91 C165.79 42.53, 187.98 17.17, 200.95 3.76 M150.17 68.27 C168.57 47.24, 184.51 28.66, 203.97 6.38 M150.17 68.27 C164.4 53.52, 178.17 36.56, 203.97 6.38 M155.16 68.63 C172.01 49.92, 187.47 30.77, 206.99 9.01 M155.16 68.63 C169.2 53.8, 182.74 36.55, 206.99 9.01 M160.8 68.23 C175.1 49.64, 192.94 31.01, 208.04 13.89 M160.8 68.23 C171.46 56.96, 182.36 43.71, 208.04 13.89 M165.79 68.59 C175.18 56.58, 188.65 43.69, 207.78 20.29 M165.79 68.59 C179.39 53.92, 192.78 37.86, 207.78 20.29 M171.43 68.2 C184.82 50.24, 199.93 36.92, 207.52 26.69 M171.43 68.2 C185.28 52.26, 199.99 34.77, 207.52 26.69 M176.42 68.56 C188.43 56.92, 200.55 43.2, 207.91 32.33 M176.42 68.56 C185.62 58.36, 195.99 45.74, 207.91 32.33 M182.06 68.16 C189.35 57.02, 199.04 48.49, 207.65 38.73 M182.06 68.16 C191.59 58.51, 200.46 47.79, 207.65 38.73 M187.05 68.52 C192.1 61.54, 194.69 58.21, 207.39 45.13 M187.05 68.52 C191.83 62.26, 197.38 56.06, 207.39 45.13 M192.04 68.88 C194.05 66.11, 196.65 63.46, 207.13 51.53 M192.04 68.88 C196.35 65.16, 199.39 61.45, 207.13 51.53 M198.34 67.74 C200.27 65.73, 202.76 63.69, 206.21 58.68 M198.34 67.74 C200.65 65.08, 202.66 61.79, 206.21 58.68" stroke="#fab005" stroke-width="0.5" fill="none"></path><path d="M16.9 0 M16.9 0 C61.02 2.37, 105.02 0.15, 190.25 0 M16.9 0 C51.24 1.2, 86.68 -0.42, 190.25 0 M190.25 0 C200.28 1.94, 205.67 3.82, 207.15 16.9 M190.25 0 C203.28 1.96, 208.54 4.69, 207.15 16.9 M207.15 16.9 C205.23 23.48, 206.5 32.26, 207.15 50.7 M207.15 16.9 C206.49 26.29, 208.05 36.9, 207.15 50.7 M207.15 50.7 C207.36 62.15, 202.45 66.71, 190.25 67.6 M207.15 50.7 C206.57 63.48, 200 68.12, 190.25 67.6 M190.25 67.6 C127.48 68.57, 66.76 66.13, 16.9 67.6 M190.25 67.6 C126.59 67.27, 63.21 66.92, 16.9 67.6 M16.9 67.6 C5.06 67.62, -1.54 62.19, 0 50.7 M16.9 67.6 C7.42 69.38, 1.1 60.2, 0 50.7 M0 50.7 C1.09 37.94, 1.87 24.61, 0 16.9 M0 50.7 C-0.12 42.41, -0.48 36.52, 0 16.9 M0 16.9 C-0.97 5.04, 6.07 -1.41, 16.9 0 M0 16.9 C1.26 4.7, 4.37 -1.89, 16.9 0" stroke="#000000" stroke-width="1" fill="none"></path></g><g transform="translate(879.664460656938 825.656552458855) rotate(0 72 21.600000000000023)"><text x="72" y="0" font-family="Cascadia, Segoe UI Emoji" font-size="36px" fill="#000000" text-anchor="middle" style="white-space: pre;" direction="ltr" dominant-baseline="text-before-edge">下单地址</text></g><g stroke-linecap="round" transform="translate(604.3558825211453 680.3275061579044) rotate(0 257.4978833961834 112.53792683791329)"><path d="M32 0 M32 0 C135.73 -1.73, 238.88 -1.77, 483 0 M32 0 C163.19 1.53, 294.5 1.06, 483 0 M483 0 C505.45 -1.36, 514.23 9.45, 515 32 M483 0 C505.06 2.06, 513.94 9.03, 515 32 M515 32 C514.03 79.14, 514.6 124.85, 515 193.08 M515 32 C515.24 89.65, 514.28 145.34, 515 193.08 M515 193.08 C513.69 216.09, 502.56 223.11, 483 225.08 M515 193.08 C515.89 214.98, 505.5 224.8, 483 225.08 M483 225.08 C378.43 223.55, 273.04 224.8, 32 225.08 M483 225.08 C390.44 226.41, 299.23 225.71, 32 225.08 M32 225.08 C11.7 224.22, -0.84 213.51, 0 193.08 M32 225.08 C10.47 223, 0.64 213.2, 0 193.08 M0 193.08 C-1.41 131.53, -0.12 72.74, 0 32 M0 193.08 C-0.47 157.22, -0.4 121.97, 0 32 M0 32 C0.27 11.82, 9.94 -1.79, 32 0 M0 32 C0.9 8.98, 9.54 0.74, 32 0" stroke="#000000" stroke-width="1" fill="none"></path></g><g stroke-linecap="round"><g transform="translate(635.1391161128997 700.4830651880908) rotate(0 -156.25157739245455 104.15912194502744)"><path d="M0.63 -1.04 C-51.41 33.8, -260.27 173.19, -312.43 208.08 M-0.49 1.02 C-52.64 36.11, -261.08 174.62, -313.14 209.36" stroke="#000000" stroke-width="1" fill="none"></path></g><g transform="translate(635.1391161128997 700.4830651880908) rotate(0 -156.25157739245455 104.15912194502744)"><path d="M-297.1 185.96 C-301.45 193.08, -306.14 199.35, -311.98 208.63 M-295.85 185.52 C-298.8 189.62, -302.49 195.59, -312.71 209.04" stroke="#000000" stroke-width="1" fill="none"></path></g><g transform="translate(635.1391161128997 700.4830651880908) rotate(0 -156.25157739245455 104.15912194502744)"><path d="M-285.72 203.04 C-293.19 205.35, -301.12 206.74, -311.98 208.63 M-284.48 202.6 C-289.89 203.01, -295.97 205.39, -312.71 209.04" stroke="#000000" stroke-width="1" fill="none"></path></g></g><mask></mask><g transform="translate(10 935.5876978303149) rotate(0 226.546875 21.600000000000023)"><text x="226.546875" y="0" font-family="Cascadia, Segoe UI Emoji" font-size="36px" fill="#000000" text-anchor="middle" style="white-space: pre;" direction="ltr" dominant-baseline="text-before-edge">自定义水印， 多种元素组合</text></g><g mask="url(#mask-DMMaw5fF--vXlj67R4nn_)" stroke-linecap="round"><g transform="translate(1351.5598050772758 461.9592831479854) rotate(0 196.50574315881022 -3.7119915584610226)"><path d="M-0.35 -0.38 C64.7 -1.61, 325.85 -6.01, 391.07 -7.04 M1.67 -1.63 C67.02 -2.68, 328.06 -4.37, 393.36 -5.54" stroke="#000000" stroke-width="1" fill="none"></path></g><g transform="translate(1351.5598050772758 461.9592831479854) rotate(0 196.50574315881022 -3.7119915584610226)"><path d="M364.65 3.69 C375.47 -0.23, 386.64 -3.58, 392.35 -3.7 M364.75 5.59 C371.81 2.24, 380.25 -1.46, 393.61 -4.72" stroke="#000000" stroke-width="1" fill="none"></path></g><g transform="translate(1351.5598050772758 461.9592831479854) rotate(0 196.50574315881022 -3.7119915584610226)"><path d="M364.41 -16.83 C375.38 -13.19, 386.63 -9, 392.35 -3.7 M364.51 -14.93 C371.54 -12.98, 380.04 -11.38, 393.61 -4.72" stroke="#000000" stroke-width="1" fill="none"></path></g></g><mask id="mask-DMMaw5fF--vXlj67R4nn_"><rect x="0" y="0" fill="#fff" width="1843.444415524268" height="568.9282500736037"></rect><rect x="1475.5021103007716" y="436.8747996851762" fill="#000" width="144" height="43.199999999999996" opacity="1"></rect></mask><g transform="translate(1475.5021103007716 436.8747996851762) rotate(0 72.56343793531414 21.37249190434818)"><text x="72" y="0" font-family="Cascadia, Segoe UI Emoji" font-size="36px" fill="#000000" text-anchor="middle" style="white-space: pre;" direction="ltr" dominant-baseline="text-before-edge">上传七牛</text></g><g stroke-linecap="round" transform="translate(1766.9429008765871 369.3264680913692) rotate(0 131.84414302404002 101.00101987276878)"><path d="M32.7 33.72 C32.7 33.72, 32.7 33.72, 32.7 33.72 M32.7 33.72 C32.7 33.72, 32.7 33.72, 32.7 33.72 M11.67 64.61 C22.41 51.99, 36.75 34.51, 42.21 26.91 M10.16 65.4 C19.56 54.29, 29.4 43.25, 43.63 27.15 M7.62 74.45 C19.86 60.7, 32.98 45.06, 54.53 18.97 M8.22 74 C24.99 54.44, 43.51 32.86, 55.3 21.44 M6.3 83.75 C21.9 65.1, 36.78 43.13, 66.49 13.44 M5.05 84.19 C26.41 58.6, 47.91 34.26, 64.46 13.73 M3.28 92.16 C20.88 72.21, 40.71 47.35, 69.61 12.5 M1.4 93.29 C25.79 66.86, 50.06 38.53, 70.16 14.68 M1.63 98.72 C26.21 71.62, 54.17 39.87, 77.98 11.04 M1.61 100.85 C28.04 68.44, 56.23 36.99, 78.18 11.4 M4.23 104.03 C30.75 73.96, 55.76 46.01, 84.23 9.66 M1.48 106.19 C23.2 79.15, 46.22 54.08, 84.59 9.86 M1.4 108.58 C30.15 78.68, 59.14 47.74, 92.32 6.45 M3.49 110.21 C21.54 88.26, 39.55 66.27, 92.09 8.19 M3.1 113.88 C27.58 85.35, 50.56 61.43, 99.91 4.95 M4.59 113.94 C34.1 79.32, 64.61 44.53, 97.88 5.95 M6.01 118.13 C35.11 85.25, 64.18 51.24, 105.91 4.43 M6.73 119.65 C41.81 77.92, 80.02 33.76, 104.88 3.99 M9.06 126 C39.12 85.61, 73.69 45.82, 114.82 1.58 M8.08 124.08 C38.71 87.47, 69.18 51.95, 113.54 1.47 M6.41 130.1 C38.41 95.16, 69.56 60.81, 120.37 1.4 M7.5 129.34 C32.18 99.75, 55.36 73.34, 119.12 2.23 M7.78 132.55 C35.1 106.1, 59.4 76.61, 124.4 3.24 M8.46 133.91 C33.17 107.75, 55.29 80.79, 124.08 2.26 M11.35 137.87 C53.9 89.69, 94.93 43.57, 127.89 0.51 M11.5 136.96 C41.47 103.69, 72.43 68.62, 128.66 2.86 M15.47 139.89 C41.13 106.24, 70.86 76.16, 135.22 2.25 M13.45 140.71 C49.71 99.74, 86.74 57.9, 134.74 1.64 M18.2 143.55 C64.63 88.73, 109.95 36.79, 139.82 1.79 M16.65 143.7 C57.98 95.93, 99.21 49.57, 139.08 2.6 M19.65 148.84 C58.24 103.9, 96.81 57.12, 143.78 2.62 M18.71 148.12 C49.43 110.36, 82.57 75.08, 144.4 3.47 M21.59 149.15 C63.33 104.86, 106.91 55.9, 151.46 2.99 M21.79 151.59 C48.86 120.67, 74.79 90.14, 150.63 1.71 M23.08 153.7 C72.89 97, 122.41 37.39, 155.16 0.76 M23.71 154.93 C72.74 95.98, 121.54 38.05, 156.03 2.63 M24.18 157.64 C59.46 119.31, 95.8 77.67, 158.84 2.35 M25.36 158.29 C76.13 100.83, 126.6 41.81, 160.7 2.74 M28.82 160.99 C59.42 126.54, 91.21 90.26, 164.88 3.42 M27.39 160.61 C55.77 129.77, 82.44 97.55, 163.31 3.97 M29.8 163.42 C83.32 100.34, 137.06 41.1, 169.1 6.92 M29.22 165.81 C64.37 125.05, 100.31 84.38, 167.56 5.32 M33.7 165.46 C63.49 131.39, 94.41 95.65, 172.21 7.01 M33.92 167.41 C72.72 123.34, 112.68 77.89, 171.98 7.74 M37.74 169.83 C72.44 127.74, 105.84 88.82, 175.56 8.56 M37.26 168.82 C91.28 106.01, 146.85 42.03, 176.06 8.53 M38.76 173.01 C95.62 108.38, 147.43 46.42, 179.55 9.66 M39.67 170.79 C69.91 138.7, 99.81 104.09, 179.95 9.62 M43.81 174.84 C83.42 132.06, 122.41 86.66, 185.9 11.19 M42.49 173.54 C81.28 130.15, 119.75 85.78, 184.66 10.93 M47.04 174.61 C96.09 119.53, 147.35 60.19, 189.92 12.93 M47.2 175.8 C74.98 143.58, 103.94 109.7, 189.09 12.95 M48.66 179.08 C84.59 137.65, 119.04 97.63, 192.67 13.36 M49.52 178.97 C93.36 128.65, 135.68 79.88, 193.12 14.33 M52.84 181.13 C111.13 117.05, 163.85 54.75, 195.53 16.47 M54.39 180.91 C97.86 130.88, 142.38 80.34, 197.06 14.7 M55.17 181.83 C91.09 143.41, 128.75 102.07, 202.94 17.44 M56.12 183.54 C85.3 149.9, 114.33 115.85, 202.26 15.53 M61.48 186.36 C108.79 126.82, 161.99 66.32, 206.69 19.83 M60.25 184.9 C115.92 120.75, 172.99 55.97, 205.44 17.69 M64.94 187.93 C105.4 138.91, 147.99 89.72, 207.06 19.57 M63.76 186.79 C100.47 145.4, 136.69 103.06, 208.99 20.56 M68.96 187.23 C117.88 129.09, 168.9 69.13, 213.13 23.48 M67.19 189.49 C120.62 130.07, 171.17 71.18, 212.3 22.86 M73.38 188.2 C118.75 136.69, 163.12 84.16, 214.3 24.83 M72.59 190.56 C105.73 153.34, 137.21 116.01, 215.8 25.23 M75.25 191.41 C119.24 136.55, 165.14 86.08, 219.85 26.95 M76.98 191.45 C124.81 135.67, 172.27 82.02, 218.52 27.54 M80.45 191.27 C134.54 127.9, 189.43 64.66, 222.11 30.59 M80.1 192.7 C117.51 151.16, 153.97 110.69, 220.84 29.56 M85.13 192.64 C136.84 132.06, 194.35 68.03, 225.78 29.91 M84.59 194.26 C122.41 148.39, 162.28 102.16, 225.58 31.67 M88.82 196.45 C128.4 148.88, 165.2 103.92, 228.37 34.55 M87.87 194.56 C140.86 134.44, 194.06 73.85, 228.52 33.83 M92.59 195.95 C136.22 144.86, 181.98 94.16, 232.13 37.72 M92.14 196.9 C144.91 136.97, 198.57 75.18, 231.68 36.31 M97.26 197.64 C138.63 150.86, 178.2 105.63, 234.96 38.28 M96.86 198.18 C148.96 139.13, 199.9 79.73, 235.63 38.58 M102.58 199.77 C141.95 151.03, 183.95 103.08, 237.52 41.83 M101.12 198.59 C135.81 160.39, 170.96 121.3, 237.41 41.64 M105.3 202.7 C140.03 162.79, 171.86 121.08, 238.75 46.02 M104.89 200.93 C152.09 147.45, 196.89 94.43, 239.75 45.09 M107.31 202.38 C155.08 147.33, 203.3 90.62, 241.26 47.57 M107.89 203.62 C153.15 152.23, 197.68 100.42, 241.97 48.48 M114.68 203.98 C153.78 159.14, 190.36 114.26, 244.63 50.78 M113.49 203.06 C154.85 156.19, 195.04 109.77, 245.27 52.13 M120.48 201.88 C157.23 158.03, 196.31 115.13, 248.72 55.46 M118.18 203.72 C156.42 161.46, 192.87 118.32, 246.52 55.19 M122.81 202.19 C161.9 162.84, 198.49 118.61, 248.84 58.94 M123.19 203.5 C155.23 169.51, 184.57 134.12, 248.49 59.24 M129.28 203.42 C152.97 175.94, 177.23 148.33, 251.85 61.76 M128.81 203.89 C158.42 171.87, 186.56 138.94, 251.93 62.19 M133.73 204.64 C164.73 169.26, 192.41 135.42, 255.62 66.61 M135.43 202.26 C159.71 171.58, 186.23 140.72, 254.33 66.12 M138.06 202.23 C177.42 161.08, 212.02 115.88, 256.05 69.35 M138.81 203.83 C169.22 166.18, 200.47 130.32, 256.55 69.81 M144.49 202.94 C173.27 171.69, 201.73 138.56, 257.94 73.61 M145.87 202.31 C176.87 165.75, 206.99 131.66, 259.25 72.79 M151.84 202.06 C190.84 156.86, 227.34 113.97, 258.73 78.2 M152.53 201.41 C192.02 154.39, 230.49 110.15, 260.27 78.2 M157.89 199.29 C194.44 159.53, 229.19 119.02, 262.68 83.41 M159.68 200.18 C191.95 160.72, 225.48 122.86, 260.24 82.55 M165.58 198.1 C187.11 172.91, 209.21 146.55, 261.22 85.71 M164.89 197.81 C195.04 165.63, 224.51 130.64, 262.61 87.8 M172.02 194.61 C198.01 168.85, 222.53 139.93, 263.22 93.09 M173 195.93 C196.29 168.32, 220.45 141.54, 263.41 92.2 M180.11 192.47 C204.15 167.56, 227.15 136.51, 264 94.45 M179.32 194.96 C204.14 167, 230.47 136.45, 263.86 97.06 M184.17 194.99 C210.2 163.78, 237.36 133.62, 262.91 103.74 M184.8 193.65 C207.84 169.87, 229.27 144, 263.51 102.37 M191.51 193.24 C210.24 168.81, 230.92 147.64, 261.6 111.26 M193.19 190.62 C217.15 161.84, 242.76 131.71, 262.03 111.52 M196.19 191.21 C215.31 168.22, 237.63 148.51, 259.66 118.61 M198.31 190.98 C216.26 170.23, 233.47 149.65, 260.5 119.7 M209.02 183.62 C218.05 175.32, 227.77 161.19, 256.94 126.05 M207.67 185.52 C219.08 173.7, 228.93 161.89, 259.18 128.66 M221.63 177.41 C232.44 164.68, 240.49 153.51, 256.52 136.12 M220.07 177.73 C233.55 163.58, 246.49 148.65, 256.14 137.84" stroke="#fab005" stroke-width="0.5" fill="none"></path><path d="M112.4 0.42 C126.33 -2.91, 143.61 -1.01, 158.39 1.5 C173.17 4.02, 188.3 9.41, 201.09 15.51 C213.87 21.6, 225.94 29.05, 235.09 38.08 C244.24 47.11, 251.28 58.95, 255.97 69.67 C260.67 80.4, 263.39 91.18, 263.24 102.43 C263.09 113.68, 260.46 126.16, 255.07 137.18 C249.67 148.2, 240.77 159.74, 230.84 168.53 C220.92 177.32, 208.71 184.58, 195.49 189.92 C182.28 195.27, 166.62 198.83, 151.55 200.6 C136.48 202.38, 119.75 202.79, 105.07 200.56 C90.39 198.32, 76.1 193.29, 63.45 187.18 C50.81 181.06, 38.49 173, 29.22 163.87 C19.94 154.73, 12.75 143.18, 7.79 132.37 C2.83 121.57, -0.82 110.28, -0.52 99.04 C-0.23 87.8, 4.03 75.79, 9.56 64.91 C15.09 54.04, 22.7 42.56, 32.64 33.79 C42.58 25.03, 54.96 17.7, 69.2 12.31 C83.43 6.92, 109.13 3.19, 118.05 1.48 C126.98 -0.24, 122.56 0.64, 122.75 2.02 M100.25 1.46 C113.33 -2.71, 131.21 -2.1, 146.22 -0.41 C161.22 1.28, 176.76 6.45, 190.29 11.59 C203.81 16.73, 216.77 22.39, 227.35 30.42 C237.94 38.46, 247.88 49.18, 253.79 59.81 C259.71 70.44, 262.18 82.69, 262.86 94.18 C263.54 105.68, 261.97 117.68, 257.87 128.79 C253.76 139.9, 247.34 151.53, 238.22 160.83 C229.1 170.13, 215.98 178.3, 203.16 184.6 C190.35 190.91, 175.84 195.96, 161.32 198.66 C146.81 201.36, 131 201.92, 116.08 200.78 C101.16 199.64, 84.98 196.88, 71.8 191.83 C58.62 186.78, 47.37 179.17, 37 170.48 C26.63 161.79, 15.56 150.25, 9.57 139.67 C3.59 129.09, 1.97 118.13, 1.08 107.01 C0.19 95.89, -0.01 84.12, 4.24 72.96 C8.5 61.8, 17.57 49.55, 26.61 40.05 C35.65 30.54, 46.08 22.33, 58.5 15.95 C70.92 9.57, 93.9 3.54, 101.12 1.76 C108.35 -0.01, 101.44 3.74, 101.84 5.32" stroke="#000000" stroke-width="1" fill="none"></path></g><g transform="translate(1862.5591563085993 448.80898190534583) rotate(0 36 21.600000000000023)"><text x="36" y="0" font-family="Cascadia, Segoe UI Emoji" font-size="36px" fill="#000000" text-anchor="middle" style="white-space: pre;" direction="ltr" dominant-baseline="text-before-edge">存储</text></g><g stroke-linecap="round"><g transform="translate(1919.8246128073374 590.2862756767526) rotate(0 0.787376278159627 131.36036059852)"><path d="M-0.44 -0.43 C-0.62 43.36, -0.5 219.03, -0.34 263.01 M1.54 -1.71 C1.68 42.24, 2.32 220.01, 2.03 264.43" stroke="#000000" stroke-width="1" fill="none"></path></g><g transform="translate(1919.8246128073374 590.2862756767526) rotate(0 0.787376278159627 131.36036059852)"><path d="M-8.94 235.15 C-4.77 246.88, -0.39 257.47, 2.94 263.38 M-7.5 237.15 C-4.52 242.76, -1.82 250.58, 1.76 264.93" stroke="#000000" stroke-width="1" fill="none"></path></g><g transform="translate(1919.8246128073374 590.2862756767526) rotate(0 0.787376278159627 131.36036059852)"><path d="M11.59 235.17 C8.26 246.81, 5.15 257.4, 2.94 263.38 M13.02 237.17 C10.55 242.83, 7.81 250.64, 1.76 264.93" stroke="#000000" stroke-width="1" fill="none"></path></g></g><mask></mask><g transform="translate(1518.4599748175897 877.875940477539) rotate(0 406.4062500000001 21.600000000000023)"><text x="406.40625" y="0" font-family="Cascadia, Segoe UI Emoji" font-size="36px" fill="#000000" text-anchor="middle" style="white-space: pre;" direction="ltr" dominant-baseline="text-before-edge">获取地址， https://qiniu.com/img/xxx.png</text></g><g mask="url(#mask-Rh7xL8B94sM4Km0nzCCgF)" stroke-linecap="round"><g transform="translate(1959.0468297855828 945.7253669049255) rotate(0 -417.0048501817268 105.12667261458569)"><path d="M-1.16 -0.41 C-66.06 36.93, -251.16 225.54, -389.86 223.28 C-528.57 221.02, -759.4 25.37, -833.39 -13.97 M0.44 -1.66 C-64.07 35.83, -248.61 226.05, -387.75 224.21 C-526.9 222.37, -760.06 27.13, -834.45 -12.7" stroke="#000000" stroke-width="1" fill="none"></path></g><g transform="translate(1959.0468297855828 945.7253669049255) rotate(0 -417.0048501817268 105.12667261458569)"><path d="M-805.96 -7.56 C-814.74 -8.7, -820.56 -11.21, -832.59 -12.76 M-805.88 -5.61 C-812.33 -7.35, -818.85 -8.81, -834.49 -12.04" stroke="#000000" stroke-width="1" fill="none"></path></g><g transform="translate(1959.0468297855828 945.7253669049255) rotate(0 -417.0048501817268 105.12667261458569)"><path d="M-817.31 9.53 C-823.04 4.06, -825.9 -2.9, -832.59 -12.76 M-817.23 11.48 C-820.81 5.53, -824.55 -0.11, -834.49 -12.04" stroke="#000000" stroke-width="1" fill="none"></path></g></g><mask id="mask-Rh7xL8B94sM4Km0nzCCgF"><rect x="0" y="0" fill="#fff" width="2891.8710444294265" height="1284.0358773301532"></rect><rect x="1408.3278257343593" y="1148.552388533023" fill="#000" width="324" height="43.199999999999996" opacity="1"></rect></mask><g transform="translate(1408.327825734359 1148.552388533023) rotate(0 133.71415386949667 -97.70034901351187)"><text x="162" y="0" font-family="Cascadia, Segoe UI Emoji" font-size="36px" fill="#000000" text-anchor="middle" style="white-space: pre;" direction="ltr" dominant-baseline="text-before-edge">打开带有水印的图片</text></g></svg>