<svg version="1.1" xmlns="http://www.w3.org/2000/svg" viewBox="0 0 1773.4265029736268 1175.7336991457805" width="1773.4265029736268" height="1175.7336991457805">
  <!-- svg-source:excalidraw -->
  
  <defs>
    <style class="style-fonts">
      @font-face {
        font-family: "Virgil";
        src: url("https://excalidraw.com/Virgil.woff2");
      }
      @font-face {
        font-family: "Cascadia";
        src: url("https://excalidraw.com/Cascadia.woff2");
      }
    </style>
  </defs>
  <rect x="0" y="0" width="1773.4265029736268" height="1175.7336991457805" fill="#ffffff"></rect><g stroke-linecap="round" transform="translate(706.5189653063201 111.06523095680086) rotate(0 158.486328125 229.474609375)"><path d="M32 0 M32 0 C119.67 -1.56, 207.33 -0.27, 284.97 0 M32 0 C91.42 -0.96, 150.7 -0.94, 284.97 0 M284.97 0 C307.07 -0.04, 315.32 10.59, 316.97 32 M284.97 0 C308.1 -1.47, 317.22 8.92, 316.97 32 M316.97 32 C319.58 114.54, 319.18 197.42, 316.97 426.95 M316.97 32 C317.18 123.88, 317.23 215.88, 316.97 426.95 M316.97 426.95 C317.72 448.41, 308.25 459.47, 284.97 458.95 M316.97 426.95 C315.6 446.69, 307.84 458.81, 284.97 458.95 M284.97 458.95 C217.43 459.54, 145.84 459.92, 32 458.95 M284.97 458.95 C207.44 458.19, 128.72 457.52, 32 458.95 M32 458.95 C9.3 458.53, 1.72 450.14, 0 426.95 M32 458.95 C10.35 459.68, -0.6 446.16, 0 426.95 M0 426.95 C-2.27 275.81, -1.34 125.41, 0 32 M0 426.95 C-2.03 341.94, -1.86 256.13, 0 32 M0 32 C-1.82 9.41, 11.98 -0.5, 32 0 M0 32 C-1.44 9.11, 9.22 0.64, 32 0" stroke="#000000" stroke-width="1" fill="none"></path></g><g stroke-linecap="round" transform="translate(717.3446116826087 122.21757470680086) rotate(0 150.072265625 31.728515625)"><path d="M4.22 3.67 C4.22 3.67, 4.22 3.67, 4.22 3.67 M4.22 3.67 C4.22 3.67, 4.22 3.67, 4.22 3.67 M3.31 10.82 C5.64 9.68, 6.86 8.01, 10.52 2.52 M3.31 10.82 C6.1 7.54, 9.02 4.04, 10.52 2.52 M2.39 17.98 C6.66 12.03, 15.15 3.63, 16.82 1.37 M2.39 17.98 C6.81 11.82, 12.39 7.6, 16.82 1.37 M2.78 23.62 C8.39 16.9, 12.46 11.8, 22.46 0.98 M2.78 23.62 C8.49 19.29, 12.54 12.31, 22.46 0.98 M2.52 30.02 C8.03 21.73, 13.95 16.13, 27.45 1.34 M2.52 30.02 C12.31 19.66, 22.35 6.85, 27.45 1.34 M2.92 35.66 C13.25 23.97, 26.32 9.84, 33.09 0.94 M2.92 35.66 C9.38 27.17, 17.49 19.74, 33.09 0.94 M3.31 41.3 C11.36 29.75, 21.78 21.16, 38.08 1.3 M3.31 41.3 C13.74 28.34, 24.77 16.44, 38.08 1.3 M3.05 47.7 C12.17 39.67, 18.35 28.03, 43.72 0.91 M3.05 47.7 C13.59 36.36, 23.33 23.95, 43.72 0.91 M1.48 55.61 C16.42 35.11, 35.55 17.5, 48.71 1.27 M1.48 55.61 C18.54 34.43, 36.43 15.58, 48.71 1.27 M4.49 58.23 C16.82 44.03, 27.3 30.65, 54.35 0.87 M4.49 58.23 C22.75 37.12, 40.86 16.62, 54.35 0.87 M6.86 61.61 C23.33 41.78, 39.33 25.02, 59.34 1.23 M6.86 61.61 C22.26 42.72, 36.72 24.51, 59.34 1.23 M11.19 62.73 C31.76 38.4, 55.29 15.07, 64.98 0.84 M11.19 62.73 C23.72 49.44, 37.05 33.63, 64.98 0.84 M14.21 65.35 C36.11 42.87, 53.08 20.19, 69.97 1.2 M14.21 65.35 C32.16 44.28, 50.68 23.79, 69.97 1.2 M19.85 64.96 C31.55 51.02, 43.33 35.92, 75.61 0.81 M19.85 64.96 C37.38 43.77, 56.02 21.81, 75.61 0.81 M24.84 65.32 C43.08 43.89, 63.65 20.8, 80.6 1.17 M24.84 65.32 C46.37 41.07, 68.18 15.49, 80.6 1.17 M30.48 64.92 C42.51 53, 52.05 35.87, 86.24 0.77 M30.48 64.92 C47.81 45.12, 64.9 27.19, 86.24 0.77 M35.47 65.28 C54.52 46.19, 71.62 23.26, 91.23 1.13 M35.47 65.28 C51.17 46.71, 68.81 28.52, 91.23 1.13 M41.11 64.89 C53.13 48.24, 69.55 33.4, 96.22 1.49 M41.11 64.89 C60.33 42.67, 81.55 19.66, 96.22 1.49 M46.1 65.25 C67 39.39, 89.81 17.11, 101.86 1.1 M46.1 65.25 C67.39 41.41, 86.11 19.09, 101.86 1.1 M51.74 64.85 C66.77 47.18, 83.81 28.12, 106.85 1.46 M51.74 64.85 C70.59 41.8, 90.55 20.28, 106.85 1.46 M56.73 65.21 C70.55 45.95, 85.88 31.04, 112.49 1.06 M56.73 65.21 C77.72 40.16, 98.08 15.79, 112.49 1.06 M62.37 64.82 C83.46 42.38, 104.35 20.43, 117.48 1.42 M62.37 64.82 C79.51 45.87, 96.73 25.64, 117.48 1.42 M67.36 65.18 C81.41 49.55, 98.9 29.07, 123.12 1.03 M67.36 65.18 C79.35 50.2, 93.28 34.71, 123.12 1.03 M72.34 65.54 C91.71 43.98, 111.78 18.78, 128.11 1.39 M72.34 65.54 C83.7 51.89, 95.39 39.23, 128.11 1.39 M77.99 65.14 C87.96 53, 101.53 36.58, 133.75 0.99 M77.99 65.14 C96.38 44.03, 113.52 24.69, 133.75 0.99 M82.97 65.5 C94.42 51.5, 105.59 40.2, 138.74 1.35 M82.97 65.5 C97.07 49.07, 112.27 30.05, 138.74 1.35 M88.62 65.11 C105.66 45.79, 123.54 28.63, 144.38 0.96 M88.62 65.11 C106.21 46.61, 121.38 27.54, 144.38 0.96 M93.6 65.47 C112.7 44.67, 131.83 25.56, 149.37 1.32 M93.6 65.47 C109.79 47.23, 124.12 30.31, 149.37 1.32 M99.25 65.07 C112.83 46.76, 126.99 31.85, 155.01 0.92 M99.25 65.07 C117.9 45.5, 135.44 25.22, 155.01 0.92 M104.23 65.43 C124.73 43.71, 146.13 17.97, 160 1.28 M104.23 65.43 C116.33 50.59, 127.41 37.64, 160 1.28 M109.88 65.04 C124.14 50.57, 136.31 31.65, 165.64 0.89 M109.88 65.04 C122.68 49.07, 136.17 33.3, 165.64 0.89 M114.86 65.4 C127.67 49.55, 139.51 34.69, 170.63 1.25 M114.86 65.4 C128.3 49, 143.38 34.09, 170.63 1.25 M120.51 65.01 C137.98 44.2, 155.42 22.39, 176.27 0.85 M120.51 65.01 C131.53 50.88, 143.06 36.95, 176.27 0.85 M125.49 65.37 C144.8 43.13, 160.76 21.43, 181.26 1.21 M125.49 65.37 C144.27 43.82, 163.56 21.62, 181.26 1.21 M131.14 64.97 C150.32 42.3, 166.16 23.76, 186.25 1.57 M131.14 64.97 C146.04 48.9, 158.91 33.92, 186.25 1.57 M136.12 65.33 C154.62 46.27, 170.6 30.37, 191.89 1.18 M136.12 65.33 C150.19 49.46, 164.19 31.68, 191.89 1.18 M141.77 64.94 C155.25 49.58, 168.11 36.47, 196.88 1.54 M141.77 64.94 C157.76 46.08, 173.84 26.43, 196.88 1.54 M146.75 65.3 C156.62 54.52, 170.33 39.9, 202.52 1.15 M146.75 65.3 C163.61 44.94, 183.01 23.46, 202.52 1.15 M152.4 64.9 C162.14 50.06, 174.16 37.25, 207.51 1.51 M152.4 64.9 C172.21 41.45, 191.56 20.49, 207.51 1.51 M157.38 65.26 C171.27 50.16, 183.54 33.35, 213.15 1.11 M157.38 65.26 C173.14 46.69, 187.89 29.62, 213.15 1.11 M162.37 65.62 C182.5 42.57, 203.61 17.71, 218.14 1.47 M162.37 65.62 C180.38 44.09, 198.57 23.67, 218.14 1.47 M168.01 65.23 C190.57 40.11, 211.52 13.72, 223.78 1.08 M168.01 65.23 C181.83 49.7, 195.9 33.34, 223.78 1.08 M173 65.59 C191.95 43.24, 212.85 17.5, 228.77 1.44 M173 65.59 C185.4 51.98, 196.8 38.54, 228.77 1.44 M178.64 65.19 C198.58 41, 218.64 17.55, 234.41 1.04 M178.64 65.19 C197.42 41.83, 217.27 20.27, 234.41 1.04 M183.63 65.55 C197.2 48.09, 211.8 34.63, 239.4 1.4 M183.63 65.55 C199.16 46.58, 216.84 28.65, 239.4 1.4 M189.27 65.16 C202.96 45.87, 220.46 30.33, 245.04 1.01 M189.27 65.16 C205.9 45.74, 220.65 28.13, 245.04 1.01 M194.26 65.52 C205.49 53.79, 217.66 39.74, 250.03 1.37 M194.26 65.52 C214.25 41.61, 232.38 19.78, 250.03 1.37 M199.9 65.12 C217.9 43.12, 236.39 23.11, 255.67 0.97 M199.9 65.12 C218.8 42.71, 240.18 18.35, 255.67 0.97 M204.89 65.48 C226.41 38.96, 249.7 13.98, 260.66 1.33 M204.89 65.48 C218.6 50.19, 232.5 34.25, 260.66 1.33 M210.54 65.09 C232.39 40.42, 251.64 18.04, 266.3 0.94 M210.54 65.09 C224.21 47.39, 239.57 31.84, 266.3 0.94 M215.52 65.45 C230.4 47.93, 246.36 27.32, 271.29 1.3 M215.52 65.45 C235.63 43.56, 254.11 22.07, 271.29 1.3 M221.17 65.05 C240.45 43.29, 257.58 21.59, 276.27 1.66 M221.17 65.05 C234.19 49.5, 248.28 33.86, 276.27 1.66 M226.15 65.41 C237.26 52.28, 247.73 38.3, 281.92 1.26 M226.15 65.41 C242.23 46.55, 257.05 29.32, 281.92 1.26 M231.8 65.02 C252.21 39.64, 271.19 18.71, 288.22 0.12 M231.8 65.02 C254.49 39.38, 275.69 13.71, 288.22 0.12 M236.78 65.38 C255.74 45.34, 274.41 24.01, 291.89 1.98 M236.78 65.38 C258.24 38.94, 279.35 14.03, 291.89 1.98 M242.43 64.99 C260.26 46.42, 275.92 26.7, 295.57 3.85 M242.43 64.99 C261.06 43.4, 282.54 19.4, 295.57 3.85 M247.41 65.35 C262.94 49.92, 277.16 30.66, 298.58 6.48 M247.41 65.35 C263.03 46.6, 281.56 27.39, 298.58 6.48 M252.4 65.71 C265.84 49.47, 275.96 37, 300.95 9.86 M252.4 65.71 C263.15 52.13, 274.17 39.88, 300.95 9.86 M258.04 65.31 C277.23 47.37, 291.14 25.71, 300.69 16.26 M258.04 65.31 C275.34 46.56, 292.42 27.17, 300.69 16.26 M263.03 65.67 C278.72 48.1, 292.26 34.46, 301.08 21.9 M263.03 65.67 C278.18 47.89, 293.4 30.46, 301.08 21.9 M268.67 65.28 C279.57 50.54, 293.29 37.51, 300.82 28.3 M268.67 65.28 C281.58 50.32, 294.1 35.72, 300.82 28.3 M273.66 65.64 C281.58 59.59, 286.04 49.44, 301.21 33.94 M273.66 65.64 C282.65 55.48, 290.46 46.96, 301.21 33.94 M279.3 65.24 C283.59 57.49, 290.75 51.19, 300.95 40.34 M279.3 65.24 C284.19 59.96, 290.92 52.44, 300.95 40.34 M285.6 64.09 C290.89 56.19, 294.98 52.23, 301.35 45.98 M285.6 64.09 C292.13 56.77, 297.73 49.45, 301.35 45.98 M291.9 62.94 C295.21 60.41, 298.66 55.2, 301.09 52.38 M291.9 62.94 C294.68 59.77, 297.64 56.31, 301.09 52.38" stroke="#fd7e14" stroke-width="0.5" fill="none"></path><path d="M15.86 0 M15.86 0 C79.86 -1.05, 146.06 -2.3, 284.28 0 M15.86 0 C77.2 0.02, 138.49 1.06, 284.28 0 M284.28 0 C295.93 -0.19, 300.68 4.02, 300.14 15.86 M284.28 0 C296.52 1.94, 299.7 6.19, 300.14 15.86 M300.14 15.86 C299.55 27.29, 299.76 37.28, 300.14 47.59 M300.14 15.86 C300.83 23.09, 299.01 28.74, 300.14 47.59 M300.14 47.59 C301.58 58.05, 295.3 61.76, 284.28 63.46 M300.14 47.59 C301.23 60.01, 293.61 64.92, 284.28 63.46 M284.28 63.46 C226.3 63.02, 167.71 65.51, 15.86 63.46 M284.28 63.46 C216.48 62.62, 149.04 63.05, 15.86 63.46 M15.86 63.46 C6.3 62.39, -0.15 58.46, 0 47.59 M15.86 63.46 C6.93 62.7, -1.65 58.54, 0 47.59 M0 47.59 C1.63 35.59, 0.29 23.39, 0 15.86 M0 47.59 C-0.11 40.7, -0.76 34.34, 0 15.86 M0 15.86 C1.56 4.66, 5.68 -1.73, 15.86 0 M0 15.86 C-0.77 3.86, 6.02 -0.93, 15.86 0" stroke="#000000" stroke-width="1" fill="none"></path></g><g stroke-linecap="round" transform="translate(719.0907054326087 199.50663720680086) rotate(0 146.53515625 179.931640625)"><path d="M32 0 M32 0 C89.72 -1.6, 149.91 -2.35, 261.07 0 M32 0 C89.11 -0.74, 146.59 0.38, 261.07 0 M261.07 0 C283.2 -1.75, 292.22 11.13, 293.07 32 M261.07 0 C283.56 1.68, 294.79 10.23, 293.07 32 M293.07 32 C291.58 115.14, 292.35 200.25, 293.07 327.86 M293.07 32 C293.21 131.43, 292.72 229.51, 293.07 327.86 M293.07 327.86 C293.27 347.64, 282.95 358.59, 261.07 359.86 M293.07 327.86 C293.11 347.18, 280.8 359.98, 261.07 359.86 M261.07 359.86 C214.93 360.46, 170.55 359.71, 32 359.86 M261.07 359.86 C203.38 357.73, 143.38 358.13, 32 359.86 M32 359.86 C9.78 361.77, -0.25 347.94, 0 327.86 M32 359.86 C9.85 357.95, -1.05 351.39, 0 327.86 M0 327.86 C-0.23 235.07, 1.71 143.69, 0 32 M0 327.86 C-0.45 254.33, -0.56 181.05, 0 32 M0 32 C-0.21 10.92, 9.23 1.64, 32 0 M0 32 C-1.21 10.11, 11.12 -1.63, 32 0" stroke="#000000" stroke-width="1" fill="none"></path></g><g transform="translate(800.2625804326087 360.92460595680086) rotate(0 66.93994140625 12.5)"><text x="0" y="0" font-family="Virgil, Segoe UI Emoji" font-size="20px" fill="#000000" text-anchor="start" style="white-space: pre;" direction="ltr" dominant-baseline="text-before-edge">ListView Page</text></g><g transform="translate(728.3094554326087 144.52616845680086) rotate(0 20 12.5)"><text x="0" y="0" font-family="Virgil, Segoe UI Emoji" font-size="20px" fill="#087f5b" text-anchor="start" style="white-space: pre;" direction="ltr" dominant-baseline="text-before-edge">返回</text></g><g transform="translate(963.7274241826087 143.38163720680086) rotate(0 20 12.5)"><text x="0" y="0" font-family="Virgil, Segoe UI Emoji" font-size="20px" fill="#000000" text-anchor="start" style="white-space: pre;" direction="ltr" dominant-baseline="text-before-edge">筛选</text></g><g transform="translate(853.3641429326087 143.19804345680086) rotate(0 20 12.5)"><text x="0" y="0" font-family="Virgil, Segoe UI Emoji" font-size="20px" fill="#000000" text-anchor="start" style="white-space: pre;" direction="ltr" dominant-baseline="text-before-edge">首页</text></g><g stroke-linecap="round"><g transform="translate(732.1844554326087 159.10429345680086) rotate(0 -83.99209035024887 13.214548467096535)"><path d="M-0.53 -0.06 C-15.79 -3.29, -62.96 -26.17, -91.02 -18.42 C-119.08 -10.67, -155.74 35.99, -168.88 46.44 M1.39 -1.13 C-13.54 -3.65, -60.37 -24.57, -88.82 -16.94 C-117.28 -9.31, -155.86 34.35, -169.37 44.65" stroke="#087f5b" stroke-width="1" fill="none"></path></g><g transform="translate(732.1844554326087 159.10429345680086) rotate(0 -83.99209035024887 13.214548467096535)"><path d="M-155.55 16.43 C-160.17 27.93, -162.96 35.31, -171.2 45.16 M-155.44 19.06 C-158.72 24.45, -163.22 31.28, -169.03 44.82" stroke="#087f5b" stroke-width="1" fill="none"></path></g><g transform="translate(732.1844554326087 159.10429345680086) rotate(0 -83.99209035024887 13.214548467096535)"><path d="M-141.72 31.59 C-151.17 37.87, -158.68 40.08, -171.2 45.16 M-141.61 34.22 C-148.42 35.53, -156.54 38.41, -169.03 44.82" stroke="#087f5b" stroke-width="1" fill="none"></path></g></g><mask></mask><g transform="translate(489.30945543260873 214.48319970680086) rotate(0 58.579933166503906 12.5)"><text x="0" y="0" font-family="Virgil, Segoe UI Emoji" font-size="20px" fill="#087f5b" text-anchor="start" style="white-space: pre;" direction="ltr" dominant-baseline="text-before-edge">router.go(-1)</text></g><g stroke-linecap="round"><g transform="translate(551.7224638503894 252.77226220680092) rotate(0 -0.18692134033855723 45.9920649379352)"><path d="M0.98 -0.53 C0.72 14.81, -0.28 75.81, -0.91 90.93 M0.04 1.8 C-0.36 17.46, -1.28 77.62, -1.36 92.52" stroke="#087f5b" stroke-width="1" fill="none"></path></g><g transform="translate(551.7224638503894 252.77226220680092) rotate(0 -0.18692134033855723 45.9920649379352)"><path d="M-12.19 65.82 C-7.87 72.64, -5.54 84.51, -2.19 91.95 M-11.74 63.67 C-8.75 70.44, -6.1 78.54, -1.88 93.41" stroke="#087f5b" stroke-width="1" fill="none"></path></g><g transform="translate(551.7224638503894 252.77226220680092) rotate(0 -0.18692134033855723 45.9920649379352)"><path d="M8.33 66.05 C5.35 72.96, 0.38 84.75, -2.19 91.95 M8.78 63.9 C6.79 70.49, 4.45 78.54, -1.88 93.41" stroke="#087f5b" stroke-width="1" fill="none"></path></g></g><mask></mask><g transform="translate(466.56336168260873 369.63163720680086) rotate(0 74.60992431640625 12.5)"><text x="0" y="0" font-family="Virgil, Segoe UI Emoji" font-size="20px" fill="#087f5b" text-anchor="start" style="white-space: pre;" direction="ltr" dominant-baseline="text-before-edge">console.log(xxx)</text></g><g transform="translate(470.5315623662025 420.65507470680086) rotate(0 74.60992431640625 12.5)"><text x="0" y="0" font-family="Virgil, Segoe UI Emoji" font-size="20px" fill="#087f5b" text-anchor="start" style="white-space: pre;" direction="ltr" dominant-baseline="text-before-edge">console.log(xxx)</text></g><g transform="translate(465.50476793260873 287.22148095680086) rotate(0 40 12.5)"><text x="0" y="0" font-family="Virgil, Segoe UI Emoji" font-size="20px" fill="#087f5b" text-anchor="start" style="white-space: pre;" direction="ltr" dominant-baseline="text-before-edge">执行俩次</text></g><g stroke-linecap="round"><g transform="translate(480.17273668260873 236.04569970680086) rotate(0 -77.33027793676594 1.6404975719750041)"><path d="M-0.52 -0.74 C-26.58 0.08, -129.52 3.15, -155.72 4.02 M1.4 1.49 C-24.77 2, -129.93 1.86, -156.06 2.02" stroke="#087f5b" stroke-width="1" fill="none"></path></g><g transform="translate(480.17273668260873 236.04569970680086) rotate(0 -77.33027793676594 1.6404975719750041)"><path d="M-129.12 -6.36 C-137.45 -6.28, -146.59 -0.19, -156.12 3.02 M-127.96 -7.53 C-134.86 -7.01, -140.43 -4.63, -156.63 1.14" stroke="#087f5b" stroke-width="1" fill="none"></path></g><g transform="translate(480.17273668260873 236.04569970680086) rotate(0 -77.33027793676594 1.6404975719750041)"><path d="M-129.07 14.16 C-137.27 7.03, -146.43 5.92, -156.12 3.02 M-127.91 12.99 C-134.62 8.94, -140.2 6.74, -156.63 1.14" stroke="#087f5b" stroke-width="1" fill="none"></path></g></g><mask></mask><g stroke-linecap="round" transform="translate(52.57898668260873 151.20976220680086) rotate(0 120.171875 199.1015625)"><path d="M32 0 M32 0 C72.68 1.99, 114.37 2.84, 208.34 0 M32 0 C74.27 0.33, 115.79 -0.14, 208.34 0 M208.34 0 C227.73 1.98, 239.96 11.62, 240.34 32 M208.34 0 C231.41 2.18, 242.28 10.16, 240.34 32 M240.34 32 C239.87 136.8, 240.64 241.58, 240.34 366.2 M240.34 32 C238.4 148.43, 238.95 264.24, 240.34 366.2 M240.34 366.2 C241.76 386.42, 228.02 397.03, 208.34 398.2 M240.34 366.2 C242.53 386.5, 228.85 398.93, 208.34 398.2 M208.34 398.2 C153.84 398.42, 103.27 399.81, 32 398.2 M208.34 398.2 C153.27 396.86, 96.18 397.31, 32 398.2 M32 398.2 C9.63 398.11, 1.68 388.07, 0 366.2 M32 398.2 C12.86 397.13, 1.67 386.67, 0 366.2 M0 366.2 C-0.54 256.8, -1.9 145.12, 0 32 M0 366.2 C0.18 275.6, 0.72 184.72, 0 32 M0 32 C0.29 9.26, 11.91 1.52, 32 0 M0 32 C-1.95 8.4, 12.12 -0.79, 32 0" stroke="#087f5b" stroke-width="1" fill="none"></path></g><g stroke-linecap="round" transform="translate(60.16492418260873 488.73319970680086) rotate(0 111.595703125 24.294921875)"><path d="M12.15 0 M12.15 0 C58.85 1.96, 104.77 0.17, 211.04 0 M12.15 0 C88.57 1.09, 164.2 0.96, 211.04 0 M211.04 0 C218.63 -0.46, 222.86 2.37, 223.19 12.15 M211.04 0 C219.33 0.04, 225.27 2.92, 223.19 12.15 M223.19 12.15 C224.13 16.79, 223.77 23.58, 223.19 36.44 M223.19 12.15 C222.49 20.95, 222.8 30.71, 223.19 36.44 M223.19 36.44 C222.88 46.19, 220.91 47.11, 211.04 48.59 M223.19 36.44 C222.53 43.62, 218.85 47.68, 211.04 48.59 M211.04 48.59 C159.22 46.82, 108.46 49.59, 12.15 48.59 M211.04 48.59 C147.9 46.2, 83.53 47.46, 12.15 48.59 M12.15 48.59 C4.26 46.88, 0.27 46.34, 0 36.44 M12.15 48.59 C2.61 46.54, -1.88 45.57, 0 36.44 M0 36.44 C0.14 29.69, 2 21.89, 0 12.15 M0 36.44 C-0.95 29.22, -1.08 20.97, 0 12.15 M0 12.15 C1.86 3.33, 3.05 -1.12, 12.15 0 M0 12.15 C0.15 3.6, 5.13 1.44, 12.15 0" stroke="#087f5b" stroke-width="1" fill="none"></path></g><g stroke-linecap="round" transform="translate(62.71570543260873 172.15898095680086) rotate(0 108.556640625 150.404296875)"><path d="M32 0 M32 0 C89.6 -0.57, 145.09 0.25, 185.11 0 M32 0 C87.13 0, 143.78 -1.89, 185.11 0 M185.11 0 C208.33 -0.17, 218.46 12.44, 217.11 32 M185.11 0 C204.68 1.05, 216.81 8.58, 217.11 32 M217.11 32 C217.57 106.38, 218.58 184.53, 217.11 268.81 M217.11 32 C217.89 111, 216.69 190.43, 217.11 268.81 M217.11 268.81 C215.43 290.82, 204.76 300.42, 185.11 300.81 M217.11 268.81 C219.16 291.08, 206.4 300.72, 185.11 300.81 M185.11 300.81 C133.29 297.56, 77.44 297.76, 32 300.81 M185.11 300.81 C146.35 301.39, 107.85 299.75, 32 300.81 M32 300.81 C11.35 299.43, -1.19 289.97, 0 268.81 M32 300.81 C12.17 302.08, 1.76 291.79, 0 268.81 M0 268.81 C-1.7 175.59, -1.29 84.81, 0 32 M0 268.81 C-2.58 191.3, -2.41 113.89, 0 32 M0 32 C-1.05 9.74, 9 -1.76, 32 0 M0 32 C1.37 9.4, 11.1 -0.05, 32 0" stroke="#087f5b" stroke-width="1" fill="none"></path></g><g transform="translate(122.75086168260873 295.45585595680086) rotate(0 41.41998291015625 12.5)"><text x="0" y="0" font-family="Virgil, Segoe UI Emoji" font-size="20px" fill="#087f5b" text-anchor="start" style="white-space: pre;" direction="ltr" dominant-baseline="text-before-edge">App 首页</text></g><g stroke-linecap="round"><g transform="translate(934.8797679326087 137.31913720680086) rotate(0 168.71232053563006 -52.302794395078266)"><path d="M-0.76 -0.21 C11.56 -21.18, 17.97 -129.33, 74.46 -125.51 C130.95 -121.69, 294.2 -1.84, 338.18 22.71 M1.05 -1.36 C13.16 -22.7, 17.39 -130.93, 73.47 -127.23 C129.55 -123.53, 293.29 -4.18, 337.51 20.84" stroke="#e67700" stroke-width="1" fill="none"></path></g><g transform="translate(934.8797679326087 137.31913720680086) rotate(0 168.71232053563006 -52.302794395078266)"><path d="M307.9 14.13 C319.62 17, 329.88 19.55, 337.47 19.17 M308.13 14.01 C319.01 16.43, 330.47 19.22, 338.06 21.37" stroke="#e67700" stroke-width="1" fill="none"></path></g><g transform="translate(934.8797679326087 137.31913720680086) rotate(0 168.71232053563006 -52.302794395078266)"><path d="M318.98 -3.14 C326.94 5.59, 333.39 14.08, 337.47 19.17 M319.21 -3.26 C325.86 5.74, 333.06 15.18, 338.06 21.37" stroke="#e67700" stroke-width="1" fill="none"></path></g></g><mask></mask><g transform="translate(1217.3094554326087 175.48319970680086) rotate(0 122.21998596191406 12.5)"><text x="0" y="0" font-family="Virgil, Segoe UI Emoji" font-size="20px" fill="#e67700" text-anchor="start" style="white-space: pre;" direction="ltr" dominant-baseline="text-before-edge">采用vant组件的二次封装；</text></g><g transform="translate(1214.0672679326087 216.48319970680086) rotate(0 212.21998596191406 37.5)"><text x="0" y="0" font-family="Virgil, Segoe UI Emoji" font-size="20px" fill="#e67700" text-anchor="start" style="white-space: pre;" direction="ltr" dominant-baseline="text-before-edge">而vant对于左侧点击和右侧点击的事件分别为：</text><text x="0" y="25" font-family="Virgil, Segoe UI Emoji" font-size="20px" fill="#e67700" text-anchor="start" style="white-space: pre;" direction="ltr" dominant-baseline="text-before-edge">    @left-click="" 和 @right-click=""</text><text x="0" y="50" font-family="Virgil, Segoe UI Emoji" font-size="20px" fill="#e67700" text-anchor="start" style="white-space: pre;" direction="ltr" dominant-baseline="text-before-edge">这俩个api是vant组件自带的；</text></g><g transform="translate(1217.3094554326087 332.48319970680086) rotate(0 223.18997192382812 62.5)"><text x="0" y="0" font-family="Virgil, Segoe UI Emoji" font-size="20px" fill="#c92a2a" text-anchor="start" style="white-space: pre;" direction="ltr" dominant-baseline="text-before-edge">而项目采用的是vue3，没有了根节点之说，可多个</text><text x="0" y="25" font-family="Virgil, Segoe UI Emoji" font-size="20px" fill="#c92a2a" text-anchor="start" style="white-space: pre;" direction="ltr" dominant-baseline="text-before-edge">跟节点；</text><text x="0" y="50" font-family="Virgil, Segoe UI Emoji" font-size="20px" fill="#c92a2a" text-anchor="start" style="white-space: pre;" direction="ltr" dominant-baseline="text-before-edge"></text><text x="0" y="75" font-family="Virgil, Segoe UI Emoji" font-size="20px" fill="#c92a2a" text-anchor="start" style="white-space: pre;" direction="ltr" dominant-baseline="text-before-edge">不同的是，vue3的跟节点直接写组件，而在夫组件</text><text x="0" y="100" font-family="Virgil, Segoe UI Emoji" font-size="20px" fill="#c92a2a" text-anchor="start" style="white-space: pre;" direction="ltr" dominant-baseline="text-before-edge">直接调用跟组件自带的方法是可以的；</text></g><g transform="translate(10 752.8156980025866) rotate(0 295.46875 167.99999999999994)"><text x="0" y="0" font-family="Cascadia, Segoe UI Emoji" font-size="20px" fill="#364fc7" text-anchor="start" style="white-space: pre;" direction="ltr" dominant-baseline="text-before-edge">子组件</text><text x="0" y="24" font-family="Cascadia, Segoe UI Emoji" font-size="20px" fill="#364fc7" text-anchor="start" style="white-space: pre;" direction="ltr" dominant-baseline="text-before-edge">&lt;template&gt;</text><text x="0" y="48" font-family="Cascadia, Segoe UI Emoji" font-size="20px" fill="#364fc7" text-anchor="start" style="white-space: pre;" direction="ltr" dominant-baseline="text-before-edge">    &lt;!-- 这里是vant自带顶部导航组件 跟节点直接用组件 --&gt;</text><text x="0" y="72" font-family="Cascadia, Segoe UI Emoji" font-size="20px" fill="#364fc7" text-anchor="start" style="white-space: pre;" direction="ltr" dominant-baseline="text-before-edge">    &lt;vant @left-click="leftClick"  /&gt;</text><text x="0" y="96" font-family="Cascadia, Segoe UI Emoji" font-size="20px" fill="#364fc7" text-anchor="start" style="white-space: pre;" direction="ltr" dominant-baseline="text-before-edge">&lt;/template&gt;</text><text x="0" y="120" font-family="Cascadia, Segoe UI Emoji" font-size="20px" fill="#364fc7" text-anchor="start" style="white-space: pre;" direction="ltr" dominant-baseline="text-before-edge">&lt;script&gt;</text><text x="0" y="144" font-family="Cascadia, Segoe UI Emoji" font-size="20px" fill="#364fc7" text-anchor="start" style="white-space: pre;" direction="ltr" dominant-baseline="text-before-edge">    leftClick: () =&gt; {</text><text x="0" y="168" font-family="Cascadia, Segoe UI Emoji" font-size="20px" fill="#364fc7" text-anchor="start" style="white-space: pre;" direction="ltr" dominant-baseline="text-before-edge">        emit('left-click')</text><text x="0" y="192" font-family="Cascadia, Segoe UI Emoji" font-size="20px" fill="#364fc7" text-anchor="start" style="white-space: pre;" direction="ltr" dominant-baseline="text-before-edge">    }</text><text x="0" y="216" font-family="Cascadia, Segoe UI Emoji" font-size="20px" fill="#364fc7" text-anchor="start" style="white-space: pre;" direction="ltr" dominant-baseline="text-before-edge">&lt;/script&gt;</text><text x="0" y="240" font-family="Cascadia, Segoe UI Emoji" font-size="20px" fill="#364fc7" text-anchor="start" style="white-space: pre;" direction="ltr" dominant-baseline="text-before-edge"></text><text x="0" y="264" font-family="Cascadia, Segoe UI Emoji" font-size="20px" fill="#364fc7" text-anchor="start" style="white-space: pre;" direction="ltr" dominant-baseline="text-before-edge"></text><text x="0" y="288" font-family="Cascadia, Segoe UI Emoji" font-size="20px" fill="#364fc7" text-anchor="start" style="white-space: pre;" direction="ltr" dominant-baseline="text-before-edge"></text><text x="0" y="312" font-family="Cascadia, Segoe UI Emoji" font-size="20px" fill="#364fc7" text-anchor="start" style="white-space: pre;" direction="ltr" dominant-baseline="text-before-edge"></text></g><g transform="translate(765.9611258713711 757.9215794660536) rotate(0 251.95312499999994 132)"><text x="0" y="0" font-family="Cascadia, Segoe UI Emoji" font-size="20px" fill="#364fc7" text-anchor="start" style="white-space: pre;" direction="ltr" dominant-baseline="text-before-edge">父组件</text><text x="0" y="24" font-family="Cascadia, Segoe UI Emoji" font-size="20px" fill="#364fc7" text-anchor="start" style="white-space: pre;" direction="ltr" dominant-baseline="text-before-edge">&lt;template&gt;</text><text x="0" y="48" font-family="Cascadia, Segoe UI Emoji" font-size="20px" fill="#364fc7" text-anchor="start" style="white-space: pre;" direction="ltr" dominant-baseline="text-before-edge">    &lt;!-- 这里的组件是左侧的子组件 --&gt;</text><text x="0" y="72" font-family="Cascadia, Segoe UI Emoji" font-size="20px" fill="#364fc7" text-anchor="start" style="white-space: pre;" direction="ltr" dominant-baseline="text-before-edge">    &lt;child-vant @left-click="leftClick"  /&gt;</text><text x="0" y="96" font-family="Cascadia, Segoe UI Emoji" font-size="20px" fill="#364fc7" text-anchor="start" style="white-space: pre;" direction="ltr" dominant-baseline="text-before-edge">&lt;/template&gt;</text><text x="0" y="120" font-family="Cascadia, Segoe UI Emoji" font-size="20px" fill="#364fc7" text-anchor="start" style="white-space: pre;" direction="ltr" dominant-baseline="text-before-edge">&lt;script&gt;</text><text x="0" y="144" font-family="Cascadia, Segoe UI Emoji" font-size="20px" fill="#364fc7" text-anchor="start" style="white-space: pre;" direction="ltr" dominant-baseline="text-before-edge">    leftClick: () =&gt; {</text><text x="0" y="168" font-family="Cascadia, Segoe UI Emoji" font-size="20px" fill="#364fc7" text-anchor="start" style="white-space: pre;" direction="ltr" dominant-baseline="text-before-edge">        // 这里就会执行俩次</text><text x="0" y="192" font-family="Cascadia, Segoe UI Emoji" font-size="20px" fill="#364fc7" text-anchor="start" style="white-space: pre;" direction="ltr" dominant-baseline="text-before-edge">        console.log('test');</text><text x="0" y="216" font-family="Cascadia, Segoe UI Emoji" font-size="20px" fill="#364fc7" text-anchor="start" style="white-space: pre;" direction="ltr" dominant-baseline="text-before-edge">    }</text><text x="0" y="240" font-family="Cascadia, Segoe UI Emoji" font-size="20px" fill="#364fc7" text-anchor="start" style="white-space: pre;" direction="ltr" dominant-baseline="text-before-edge">&lt;/script&gt;</text></g><g stroke-linecap="round" transform="translate(939.9726599588232 819.416395782397) rotate(0 143.99496421584206 23.179709931377488)"><path d="M3.91 17.98 C3.91 17.98, 3.91 17.98, 3.91 17.98 M3.91 17.98 C3.91 17.98, 3.91 17.98, 3.91 17.98 M3.65 25.75 C4.01 22.51, 6.44 21.82, 11.18 15.29 M2.1 25.75 C6.29 21.28, 9.22 18.08, 11.55 15.08 M7.35 26.06 C11.42 21.01, 17.13 16.65, 20.78 12.37 M6 28.02 C10.28 24.71, 13.6 20.35, 19.48 12.81 M9.48 31.66 C11.24 26.18, 16.93 22.74, 26.03 7.91 M8.72 31.36 C15.02 22.73, 22.62 15.85, 27.82 8.43 M14.15 31.57 C19.21 22.89, 28.57 16.41, 33.47 9.72 M12.86 32.83 C20.17 23.58, 27.92 13.85, 32.53 8.09 M17.36 32.57 C23.03 26.24, 34.37 16.28, 39.07 7.38 M16.79 33.79 C23.48 24.86, 32.35 15.55, 38.96 8.69 M22.52 33.48 C27.27 30.71, 31.29 23.64, 46.48 8.67 M20.88 36.04 C26.45 29.07, 29.58 23.63, 45.4 8.02 M25.77 38.29 C30.39 27.96, 38.74 21.1, 50.29 6.42 M25.98 36.77 C31.28 30.06, 37.46 22.07, 51.53 7.45 M30.43 35.31 C36.82 26.87, 45.05 21.4, 55.79 8.13 M29.09 37.48 C37.04 28.93, 44.31 21.56, 55.39 7.36 M35.62 39 C41.87 29.36, 44.91 24.29, 60.94 4.35 M35.14 37.68 C44.61 25.73, 56.24 13.14, 62.46 5.28 M40.07 39.63 C47.42 26.65, 57.54 17.87, 69.56 5.82 M38 38.33 C44.63 30.75, 52.5 24.38, 68.17 4.94 M44.01 39.66 C52.48 26.61, 63.89 14.01, 73.81 6.06 M43.54 40 C54.07 28.38, 63.31 16.88, 73.43 4.57 M47.11 42.09 C56.35 33.08, 62.38 25.07, 79.48 3.03 M48.77 41.11 C56.56 32.13, 63.71 22.54, 79.19 4.46 M51.58 40.84 C63.33 32.32, 73.8 19.85, 85.16 5.48 M52.17 42.07 C64.65 28.03, 76.14 12.87, 84.79 5.05 M54.77 42.12 C63.68 36.24, 71.94 28, 90.1 3.1 M57.37 42.45 C65.02 32.01, 72.1 23.22, 90.97 2.94 M59.74 44.6 C69.91 34.54, 78.44 21.5, 95.47 3.63 M61.03 43 C74.02 29.92, 86.35 15.44, 96.35 3.8 M67.1 44.99 C72.82 33.32, 84.67 25.72, 100.17 2.48 M65.79 45.03 C80.26 27.51, 93.75 12.54, 102.43 1.78 M72.18 42.64 C79.83 33.76, 88.66 20.07, 106.08 3.84 M70.64 44.83 C85.4 28.62, 98.7 12.45, 108 2.5 M76.99 46.26 C86.25 33.28, 97.78 21.11, 115.91 0.61 M76.09 44.16 C91.14 27.48, 104.51 11.61, 114.21 0.68 M80.72 44.93 C90.41 35.65, 97.35 22.91, 119.16 -0.77 M81.84 45.14 C91.38 31.97, 102.1 20.36, 119.68 0.91 M86.91 47.06 C94.79 32.09, 106.99 21.86, 126.5 1.81 M85.13 44.98 C95.06 36.65, 102.32 26.56, 126.09 -0.51 M91.4 46.5 C105.27 32.87, 117.96 16.3, 131.78 -0.49 M91.91 45.88 C99.82 36.53, 108.39 26.49, 129.42 -0.33 M94.79 43.85 C107.92 32.16, 119.35 21.08, 134.52 -0.84 M96.45 46.24 C106.43 33.85, 117.61 21.98, 135.52 0.09 M99.76 47.7 C112.32 30.85, 124.95 17.17, 142.48 -0.57 M101.86 45.58 C110.71 36.6, 118.42 26.01, 139.98 0.71 M106.8 48.14 C116.38 34.83, 122.91 27.96, 144.8 -1.15 M107.04 46.01 C119.79 32.44, 130.52 18.32, 146.38 0.74 M111.55 45.97 C120.69 36.79, 129.41 26.78, 150.66 0.06 M111.14 47.13 C121.82 35.13, 132.02 23.38, 152.17 0.59 M117.91 45.25 C130.82 27.93, 148.21 13.08, 157.69 2.59 M117.92 46.47 C129.61 32.69, 141.39 18.16, 156.29 0.54 M123.34 46.51 C131.01 33.79, 144.97 22.48, 161.93 -0.72 M122.2 46.48 C138.06 28.97, 152.99 12.3, 162.25 0.95 M126.66 48.3 C137.09 32.97, 150.22 19.9, 167.7 0.66 M126.88 47.9 C138.56 32.22, 151.47 19.89, 167.26 0.43 M133.28 48.37 C141.39 36.67, 150.59 24.25, 170.11 2.06 M131.32 46.72 C147.84 29.14, 161.82 12.52, 169.89 2.79 M135.74 49.01 C151.25 29.6, 167.53 11.75, 177.58 2.7 M137.12 47.4 C147.24 36.53, 157.62 24.92, 175.77 3.96 M142.29 46.41 C149.81 36.7, 161.38 26.06, 180.46 4.13 M141.78 48 C157.1 32.47, 171.18 15.51, 181.42 4.18 M145.39 48.62 C159.17 34.82, 170.83 19.32, 184.18 2.33 M146.54 47.93 C156.1 37.57, 165.73 26.93, 186.59 3.97 M152.89 49.29 C164.11 35.38, 173.31 25.6, 191.82 3.32 M152.63 47.57 C165.81 34.84, 176.26 19.46, 189.98 3.54 M159.32 47.69 C170.41 32.69, 183.52 15.81, 195.95 5.3 M157.81 48.03 C167.63 37.53, 177.56 26.84, 196.32 4.72 M163.05 48.73 C175.19 32.76, 188.59 20.29, 202.55 4.77 M164.65 47.02 C176.33 33.51, 187.24 19.3, 201.44 4.9 M168.82 46.63 C185.07 30.29, 196.78 14.07, 206.84 6.65 M170.33 46.35 C180.39 32.92, 192.97 19.11, 205.29 5 M175.65 47.03 C185.46 33.98, 197.74 20.12, 209.18 6.42 M175.69 45.81 C184.27 37.94, 192.63 28.01, 211.07 5.36 M180.03 45.88 C189.95 39.17, 197.33 27.48, 216.28 2.72 M179.61 45.89 C190.91 33.88, 200.45 22.7, 217.53 4.22 M186.43 44.54 C196.56 35.32, 205.98 21.82, 223.76 5.52 M186.72 46.71 C199.07 32.8, 210.65 17.69, 222.86 5.64 M191.23 44.44 C200.03 36.79, 211.24 24.89, 227.31 5.94 M192.51 46.47 C199.7 36.8, 208.96 26.9, 226.89 5.16 M197.91 45.42 C205.31 35.66, 215.34 23.82, 231.91 5.41 M197.7 45.6 C208.87 32.79, 217.91 22.21, 231.6 6.79 M201.59 43.63 C213.7 31.16, 223.47 21.01, 237.07 4.79 M203.98 44.51 C210.98 36.46, 216.94 27.82, 235.52 5.9 M208.89 45.15 C221.43 30.2, 233.92 14.59, 238.71 8.22 M209.07 44.96 C216 36.07, 223.97 25.56, 240.77 6.94 M215.14 43.1 C225.02 31.67, 234.09 20.27, 246.94 7.05 M215.08 43.05 C224.41 32.35, 233.71 22.47, 246.06 9.13 M220.96 43.03 C231.85 32.15, 240.99 21.06, 249.43 11.15 M220.3 42.35 C227.56 35.37, 236.32 25.38, 249.24 9.6 M228.09 41.04 C236.24 30.88, 245.24 19.26, 256.46 9.07 M226.23 41.93 C236.71 31.26, 247.25 18.97, 255.52 9.38 M231.92 41.15 C238.77 32.87, 246.54 22.28, 259.57 12.19 M233.28 41.43 C239.03 34.86, 245.82 26.62, 259.33 11.33 M238.8 40.45 C247.11 28.2, 256.77 18.03, 264.03 11.53 M237.26 42.12 C245.84 31.48, 253.67 23.48, 263.98 12.8 M241.77 42.68 C250.18 33.77, 256.35 26.48, 266.12 14.93 M244.32 40.21 C252.42 30.74, 259.12 22.13, 268.08 12.58 M250.54 38.65 C256.66 33.02, 259.47 27.31, 273.58 12.4 M250.1 39.16 C255.65 34.24, 260.16 27.26, 273.26 14.09 M258.65 37.08 C264.53 29.82, 271.28 22.5, 277.59 14.24 M256.09 38.27 C262.25 31.15, 267.92 25.67, 277.26 15.34 M263.38 34.77 C269.64 27.09, 277.45 20.56, 280.55 17.21 M264.71 36.69 C268.07 30.45, 273.47 25.69, 280.95 16.83 M270.27 33.92 C274.21 30.46, 279.3 25.16, 284.02 18.58 M271.05 34.56 C276.16 28.23, 281.11 20.71, 285.4 17.49 M277.39 35.36 C277.87 32.11, 280.64 27.53, 286.1 21.37 M276.44 34.25 C279.85 30.34, 282.4 27.18, 286.46 21.67" stroke="#fab005" stroke-width="0.5" fill="none"></path><path d="M114.42 0.4 C130.24 -0.44, 151.37 -0.07, 168.37 0.51 C185.38 1.1, 201.51 2.4, 216.45 3.9 C231.38 5.4, 246.98 7.56, 257.96 9.5 C268.94 11.43, 277.22 12.81, 282.3 15.49 C287.39 18.18, 289.8 22.62, 288.46 25.63 C287.12 28.63, 281.79 30.95, 274.28 33.5 C266.77 36.04, 256.14 39.13, 243.39 40.92 C230.64 42.72, 214.01 43.3, 197.78 44.27 C181.55 45.25, 163.09 46.69, 146.01 46.78 C128.92 46.87, 111.39 45.92, 95.25 44.81 C79.11 43.69, 62.41 41.91, 49.14 40.07 C35.87 38.24, 23.66 36.35, 15.63 33.82 C7.6 31.3, 2.93 27.57, 0.99 24.91 C-0.95 22.26, -0.26 20.54, 3.99 17.89 C8.24 15.25, 16.11 11.29, 26.48 9.04 C36.85 6.8, 50.24 5.98, 66.22 4.41 C82.2 2.84, 111.46 0.12, 122.37 -0.39 C133.29 -0.91, 131.28 0.72, 131.74 1.32 M116.29 -0.68 C132.4 -1.42, 153.6 1.24, 170.45 1.75 C187.31 2.26, 202.91 1.12, 217.43 2.37 C231.96 3.63, 246.67 7, 257.6 9.29 C268.54 11.58, 278.05 13.61, 283.03 16.12 C288.01 18.63, 289.13 21.59, 287.48 24.36 C285.83 27.12, 280.71 29.85, 273.13 32.71 C265.54 35.56, 254.85 39.44, 241.96 41.47 C229.06 43.51, 211.95 43.89, 195.77 44.91 C179.59 45.93, 162.08 47.62, 144.89 47.58 C127.7 47.53, 109.01 45.71, 92.64 44.64 C76.27 43.56, 59.57 42.71, 46.68 41.11 C33.79 39.52, 22.92 37.8, 15.3 35.07 C7.67 32.34, 2.51 27.98, 0.93 24.75 C-0.65 21.52, 1.13 18.18, 5.81 15.68 C10.48 13.18, 18.83 11.82, 28.97 9.74 C39.11 7.66, 52.15 4.85, 66.64 3.21 C81.13 1.56, 107.46 0.3, 115.92 -0.13 C124.39 -0.56, 116.98 0.38, 117.43 0.63" stroke="#d9480f" stroke-width="1" fill="none"></path></g><g mask="url(#mask-zCwkmZAyWwCyDSXOkfMRx)" stroke-linecap="round"><g transform="translate(1065.9192241898918 805.170661763087) rotate(0 -428.2724808885143 -95.97502556902941)"><path d="M1.19 0.04 C-79.53 -31.83, -340.05 -188.33, -483.21 -190.42 C-626.36 -192.52, -795.62 -42.18, -857.73 -12.53 M0.35 -0.99 C-80.65 -33.24, -341.74 -190.29, -484.35 -191.97 C-626.96 -193.65, -793.52 -41.18, -855.32 -11.07" stroke="#d9480f" stroke-width="1" fill="none"></path></g><g transform="translate(1065.9192241898918 805.170661763087) rotate(0 -428.2724808885143 -95.97502556902941)"><path d="M-837.29 -35.72 C-842.42 -27.03, -850.78 -14.51, -854.87 -9.79 M-836.37 -35.78 C-841.66 -29.5, -844.71 -24.83, -855.63 -10.08" stroke="#d9480f" stroke-width="1" fill="none"></path></g><g transform="translate(1065.9192241898918 805.170661763087) rotate(0 -428.2724808885143 -95.97502556902941)"><path d="M-826.05 -18.55 C-835.69 -16.47, -848.45 -10.67, -854.87 -9.79 M-825.12 -18.62 C-832.8 -15.91, -838.18 -14.79, -855.63 -10.08" stroke="#d9480f" stroke-width="1" fill="none"></path></g></g><mask id="mask-zCwkmZAyWwCyDSXOkfMRx"><rect x="0" y="0" fill="#fff" width="2022.739786720645" height="1096.6742394267549"></rect><rect x="253.78930151812278" y="565.667084099419" fill="#000" width="658.59375" height="96" opacity="1"></rect></mask><g transform="translate(253.78930151812278 565.667084099419) rotate(0 383.8574417832547 143.5285520946386)"><text x="329.296875" y="0" font-family="Cascadia, Segoe UI Emoji" font-size="20px" fill="#c92a2a" text-anchor="middle" style="white-space: pre;" direction="ltr" dominant-baseline="text-before-edge">父组件的left-click可以直接调用</text><text x="329.296875" y="24" font-family="Cascadia, Segoe UI Emoji" font-size="20px" fill="#c92a2a" text-anchor="middle" style="white-space: pre;" direction="ltr" dominant-baseline="text-before-edge">子组件(前提是子组件必须直接写在跟节点，没有容器包含)自带的api方法</text><text x="329.296875" y="48" font-family="Cascadia, Segoe UI Emoji" font-size="20px" fill="#c92a2a" text-anchor="middle" style="white-space: pre;" direction="ltr" dominant-baseline="text-before-edge"></text><text x="329.296875" y="72" font-family="Cascadia, Segoe UI Emoji" font-size="20px" fill="#c92a2a" text-anchor="middle" style="white-space: pre;" direction="ltr" dominant-baseline="text-before-edge">父组件调用子组件自带api直接执行了一次， 输出了 “test” 日志</text></g><g stroke-linecap="round" transform="translate(116.8276434157014 814.6608945852324) rotate(0 69.83019154348816 18.99289861372307)"><path d="M2.53 2.2 C2.53 2.2, 2.53 2.2, 2.53 2.2 M2.53 2.2 C2.53 2.2, 2.53 2.2, 2.53 2.2 M0.95 10.1 C2.4 6.99, 6.62 5.56, 9.48 0.29 M0.95 10.1 C3.47 7.62, 5.44 3.59, 9.48 0.29 M0.69 16.5 C3.33 10.09, 8.66 6.45, 15.13 -0.1 M0.69 16.5 C3.71 11.87, 7.34 8.17, 15.13 -0.1 M1.09 22.15 C6.07 17.56, 10.75 8.79, 20.11 0.26 M1.09 22.15 C6.72 14.91, 12.83 9.24, 20.11 0.26 M1.48 27.79 C8.46 20.55, 10.54 15.53, 25.76 -0.14 M1.48 27.79 C11.09 18.22, 19.32 7.03, 25.76 -0.14 M1.88 33.43 C9.34 25.81, 13.97 21.91, 30.74 0.22 M1.88 33.43 C13.67 20.43, 22.74 9.07, 30.74 0.22 M4.24 36.81 C10.73 30.43, 17.95 19.91, 35.73 0.58 M4.24 36.81 C11.79 26.11, 22.11 17.29, 35.73 0.58 M7.26 39.43 C17.22 28.53, 24.57 17.86, 41.37 0.19 M7.26 39.43 C15.58 29.89, 24.69 19.74, 41.37 0.19 M12.9 39.04 C23.25 28.16, 32.09 14.13, 46.36 0.55 M12.9 39.04 C23.42 27.23, 35.53 13.87, 46.36 0.55 M17.89 39.4 C30.61 25.88, 44.55 10.48, 52 0.16 M17.89 39.4 C27.79 27.42, 38.12 16.43, 52 0.16 M23.53 39.01 C32.53 26.21, 46.63 14.73, 56.99 0.52 M23.53 39.01 C32.44 28.4, 43.05 16.54, 56.99 0.52 M28.52 39.37 C41.38 25.7, 53.15 11.67, 62.63 0.12 M28.52 39.37 C40.47 25.37, 51.25 12.79, 62.63 0.12 M34.16 38.97 C44.07 27.22, 54.27 15.54, 67.62 0.48 M34.16 38.97 C47.82 24.75, 61.12 8.19, 67.62 0.48 M39.15 39.33 C48.87 30.81, 55.85 20.11, 73.26 0.09 M39.15 39.33 C47.42 30.73, 57.06 19.98, 73.26 0.09 M44.14 39.69 C51.02 29.24, 60.76 20.4, 78.25 0.45 M44.14 39.69 C54.22 26.96, 65.14 15.3, 78.25 0.45 M49.78 39.3 C60.66 28.47, 67.33 17.58, 83.24 0.81 M49.78 39.3 C61.85 26.08, 74.35 12.03, 83.24 0.81 M54.77 39.66 C64.7 29.97, 73.99 15.99, 88.88 0.41 M54.77 39.66 C61.6 31.45, 68.85 24.35, 88.88 0.41 M60.41 39.26 C71.65 29.38, 81.56 18.82, 93.87 0.77 M60.41 39.26 C70.39 26.95, 79.84 15.07, 93.87 0.77 M65.4 39.62 C75.11 26.3, 85.17 13.52, 99.51 0.38 M65.4 39.62 C73.25 29.54, 81.8 20.31, 99.51 0.38 M71.04 39.23 C79.13 29.03, 87.51 22.39, 104.5 0.74 M71.04 39.23 C80.81 27.35, 92.06 15.87, 104.5 0.74 M76.03 39.59 C83.06 29.31, 92.61 21.21, 110.14 0.34 M76.03 39.59 C87.92 24.95, 101.52 11.3, 110.14 0.34 M81.01 39.95 C93.57 24.54, 107.44 6.78, 115.13 0.7 M81.01 39.95 C90.79 28.82, 101.36 16.36, 115.13 0.7 M86.66 39.55 C97.15 28.74, 106.9 16.39, 120.77 0.31 M86.66 39.55 C94.77 30.91, 100.75 23.39, 120.77 0.31 M91.64 39.91 C101.84 30.21, 113.46 17.97, 125.76 0.67 M91.64 39.91 C100.88 28.43, 111.36 17.49, 125.76 0.67 M97.29 39.52 C109.56 24.41, 124.83 9.03, 130.74 1.03 M97.29 39.52 C105.98 30.41, 113.99 21.8, 130.74 1.03 M102.27 39.88 C114.32 26.59, 125.77 10.97, 135.73 1.39 M102.27 39.88 C111.24 29.46, 120.74 18.56, 135.73 1.39 M107.92 39.48 C115.33 29.97, 124.74 17.3, 138.09 4.77 M107.92 39.48 C115 32.64, 121.9 24.39, 138.09 4.77 M112.9 39.84 C123.68 27.8, 131.51 17.55, 141.11 7.39 M112.9 39.84 C123.06 27.42, 132.58 15.69, 141.11 7.39 M118.55 39.45 C125.24 30.42, 133.99 18.55, 141.51 13.04 M118.55 39.45 C126.14 31.38, 134.11 21.81, 141.51 13.04 M123.53 39.81 C126.51 35.18, 132.63 31.86, 141.25 19.43 M123.53 39.81 C130.4 33.35, 136.31 26.46, 141.25 19.43 M130.49 37.91 C135.14 33.39, 137.27 31.13, 140.99 25.83 M130.49 37.91 C134.13 35.13, 136.51 31.5, 140.99 25.83" stroke="#fab005" stroke-width="0.5" fill="none"></path><path d="M9.5 0 M9.5 0 C46.28 2.09, 82.62 -0.94, 130.16 0 M9.5 0 C56.93 -1.91, 103.04 -0.71, 130.16 0 M130.16 0 C136.04 0.02, 140.26 1.61, 139.66 9.5 M130.16 0 C137.96 -0.76, 139.59 3.82, 139.66 9.5 M139.66 9.5 C137.85 13.97, 141.17 21, 139.66 28.49 M139.66 9.5 C139.84 14.76, 139.84 18.22, 139.66 28.49 M139.66 28.49 C140.77 32.88, 135.71 37.11, 130.16 37.99 M139.66 28.49 C138.75 32.76, 138.03 38.84, 130.16 37.99 M130.16 37.99 C107.29 38.05, 80.87 37.64, 9.5 37.99 M130.16 37.99 C89.29 36.77, 50.92 37.59, 9.5 37.99 M9.5 37.99 C4.56 37.7, 1.13 34.84, 0 28.49 M9.5 37.99 C3.72 38.28, -1.19 32.57, 0 28.49 M0 28.49 C-1.7 22.19, 1.87 14.97, 0 9.5 M0 28.49 C0.2 20.65, 0.19 14.78, 0 9.5 M0 9.5 C-0.13 3.5, 2.64 0.77, 9.5 0 M0 9.5 C-1.13 3.49, 1.57 1.49, 9.5 0" stroke="#d9480f" stroke-width="1" fill="none"></path></g><g mask="url(#mask-WhjYir_pahkJJRD9hR6Pq)" stroke-linecap="round"><g transform="translate(335.4553180394 839.2444177231175) rotate(0 -64.08354184704055 29.406153008195645)"><path d="M-0.29 0.83 C-22.03 10.17, -108.47 47.74, -129.92 57.15 M1.75 0.21 C-19.65 10.27, -105.75 48.87, -127.67 58.6" stroke="#d9480f" stroke-width="1" fill="none"></path></g><g transform="translate(335.4553180394 839.2444177231175) rotate(0 -64.08354184704055 29.406153008195645)"><path d="M-104.74 36.28 C-113.55 44.88, -120.64 52.41, -127.89 58.64 M-105.14 36.98 C-112.97 43.69, -117.52 49.63, -128.13 58.12" stroke="#d9480f" stroke-width="1" fill="none"></path></g><g transform="translate(335.4553180394 839.2444177231175) rotate(0 -64.08354184704055 29.406153008195645)"><path d="M-96.37 55.02 C-108.19 57.22, -118.13 58.38, -127.89 58.64 M-96.77 55.72 C-107 57.08, -113.93 57.69, -128.13 58.12" stroke="#d9480f" stroke-width="1" fill="none"></path></g></g><mask id="mask-WhjYir_pahkJJRD9hR6Pq"><rect x="0" y="0" fill="#fff" width="564.5076198306297" height="996.5656708539132"></rect><rect x="180.9291671437852" y="855.9050442885152" fill="#000" width="180" height="24" opacity="1"></rect></mask><g transform="translate(180.92916714378524 855.9050442885153) rotate(0 90.44260904857424 12.745526442797825)"><text x="90" y="0" font-family="Cascadia, Segoe UI Emoji" font-size="20px" fill="#c92a2a" text-anchor="middle" style="white-space: pre;" direction="ltr" dominant-baseline="text-before-edge">子组件向父组件传值</text></g><g stroke-linecap="round" transform="translate(167.32014011930693 916.5683298442474) rotate(0 70.8220404278309 20.110127943942132)"><path d="M2.68 2.33 C2.68 2.33, 2.68 2.33, 2.68 2.33 M2.68 2.33 C2.68 2.33, 2.68 2.33, 2.68 2.33 M0.45 10.99 C3.08 9.74, 4.11 6.24, 10.29 -0.33 M0.45 10.99 C4.16 7, 6.74 4.34, 10.29 -0.33 M0.84 16.63 C6.02 11.03, 9.62 5, 13.31 2.29 M0.84 16.63 C4.77 13.74, 6.48 8.32, 13.31 2.29 M1.24 22.27 C5.68 17.14, 6.82 14.96, 18.29 2.65 M1.24 22.27 C6.65 15.52, 14.48 6.94, 18.29 2.65 M0.97 28.67 C6.36 20.9, 10 17.39, 23.28 3.01 M0.97 28.67 C8.64 19.83, 14.37 12.04, 23.28 3.01 M0.71 35.07 C10.33 25.62, 19.72 14.99, 28.92 2.62 M0.71 35.07 C5.32 29.11, 12.72 22.3, 28.92 2.62 M3.73 37.69 C11.18 30.9, 15 23.28, 33.91 2.98 M3.73 37.69 C12.03 26.47, 22.14 16.24, 33.91 2.98 M6.75 40.32 C17.07 30.32, 25.28 22.53, 39.55 2.58 M6.75 40.32 C17.14 29.02, 27.34 16.24, 39.55 2.58 M11.74 40.68 C21.52 32.53, 28.76 21.49, 44.54 2.94 M11.74 40.68 C22.98 26.75, 34.98 13.14, 44.54 2.94 M17.38 40.28 C24.63 32.32, 33.79 24.51, 50.18 2.55 M17.38 40.28 C29.98 25.79, 43.58 9.78, 50.18 2.55 M22.37 40.64 C27.08 31.22, 33.46 24.18, 55.17 2.91 M22.37 40.64 C31.85 28.24, 41.24 17.99, 55.17 2.91 M28.01 40.25 C38.35 27.92, 48.1 17.69, 60.81 2.51 M28.01 40.25 C37.5 30.16, 46.43 17.7, 60.81 2.51 M33 40.61 C44.9 26.6, 56.57 13.35, 65.8 2.87 M33 40.61 C42.6 28.52, 54.89 15.78, 65.8 2.87 M37.99 40.97 C48.57 30.09, 61.66 15.18, 70.79 3.23 M37.99 40.97 C50.41 27.12, 64.43 11.97, 70.79 3.23 M43.63 40.58 C55.45 24.57, 67.15 10.71, 76.43 2.84 M43.63 40.58 C55.2 27.37, 66.93 14.48, 76.43 2.84 M48.62 40.94 C61.52 26.49, 72.11 11.59, 81.42 3.2 M48.62 40.94 C58.28 31.14, 66.33 20.79, 81.42 3.2 M54.26 40.54 C63.11 28.29, 76.24 14.73, 87.06 2.81 M54.26 40.54 C66.84 27.05, 78.54 13.28, 87.06 2.81 M59.25 40.9 C66.36 34.49, 75.07 25.12, 92.05 3.17 M59.25 40.9 C66.79 31.71, 74.94 23.71, 92.05 3.17 M64.89 40.51 C72.3 32.95, 77.34 26.02, 97.69 2.77 M64.89 40.51 C75.76 26.27, 88.89 12.63, 97.69 2.77 M69.88 40.87 C79.23 28.56, 90.56 18.83, 102.68 3.13 M69.88 40.87 C81.1 26.7, 93.63 14.74, 102.68 3.13 M75.52 40.47 C87.27 28.62, 95.33 15.09, 108.32 2.74 M75.52 40.47 C83.88 31.19, 91.22 22.66, 108.32 2.74 M80.51 40.83 C88.66 32.59, 98.46 21.7, 113.31 3.1 M80.51 40.83 C89.34 29.37, 99.33 18.89, 113.31 3.1 M85.49 41.19 C92.71 31.37, 102.26 19.25, 118.3 3.46 M85.49 41.19 C96.35 30.02, 106.07 17.28, 118.3 3.46 M91.14 40.8 C97.56 33.66, 106.36 21.63, 123.94 3.06 M91.14 40.8 C97.41 32.54, 104.05 24.65, 123.94 3.06 M96.12 41.16 C104.26 31.46, 113.77 17.92, 128.93 3.42 M96.12 41.16 C103.09 32.81, 111.45 23.15, 128.93 3.42 M101.77 40.76 C110.15 29.02, 118.81 22.01, 136.54 0.76 M101.77 40.76 C112.43 28.71, 121.25 18.06, 136.54 0.76 M106.75 41.12 C116.08 29.21, 127.63 14.53, 138.9 4.14 M106.75 41.12 C114.3 33.17, 122.14 22.8, 138.9 4.14 M112.4 40.73 C122.32 31.23, 130.74 19.35, 141.92 6.77 M112.4 40.73 C120.68 33.18, 127.09 25.09, 141.92 6.77 M117.38 41.09 C123.18 33.17, 131.46 24.52, 142.31 12.41 M117.38 41.09 C123.51 35.03, 128.85 28.33, 142.31 12.41 M123.03 40.69 C130.39 34.11, 133.58 27.01, 142.05 18.81 M123.03 40.69 C129.53 34.09, 136.03 26.26, 142.05 18.81 M128.01 41.05 C132.66 35.72, 135.08 31.2, 141.79 25.21 M128.01 41.05 C130.87 37.02, 134.31 34.47, 141.79 25.21 M133 41.41 C137.1 38.31, 138.43 35.84, 142.18 30.85 M133 41.41 C135.12 38.86, 137.59 36.91, 142.18 30.85" stroke="#fab005" stroke-width="0.5" fill="none"></path><path d="M10.06 0 M10.06 0 C52.67 0.37, 94.91 -1.9, 131.59 0 M10.06 0 C34.68 -1.32, 59.5 -1.03, 131.59 0 M131.59 0 C136.41 0.31, 141.48 2.78, 141.64 10.06 M131.59 0 C138.3 2.06, 141.49 2.49, 141.64 10.06 M141.64 10.06 C141.94 18.87, 143.55 25.92, 141.64 30.17 M141.64 10.06 C141.39 18.07, 142.57 25.98, 141.64 30.17 M141.64 30.17 C139.99 37.8, 137.5 40.51, 131.59 40.22 M141.64 30.17 C139.45 35.46, 139.26 41.45, 131.59 40.22 M131.59 40.22 C82.53 41.04, 35.1 41.38, 10.06 40.22 M131.59 40.22 C95.2 40.32, 57.94 41.38, 10.06 40.22 M10.06 40.22 C4.4 39.71, -0.93 37.01, 0 30.17 M10.06 40.22 C3.79 40.11, 0.97 37.92, 0 30.17 M0 30.17 C-0.8 22.4, 1.81 17.02, 0 10.06 M0 30.17 C-0.84 24.13, -0.12 18.95, 0 10.06 M0 10.06 C1.16 3.82, 4.12 -1.01, 10.06 0 M0 10.06 C2.03 2.9, 2.65 -1.72, 10.06 0" stroke="#c92a2a" stroke-width="1" fill="none"></path></g><g mask="url(#mask-ajPWXh-e3lXOU4v0iBB1J)" stroke-linecap="round"><g transform="translate(240.99458569082321 971.0461335774916) rotate(0 377.06438113509563 34.350440399955346)"><path d="M-0.51 -0.82 C49.57 27.57, 175.5 188.24, 301.36 170.86 C427.22 153.47, 679.24 -59.38, 754.63 -105.14 M1.43 1.36 C51.23 29.93, 174.78 190.11, 300.2 172.49 C425.61 154.86, 678.36 -58.57, 753.91 -104.38" stroke="#c92a2a" stroke-width="1" fill="none"></path></g><g transform="translate(240.99458569082321 971.0461335774916) rotate(0 377.06438113509563 34.350440399955346)"><path d="M735.54 -80.36 C743.48 -88.75, 747.79 -99.57, 754.55 -104.23 M735.99 -79.99 C741.22 -86.94, 747.38 -95.33, 753.99 -103.7" stroke="#c92a2a" stroke-width="1" fill="none"></path></g><g transform="translate(240.99458569082321 971.0461335774916) rotate(0 377.06438113509563 34.350440399955346)"><path d="M723.63 -97.07 C736.12 -99.13, 744.9 -103.67, 754.55 -104.23 M724.08 -96.7 C732.95 -98.67, 742.72 -101.99, 753.99 -103.7" stroke="#c92a2a" stroke-width="1" fill="none"></path></g></g><mask id="mask-ajPWXh-e3lXOU4v0iBB1J"><rect x="0" y="0" fill="#fff" width="1095.547542593485" height="1345.7905134769599"></rect><rect x="232.76740742276434" y="1117.7336991457805" fill="#000" width="620" height="48" opacity="1"></rect></mask><g transform="translate(232.76740742276434 1117.7336991457805) rotate(0 385.2915594031545 -112.33712516833361)"><text x="310" y="0" font-family="Cascadia, Segoe UI Emoji" font-size="20px" fill="#c92a2a" text-anchor="middle" style="white-space: pre;" direction="ltr" dominant-baseline="text-before-edge">子组件向父组件传值，在子组件触发函数的情况下，调用父组件的方法</text><text x="310" y="24" font-family="Cascadia, Segoe UI Emoji" font-size="20px" fill="#c92a2a" text-anchor="middle" style="white-space: pre;" direction="ltr" dominant-baseline="text-before-edge">执行了一次，输出了 “test” 日志</text></g><g mask="url(#mask-eBrPRMIf4VTN9pT_Xsf_a)" stroke-linecap="round"><g transform="translate(1121.372698686952 865.6818251360127) rotate(0 155.23710556696415 72.57617532998893)"><path d="M0.94 -0.53 C59.63 23.21, 357.92 128.11, 351.06 142.5 C344.21 156.88, 25 95.21, -40.19 85.76 M-0.02 1.81 C58.58 25.7, 356.75 130.11, 349.97 143.77 C343.19 157.42, 24.21 93.77, -40.7 83.74" stroke="#c92a2a" stroke-width="1" fill="none"></path></g><g transform="translate(1121.372698686952 865.6818251360127) rotate(0 155.23710556696415 72.57617532998893)"><path d="M-12.03 78.16 C-18.17 80.72, -22.48 82.01, -39.57 84.39 M-10.66 78.94 C-19.47 79.82, -27.97 82.16, -41.69 83.57" stroke="#c92a2a" stroke-width="1" fill="none"></path></g><g transform="translate(1121.372698686952 865.6818251360127) rotate(0 155.23710556696415 72.57617532998893)"><path d="M-15.64 98.36 C-21.04 96.66, -24.59 93.73, -39.57 84.39 M-14.27 99.14 C-21.87 94.1, -29.31 90.55, -41.69 83.57" stroke="#c92a2a" stroke-width="1" fill="none"></path></g></g><mask id="mask-eBrPRMIf4VTN9pT_Xsf_a"><rect x="0" y="0" fill="#fff" width="1613.372698686952" height="1108.6818251360128"></rect><rect x="1316.8394018357483" y="936.6818251360127" fill="#000" width="311.71875" height="144" opacity="1"></rect></mask><g transform="translate(1316.8394018357485 936.6818251360127) rotate(0 -40.229597581832195 1.5761753299889278)"><text x="155.859375" y="0" font-family="Cascadia, Segoe UI Emoji" font-size="20px" fill="#c92a2a" text-anchor="middle" style="white-space: pre;" direction="ltr" dominant-baseline="text-before-edge">这里俩次调用：</text><text x="155.859375" y="24" font-family="Cascadia, Segoe UI Emoji" font-size="20px" fill="#c92a2a" text-anchor="middle" style="white-space: pre;" direction="ltr" dominant-baseline="text-before-edge">1:直接调用子组件vant自带的api</text><text x="155.859375" y="48" font-family="Cascadia, Segoe UI Emoji" font-size="20px" fill="#c92a2a" text-anchor="middle" style="white-space: pre;" direction="ltr" dominant-baseline="text-before-edge">2: </text><text x="155.859375" y="72" font-family="Cascadia, Segoe UI Emoji" font-size="20px" fill="#c92a2a" text-anchor="middle" style="white-space: pre;" direction="ltr" dominant-baseline="text-before-edge">在1的条件下，触发传值方法，又调</text><text x="155.859375" y="96" font-family="Cascadia, Segoe UI Emoji" font-size="20px" fill="#c92a2a" text-anchor="middle" style="white-space: pre;" direction="ltr" dominant-baseline="text-before-edge">用父组件的方法</text><text x="155.859375" y="120" font-family="Cascadia, Segoe UI Emoji" font-size="20px" fill="#c92a2a" text-anchor="middle" style="white-space: pre;" direction="ltr" dominant-baseline="text-before-edge"></text></g><g transform="translate(1223.4265029736268 521.6244032070274) rotate(0 270 60)"><text x="0" y="0" font-family="Cascadia, Segoe UI Emoji" font-size="20px" fill="#087f5b" text-anchor="start" style="white-space: pre;" direction="ltr" dominant-baseline="text-before-edge">就相当于：</text><text x="0" y="24" font-family="Cascadia, Segoe UI Emoji" font-size="20px" fill="#087f5b" text-anchor="start" style="white-space: pre;" direction="ltr" dominant-baseline="text-before-edge"></text><text x="0" y="48" font-family="Cascadia, Segoe UI Emoji" font-size="20px" fill="#087f5b" text-anchor="start" style="white-space: pre;" direction="ltr" dominant-baseline="text-before-edge">第一次：调用子组件自带的api方法，执行了一次</text><text x="0" y="72" font-family="Cascadia, Segoe UI Emoji" font-size="20px" fill="#087f5b" text-anchor="start" style="white-space: pre;" direction="ltr" dominant-baseline="text-before-edge"></text><text x="0" y="96" font-family="Cascadia, Segoe UI Emoji" font-size="20px" fill="#087f5b" text-anchor="start" style="white-space: pre;" direction="ltr" dominant-baseline="text-before-edge">第二次：通过子组件传值方式调用父组件方法，执行了一次；</text></g></svg>